<svg height="512" viewBox="0 0 60 60" width="512" xmlns="http://www.w3.org/2000/svg"><g id="Page-1" fill="none" fill-rule="evenodd"><g id="010---Education" fill-rule="nonzero"><path id="Shape" d="m24.96 56.89-1.78 1.6c-.3682872.3297644-.8456541.5114488-1.34.51h-13.51c-.83011072.0024408-1.57543805-.5081537-1.87298528-1.2831088s-.08545347-1.6531555.53298528-2.2068912l8.26-7.44c.3801031-.3348556.9498969-.3348556 1.33 0l.72.63 6.93 6.07.72.63c.2157798.1867194.3406012.4573904.3425163.7427348.0019151.2853443-.1192621.5576664-.3325163.7472652z" fill="#3f51b5"/><path id="Shape" d="m24.95 55.4-.72-.63-6.93-6.07-.72-.63c-.3801031-.3348556-.9498969-.3348556-1.33 0l-.823.741 6.8 5.959.72.63c.2157798.1867194.3406012.4573904.3425163.7427348.0019151.2853443-.1192621.5576664-.3325163.7472652l-1.78 1.6c-.3682872.3297644-.8456541.5114488-1.34.51h3c.4943459.0014488.9717128-.1802356 1.34-.51l1.78-1.6c.2136296-.1891689.335351-.4612425.3340104-.7465856-.0013405-.2853431-.1256128-.5562611-.3410104-.7434144z" fill="#283593"/><path id="Shape" d="m42 34.5v6.89c0 1.744-1.021 1.824-4.47 6.79-1.6774052 2.3992268-4.4225536 3.8259571-7.35 3.82h-1.88c-.788374.001543-1.545168.3099993-2.11.86l-1.96 1.91-6.93-6.07 1.53-1.53c.3790282-.3732815.5924538-.8830212.5924538-1.415s-.2134256-1.0417185-.5924538-1.415l-2.98-3.23c-1.4551214-1.8094546-1.2491251-4.4391947.47-6 .3993629-.2820145.9454912-.2265483 1.28.13l7.02 7.38c.7314611.7420208 1.6948407 1.2113596 2.73 1.33.4.07.084.05 4.6.05 1.2272679-.0254834 2.3964454-.5275842 3.26-1.4l1.79-1.88v-6.22c0-1.3807119 1.1192881-2.5 2.5-2.5s2.5 1.1192881 2.5 2.5z" fill="#ffe0b2"/><path id="Shape" d="m39.5 32c-.5420944.0007725-1.0689924.1792153-1.5.508.6292514.4687834 1.0000051 1.2073248 1 1.992v6.89c0 1.743-1.021 1.824-4.47 6.79-1.6774052 2.3992268-4.4225536 3.8259571-7.35 3.82h-1.88c-.788374.001543-1.545168.3099993-2.11.86l-.54.526 1.58 1.384 1.96-1.91c.564832-.5500007 1.321626-.858457 2.11-.86h1.88c2.9274464.0059571 5.6725948-1.4207732 7.35-3.82 3.449-4.966 4.47-5.047 4.47-6.79v-6.89c.001866-.6636115-.2609269-1.300581-.7301729-1.7698271-.4692461-.469246-1.1062156-.7320389-1.7698271-.7301729z" fill="#dfc49c"/><path id="Shape" d="m48.04 36-6.47 6.91c.2806924-.4573487.4295053-.9833848.43-1.52v-5.94l3.17-3.33c.7238231-.802679 1.9585709-.8740001 2.77-.16l.02.02c1.1171722 1.0945287 1.1527416 2.8818909.08 4.02z" fill="#ffe0b2"/><path id="Shape" d="m47.96 31.98-.02-.02c-.8114291-.7140001-2.0461769-.642679-2.77.16l-.049.051c.955842 1.1093567.9209013 2.7610581-.081 3.829l-3.04 3.247v2.143c-.0004947.5366152-.1493076 1.0626513-.43 1.52l6.47-6.91c1.0727416-1.1381091 1.0371722-2.9254713-.08-4.02z" fill="#dfc49c"/><path id="Shape" d="m47 12.57v7.362c0 3.253-6.716 7.068-15 7.068s-15-3.815-15-7.068v-7.362z" fill="#3f51b5"/><path id="Shape" d="m44 12.57v7.362c0 3.054-5.92 6.6-13.5 7.025.493.028.994.043 1.5.043 8.284 0 15-3.815 15-7.068v-7.362z" fill="#283593"/><path id="Shape" d="m11 20.23c1.6568542 0 3 1.3431458 3 3v3.77c0 .5522847-.4477153 1-1 1h-4c-.55228475 0-1-.4477153-1-1v-3.77c0-1.6568542 1.34314575-3 3-3z" fill="#ffdc00"/><path id="Shape" d="m11 20.23c-.5281059.0027453-1.0459153.1463511-1.5.416.925812.5314193 1.4976542 1.5165128 1.5 2.584v3.77c0 .5522847-.4477153 1-1 1h3c.5522847 0 1-.4477153 1-1v-3.77c0-.7956495-.3160705-1.5587112-.8786797-2.1213203-.5626091-.5626092-1.3256708-.8786797-2.1213203-.8786797z" fill="#fec108"/><path id="Shape" d="m32 19-21-9 21-9 21 9z" fill="#02a9f4"/><path id="Shape" d="m32 1-1.5.643 19.5 8.357-19.5 8.357 1.5.643 21-9z" fill="#0377bc"/><g fill="#000"><path id="Shape" d="m18.941 53.527c-.3923789-.3789722-1.0160848-.3735524-1.4018186.0121814s-.3911536 1.0094397-.0121814 1.4018186l1.766 1.766c.3923789.3789722 1.0160848.3735524 1.4018186-.0121814s.3911536-1.0094397.0121814-1.4018186z"/><path id="Shape" d="m28.3 53h1.88c3.2552511.0055595 6.3073245-1.5817278 8.172-4.25 1.1398777-1.6463536 2.3652236-3.2318598 3.671-4.75.1234586-.1466245.236089-.3020345.337-.465l6.411-6.847c1.4389632-1.5518163 1.3777248-3.9680684-.138-5.445-.5418851-.5183448-1.2695012-.7969219-2.019-.773-.8222806.0216663-1.6023639.3687296-2.169.965l-1.693 1.775c-.174366-.4443027-.4377636-.8482472-.774-1.187-1.3958268-1.3000956-3.5591732-1.3000956-4.955 0-.6580906.6559299-1.0264542 1.5478523-1.023 2.477v5.82l-1.507 1.58c-.5905526.5983968-1.3699933.9739841-2.206 1.063-.1110202.0222618-.2237944.0346435-.337.037h-4.09c-.1319721-.0033163-.2634332-.0177001-.393-.043-.803698-.0898013-1.5524893-.4518465-2.122-1.026l-7.019-7.378c-.686562-.6943958-1.7693195-.8038881-2.581-.261-.0306099.0213236-.0599901.0443604-.088.069-1.0739639.9797481-1.7125251 2.3475794-1.774 3.8-.0960608 1.3262033.3478804 2.6349463 1.231 3.629l3.013 3.263c.1902822.1833462.2984612.4357638.3.7.0002305.268981-.107909.5267134-.3.715l-.868.868-.008-.006c-.7611568-.6732422-1.9048432-.6732422-2.666 0l-8.266 7.438c-.92547819.8311577-1.24202804 2.1472315-.79574017 3.3083345.44628786 1.161103 1.56282466 1.9263478 2.80674017 1.9236655h13.51c.741116.0006118 1.4564244-.2721241 2.009-.766l1.777-1.6c.4134131-.3640955.6558748-.8843802.6687885-1.4351153.0129138-.5507351-.2048952-1.0818124-.6007885-1.4648847l1.19-1.16c.3793527-.3682598.8873-.574165 1.416-.574zm17.6-20.191c.1993135-.2109647.4739244-.3346115.764-.344.2222216-.0017588.4367681.0811992.6.232.7225491.7155792.7438326 1.8764153.048 2.618l-4.312 4.605v-4.07zm-29.313 7.626c-.5181168-.5990954-.7729742-1.3816916-.707-2.171.0387506-.8711996.3985194-1.6972429 1.01-2.319l7.01 7.372c.8755771.8959623 2.0304218 1.4666827 3.274 1.618.2263281.0416696.4558733.0634195.686.065h4.09c.2102708-.0004979.4200865-.0195721.627-.057 1.2754148-.1508269 2.4606036-.7342447 3.358-1.653l1.79-1.881c.1766165-.1859124.2750644-.432569.275-.689v-6.22c.0001175-.3982269.1575413-.7802853.438-1.063.5993969-.5555657 1.5256031-.5555657 2.125 0 .2798163.28306.4368238.6649798.437 1.063v6.89c-.000142.3530763-.098098.6992108-.283 1-.0178558.0257037-.0342163.0524146-.049.08-.0469218.0812212-.1022236.1573031-.165.227-1.3495253 1.5703448-2.6159246 3.2102552-3.794 4.913-1.4909168 2.1298106-3.9292131 3.3958275-6.529 3.39h-1.88c-1.0495602.0010987-2.0573057.4115155-2.809 1.144l-1.3 1.265-5.431-4.757.774-.775c.5694161-.5642413.8885992-1.333379.886-2.135.0018887-.7798261-.3068566-1.5282996-.858-2.08zm7.713 15.708-1.777 1.6c-.1868488.1691624-.4309837.2610258-.683.257h-13.51c-.41619806.0025795-.7904779-.2528986-.93970831-.6414314-.14923042-.3885329-.0422056-.8288738.26870831-1.1055686l8.262-7.431.719.63 6.93 6.069.723.618z"/><path id="Shape" d="m7 23.23v3.77c0 1.1045695.8954305 2 2 2h4c1.1045695 0 2-.8954305 2-2v-3.77c-.0068148-1.8184116-1.2393149-3.4034067-3-3.858v-7.856l4 1.714v6.7c0 4.225 7.626 8.07 16 8.07s16-3.845 16-8.07v-6.7l5.394-2.311c.367503-.1576614.6057425-.5191056.6057425-.919s-.2382395-.76133862-.6057425-.919l-21-9c-.2515954-.10785275-.5364046-.10785275-.788 0l-21 9c-.3676038.15758269-.6059558.51904392-.606.919v9.372c-1.76068514.4545933-2.99318518 2.0395884-3 3.858zm39-3.3c0 2.389-6.012 6.07-14 6.07s-14-3.681-14-6.07v-5.842l13.606 5.831c.2515954.1078527.5364046.1078527.788 0l13.606-5.831zm-14-17.842 18.461 7.912-3.843 1.647-.015.006-14.603 6.259-14.6-6.259-.015-.006-1.513-.647h16.128c.5522847 0 1-.4477153 1-1 0-.55228475-.4477153-1-1-1h-16.128zm-23 21.142c0-1.1045695.8954305-2 2-2s2 .8954305 2 2v3.77h-4z"/><path id="Shape" d="m.805 13.323 1.962.39c.06586858.012971.13286726.0193359.2.019.51453327-.000004.94508279-.3904523.99523131-.9025359s-.29647417-.9786407-.80123131-1.0784641l-1.961-.39c-.54179134-.1076955-1.06830447.2442087-1.176.786s.24420866 1.0683045.786 1.176z"/><path id="Shape" d="m56.843 24.249 1.962.39c.0659475.0124207.1328933.0187806.2.019.5145333-.000004.9450828-.3904523.9952313-.9025359s-.2964742-.9786407-.8012313-1.0784641l-1.962-.39c-.5417913-.1076955-1.0683044.2442087-1.176.786-.1076955.5417913.2442087 1.0683045.786 1.176z"/><path id="Shape" d="m1 24.658c.06710666-.0002194.13405246-.0065793.2-.019l1.962-.39c.54179132-.1076955.89369549-.6342087.78599996-1.176-.10769552-.5417913-.63420863-.8936955-1.17599996-.786l-1.962.39c-.50402503.0996574-.8505165.565045-.80146409 1.0764809.0490524.5114359.47768528.9024804.99146409.9045191z"/><path id="Shape" d="m57.037 13.732c.0671327.0003359.1341314-.006029.2-.019l1.962-.39c.3504775-.0696668.6371654-.3210191.7520709-.659375.1149056-.3383558.040572-.7123109-.195-.981-.235572-.268689-.5965934-.3912918-.9470709-.321625l-1.962.39c-.5047571.0998234-.8513798.5663805-.8012313 1.0784641s.480698.9025319.9952313.9025359z"/><path id="Shape" d="m5.331 35.111c.1975323.0000443.39065313-.0584139.555-.168l1.663-1.111c.45591993-.3080565.57731232-.9265654.27165095-1.3840945-.30566137-.4575292-.92352521-.5821634-1.38265095-.2789055l-1.664 1.111c-.36601601.2450113-.52862769.7006512-.40043982 1.1220371.12818787.421386.5169876.7092835.95743982.7089629z"/><path id="Shape" d="m53.008 4c.1976355-.00025171.3907649-.05906047.555-.169l1.663-1.111c.4592248-.30707032.5825703-.92827523.2755-1.3875s-.9282752-.58257032-1.3875-.2755l-1.663 1.111c-.3669657.24468948-.5302857.70090402-.4019842 1.12289393.1283016.42198991.5179221.7100888.9589842.70910607z"/><path id="Shape" d="m6.438 3.831c.29706075.20071832.67884128.22705343 1.00064832.06902443.32180703-.15802901.534393-.47623825.55718868-.8340277.02279567-.35778945-.14768747-.700405-.446837-.89799673l-1.663-1.111c-.29706634-.19863967-.67753996-.22370729-.99810012-.06576012-.32056017.15794716-.53250617.47491317-.556.8315-.02349383.35658682.14503378.69862045.44210012.89726012z"/><path id="Shape" d="m53.563 32.169c-.2970663-.1986397-.67754-.2237073-.9981001-.0657601-.3205602.1579471-.5325062.4749131-.556.8315-.0234939.3565868.1450338.6986204.4421001.8972601l1.663 1.111c.2970663.1986397.67754.2237073.9981002.0657602.3205601-.1579472.5325061-.4749132.556-.8315001.0234938-.3565868-.1450338-.6986204-.4421002-.8972601z"/></g></g></g></svg>