<svg xmlns="http://www.w3.org/2000/svg" viewBox="0 0 750 500"><defs><style>.cls-1,.cls-11{fill:#fff;}.cls-2{fill:#d3ebfa;}.cls-10,.cls-11,.cls-12,.cls-15,.cls-16,.cls-17,.cls-18,.cls-19,.cls-2,.cls-20,.cls-21,.cls-22,.cls-23,.cls-24,.cls-25,.cls-26,.cls-27,.cls-28,.cls-29,.cls-3,.cls-30,.cls-36,.cls-37,.cls-38,.cls-39,.cls-4,.cls-5,.cls-6,.cls-7,.cls-8,.cls-9{fill-rule:evenodd;}.cls-3{fill:#f9ee26;opacity:0.15;}.cls-4{fill:#99c8ec;}.cls-5{fill:#89bbe6;}.cls-6{fill:#b6daf4;}.cls-7{fill:#170839;}.cls-8{fill:#221758;}.cls-32,.cls-9{fill:#f9b532;}.cls-10,.cls-31{fill:#fdd329;}.cls-12,.cls-13{fill:#efeef8;}.cls-14,.cls-15{fill:#80bbe7;}.cls-16{fill:#e98daf;}.cls-17{fill:#f3c6d4;}.cls-18{fill:#0e0226;}.cls-19{fill:#1a0f44;}.cls-20{fill:#1b7fc2;}.cls-21{fill:#428fcd;}.cls-22{fill:#22134f;}.cls-23{fill:#201049;}.cls-24{fill:#22185a;}.cls-25{fill:#ed7792;}.cls-26{fill:#0065aa;}.cls-27{fill:#674f9b;}.cls-28{fill:#3388c9;}.cls-29{fill:#f2bbc9;}.cls-30{fill:#3889c9;}.cls-33,.cls-36{fill:#fff2d1;}.cls-34{fill:#f2bcc2;}.cls-35{fill:#f2b2a5;}.cls-37{fill:#fcc749;}.cls-38{fill:#e84a5b;}.cls-39{fill:#d8364b;}</style></defs><g id="BACKGROUND"><rect class="cls-1" width="750" height="500"/></g><g id="OBJECTS"><path class="cls-2" d="M236,63.62H336.71A13.34,13.34,0,0,1,350,76.92v93.86a1.49,1.49,0,0,1-2.54,1.05l-22.67-22.67H236a13.35,13.35,0,0,1-13.31-13.31V76.92A13.34,13.34,0,0,1,236,63.62Z"/><path class="cls-3" d="M142.91,417.26s-49.46-59,8.25-110.06c0,0-51.82-57.75-18.85-123.26s96.58-60,147.22-46.64S396.13,144,446.77,91.77,556.3,50.69,578.67,75.12s28.27,74.39,3.54,124.36-10.6,82.18,10.6,106.6,23.55,92.43-27.09,111.18Zm14.9,20.9s-52.86-31.81-40-86.73c0,0,.38-1.4-.85-1.63s-27.49,42,9.21,80.69Z"/><path class="cls-4" d="M437.82,289.12c61-5.75,49.6,57.26,10.29,97-7.21,7.28-18.7,17.24-32.83,29H292.88C340.23,348.66,396,293.07,437.82,289.12Z"/><path class="cls-5" d="M339,415.12c60-59.73,114.38-99.27,114.71-99.52a2.47,2.47,0,0,1,2.92,4c-.33.24-52.42,38.1-110.69,95.54Z"/><path class="cls-4" d="M395.72,145.58c25-7.88,25.92,19.53,13,39.7-12.24,19.12-65.94,78.48-78.1,109l-6.59-3.51C327.61,245.22,363.69,155.67,395.72,145.58Z"/><path class="cls-5" d="M326.47,292.06c15.33-66.62,78.09-136.58,78.3-136.82a1.06,1.06,0,1,1,1.58,1.41c-.21.23-63,70.27-78,136.43Z"/><path class="cls-6" d="M409.63,186.93c24.8-3.15,21,22.71,5.48,39.44-12.85,13.86-60.64,51.19-83.53,78.11l-10.51-4C336.41,257.16,380.36,190.66,409.63,186.93Z"/><path class="cls-4" d="M324.91,302c28.79-55.62,91.35-104.27,91.57-104.44a1,1,0,0,1,1.24,1.58c-.22.18-62.38,48.51-90.94,103.56Z"/><path class="cls-7" d="M91.46,415.12H654.31a6.73,6.73,0,0,1,6.71,6.71h0a6.73,6.73,0,0,1-6.71,6.71H631.66a3.74,3.74,0,0,0-3.73,3.73h0a3.74,3.74,0,0,0,3.73,3.73h8.28a4.68,4.68,0,0,1,4.67,4.66h0a4.68,4.68,0,0,1-4.67,4.67H106.56a4.68,4.68,0,0,1-4.66-4.67h0a4.68,4.68,0,0,1,4.66-4.66h6.53a3.74,3.74,0,0,0,3.73-3.73h0a3.74,3.74,0,0,0-3.73-3.73H91.46a6.73,6.73,0,0,1-6.71-6.71h0a6.73,6.73,0,0,1,6.71-6.71ZM95,445.33a4.49,4.49,0,0,0,4.47-4.48v-.37A4.49,4.49,0,0,0,95,436h0a4.49,4.49,0,0,0-4.48,4.48v.37A4.49,4.49,0,0,0,95,445.33Z"/><path class="cls-2" d="M599.65,264.06Zm5.5-20.95a10.59,10.59,0,1,1-3.1,7.49,10.56,10.56,0,0,1,3.1-7.49Zm2.29-10.49a18.66,18.66,0,0,0-4.15,1.77,18.87,18.87,0,0,0-3.64,2.74.65.65,0,0,1-.78.1L594,234.39l0,0a1.23,1.23,0,0,0-.9-.1,1.19,1.19,0,0,0-.74.57l0,0-3.46,6a1.25,1.25,0,0,0,.45,1.67l0,0,4.88,2.81a.66.66,0,0,1,.31.72h0a18.07,18.07,0,0,0-.41,2.24,18.55,18.55,0,0,0,0,4.55,18.07,18.07,0,0,0,.41,2.24.66.66,0,0,1-.35.74l-4.87,2.81h0a1.25,1.25,0,0,0-.45,1.67l3.48,6h0a1.25,1.25,0,0,0,.74.56,1.22,1.22,0,0,0,.93-.12l0,0,4.89-2.82a.65.65,0,0,1,.77.1,18.68,18.68,0,0,0,7.81,4.51.67.67,0,0,1,.48.63v5.67a1.2,1.2,0,0,0,.35.86,1.23,1.23,0,0,0,.86.36h7a1.23,1.23,0,0,0,1.22-1.22V269.2a.64.64,0,0,1,.5-.63A18.66,18.66,0,0,0,622,266.8a19.08,19.08,0,0,0,3.64-2.74.64.64,0,0,1,.8-.08l4.89,2.82a1.2,1.2,0,0,0,.92.12,1.25,1.25,0,0,0,.74-.56l0,0,3.46-6h0a1.22,1.22,0,0,0,.12-.93,1.25,1.25,0,0,0-.56-.74l-4.92-2.83a.66.66,0,0,1-.3-.72h0a18.07,18.07,0,0,0,.41-2.24,18.84,18.84,0,0,0,.13-2.27,19.17,19.17,0,0,0-.13-2.29,18.26,18.26,0,0,0-.41-2.23.64.64,0,0,1,.34-.74l4.88-2.81a1.25,1.25,0,0,0,.56-.74,1.22,1.22,0,0,0-.12-.93l0,0-3.46-6h0a1.22,1.22,0,0,0-1.66-.45h0l-4.92,2.84a.65.65,0,0,1-.79-.11,18.89,18.89,0,0,0-3.62-2.73,18.43,18.43,0,0,0-4.18-1.77.67.67,0,0,1-.47-.63v-5.67a1.23,1.23,0,0,0-1.22-1.22h-7a1.23,1.23,0,0,0-.86.36,1.2,1.2,0,0,0-.35.86V232A.65.65,0,0,1,607.44,232.62Z"/><path class="cls-2" d="M634.05,159.31a15.9,15.9,0,0,1,5.11-3.41,15.73,15.73,0,1,1-5.11,3.41Zm5.67-2.07A14.3,14.3,0,0,0,632,165a14.29,14.29,0,0,0,23.3,15.57A14.31,14.31,0,0,0,658.39,165a14.38,14.38,0,0,0-7.74-7.74,14.37,14.37,0,0,0-10.93,0ZM638,145.66a24.34,24.34,0,0,0-2.9,1,25.89,25.89,0,0,0-2.79,1.39,27.19,27.19,0,0,0-2.63,1.74,26.07,26.07,0,0,0-2.39,2.05,1.62,1.62,0,0,1-.95.45,1.66,1.66,0,0,1-1-.21c-2.31-1.34-4.75-2.66-7-4.05a.83.83,0,0,0-.34-.1.86.86,0,0,0-.39,0,.88.88,0,0,0-.35.17,1,1,0,0,0-.26.29c-1.68,2.55-3.37,5.84-4.93,8.55a1,1,0,0,0-.13.36,1.35,1.35,0,0,0,0,.4,1,1,0,0,0,.17.35,1.08,1.08,0,0,0,.3.26c2.08,1.37,4.76,2.75,7,4a1.67,1.67,0,0,1,.69.78,1.42,1.42,0,0,1,.11.35l.14,0-.16.65q-.2.76-.33,1.53c-.09.5-.17,1-.23,1.56s-.12,1-.15,1.56,0,1,0,1.59,0,1.07,0,1.58.08,1,.15,1.56.14,1.06.23,1.56.21,1,.33,1.53a1.65,1.65,0,0,1-.1,1.08,1.62,1.62,0,0,1-.75.78l-6.16,3.56h0l-.73.42a1.08,1.08,0,0,0-.3.26,1.27,1.27,0,0,0-.17.35,1.35,1.35,0,0,0,0,.4,1,1,0,0,0,.13.36l4.56,7.91h0l.37.64a.92.92,0,0,0,.26.29,1.06,1.06,0,0,0,.35.18,1.08,1.08,0,0,0,.4,0,.81.81,0,0,0,.36-.12c2.21-1.39,4.7-2.71,7-4a1.63,1.63,0,0,1,2,.24h0a24.92,24.92,0,0,0,2.4,2,25.16,25.16,0,0,0,8.38,4.18,1.66,1.66,0,0,1,1.19,1.59v8a1,1,0,0,0,.07.38,1,1,0,0,0,.22.32.83.83,0,0,0,.33.22.91.91,0,0,0,.37.08h9.88a1,1,0,0,0,.38-.08,1.07,1.07,0,0,0,.54-.54,1,1,0,0,0,.08-.38v-8a1.66,1.66,0,0,1,.35-1,1.68,1.68,0,0,1,.92-.59,25.66,25.66,0,0,0,2.9-1,24.85,24.85,0,0,0,2.78-1.39,27.19,27.19,0,0,0,2.63-1.74,27.61,27.61,0,0,0,2.4-2,1.61,1.61,0,0,1,1-.45,1.73,1.73,0,0,1,1.06.26l6.89,4a.81.81,0,0,0,.36.12,1.08,1.08,0,0,0,.4,0,1.06,1.06,0,0,0,.35-.18.92.92,0,0,0,.26-.29c1.64-2.85,3.3-5.69,4.94-8.55a1.18,1.18,0,0,0,.12-.36.91.91,0,0,0,0-.4.88.88,0,0,0-.17-.35.91.91,0,0,0-.29-.26l-7-4a1.62,1.62,0,0,1-.69-.78,1.43,1.43,0,0,1-.09-.27l-.18,0,.18-.74q.19-.77.33-1.53c.09-.5.17-1,.24-1.55s.11-1.06.14-1.57,0-1,0-1.58,0-1.08,0-1.59-.08-1-.14-1.56-.15-1.07-.24-1.56-.2-1-.33-1.53a1.66,1.66,0,0,1,.85-1.86l6.9-4a1,1,0,0,0,.29-.26.88.88,0,0,0,.17-.35.91.91,0,0,0,0-.4,1.18,1.18,0,0,0-.12-.36c-1.69-2.51-3.38-5.86-4.94-8.55a1,1,0,0,0-.26-.29.88.88,0,0,0-.35-.17.91.91,0,0,0-.4,0,.85.85,0,0,0-.36.12l-7,4a1.63,1.63,0,0,1-1.05.2,1.58,1.58,0,0,1-.94-.46,27.11,27.11,0,0,0-2.39-2,26.37,26.37,0,0,0-2.62-1.73,25.21,25.21,0,0,0-2.8-1.4,26.39,26.39,0,0,0-2.95-1,1.63,1.63,0,0,1-1.2-1.59V136a1,1,0,0,0-.08-.38.87.87,0,0,0-.22-.32,1,1,0,0,0-.32-.22,1,1,0,0,0-.38-.07h-9.88a.9.9,0,0,0-.37.07,1,1,0,0,0-.33.22,1,1,0,0,0-.29.7v8.05a1.64,1.64,0,0,1-.36,1,1.69,1.69,0,0,1-.91.59Zm-3.48-.31a28.78,28.78,0,0,0-2.94,1.47,27.66,27.66,0,0,0-5.3,4,.16.16,0,0,1-.11.05.16.16,0,0,1-.12,0q-3.53-2-7-4.06a2.42,2.42,0,0,0-1.8-.21,2.42,2.42,0,0,0-1.49,1.14c-1.7,2.75-3.32,5.73-4.94,8.55a2.29,2.29,0,0,0-.31.91,2.39,2.39,0,0,0,.07,1,2.42,2.42,0,0,0,1.14,1.49c2.24,1.38,4.67,2.7,7,4a.34.34,0,0,1,.08.09.25.25,0,0,1,0,.12l-.16.65h0c-.07.31-.14.63-.2,1-.1.56-.19,1.11-.25,1.65s-.12,1.08-.15,1.65-.05,1.12-.05,1.67,0,1.09.05,1.66.08,1.12.15,1.66.15,1.08.25,1.64.22,1.09.35,1.62a.25.25,0,0,1,0,.12s-.05.08-.09.1c-2.56,1.36-5.16,3-7.69,4.44l.09.11-.08.1a2.3,2.3,0,0,0-.42.86,2.33,2.33,0,0,0-.07,1,2.29,2.29,0,0,0,.31.91l5.3,9.19.1-.06.17.14a2.3,2.3,0,0,0,.86.42,2.52,2.52,0,0,0,.95.07,2.41,2.41,0,0,0,.89-.3c2.32-1.23,4.71-2.72,7-4a.22.22,0,0,1,.12,0,.22.22,0,0,1,.11,0,27.66,27.66,0,0,0,5.3,4,28.17,28.17,0,0,0,3,1.48,26.38,26.38,0,0,0,3.13,1.1.26.26,0,0,1,.1.07.19.19,0,0,1,0,.12v8a2.41,2.41,0,0,0,.19.93,2.33,2.33,0,0,0,.53.8,2.57,2.57,0,0,0,.8.54,2.44,2.44,0,0,0,.93.18h9.88a2.5,2.5,0,0,0,.94-.18,2.52,2.52,0,0,0,.79-.54,2.36,2.36,0,0,0,.54-.8,2.41,2.41,0,0,0,.19-.93v-8a.21.21,0,0,1,0-.12.26.26,0,0,1,.11-.07h0a26.64,26.64,0,0,0,6-2.57,26.23,26.23,0,0,0,2.78-1.84,28.84,28.84,0,0,0,2.53-2.16.2.2,0,0,1,.24,0l7,4a2.3,2.3,0,0,0,.9.31,2.59,2.59,0,0,0,1-.07,2.46,2.46,0,0,0,.86-.42,2.62,2.62,0,0,0,.62-.7c1.83-2.94,3.56-6.17,5.3-9.19l-.09-.06a1.57,1.57,0,0,0,0-.23,2.52,2.52,0,0,0-.06-1,2.32,2.32,0,0,0-.43-.86,2.42,2.42,0,0,0-.71-.64l-7-4a.14.14,0,0,1-.08-.09.2.2,0,0,1,0-.13l.18-.73h0c.06-.28.12-.57.17-.87.1-.56.19-1.11.26-1.64s.11-1.09.14-1.66.06-1.12.06-1.66,0-1.1-.06-1.67-.08-1.12-.14-1.66-.15-1.08-.26-1.64-.22-1.09-.34-1.61a.15.15,0,0,1,0-.13.16.16,0,0,1,.09-.09l7-4a2.31,2.31,0,0,0,.71-.64,2.44,2.44,0,0,0,.43-.85,2.58,2.58,0,0,0,.06-1,2.45,2.45,0,0,0-.29-.89c-1.66-3.07-3.56-6.17-5.32-9.21l-.1.06L674,147a2.46,2.46,0,0,0-.86-.42,2.39,2.39,0,0,0-1-.06,2.13,2.13,0,0,0-.9.3l-.52.29h0l-6.46,3.73a.2.2,0,0,1-.13,0,.16.16,0,0,1-.11-.05v0a29,29,0,0,0-2.53-2.15,28.68,28.68,0,0,0-2.76-1.83,28.17,28.17,0,0,0-3-1.48,26.38,26.38,0,0,0-3.13-1.1l-.1-.07a.18.18,0,0,1,0-.12V136a2.41,2.41,0,0,0-.19-.93,2.36,2.36,0,0,0-.54-.8,2.44,2.44,0,0,0-.79-.53,2.32,2.32,0,0,0-.94-.19h-9.88a2.28,2.28,0,0,0-.93.19,2.38,2.38,0,0,0-.8.53,2.46,2.46,0,0,0-.72,1.73v8.05a.21.21,0,0,1,0,.12.21.21,0,0,1-.11.07h0A28.57,28.57,0,0,0,634.5,145.35Z"/><path class="cls-8" d="M242.69,58.48H343.45a13.34,13.34,0,0,1,13.3,13.31v93.86a1.48,1.48,0,0,1-2.53,1L331.54,144H242.69a13.35,13.35,0,0,1-13.3-13.31V71.79A13.35,13.35,0,0,1,242.69,58.48Z"/><path class="cls-9" d="M253.31,127.22h52.26a4.34,4.34,0,0,0,4.33-4.33V83.21a4.34,4.34,0,0,0-4.33-4.33h-2.12v-2a1.2,1.2,0,0,0-1.19-1.19H286.47a1.2,1.2,0,0,0-1.2,1.19v2h-32A4.34,4.34,0,0,0,249,83.21v39.68A4.34,4.34,0,0,0,253.31,127.22Z"/><rect class="cls-1" x="253.23" y="86.45" width="40.08" height="40.76" rx="3.53"/><path class="cls-10" d="M258.52,127.22h48.26a7.62,7.62,0,0,0,6.25-4.33l15.21-34.15c1.07-2.38,0-4.33-2.4-4.33h-2.53l.95-2.14c.39-.87,0-1.58-.87-1.58H305.77a2.78,2.78,0,0,0-2.28,1.58l-1,2.14H277.59a7.62,7.62,0,0,0-6.26,4.33l-15.21,34.15C255.06,125.27,256.14,127.22,258.52,127.22Z"/><path class="cls-7" d="M283,94.57a16.79,16.79,0,1,1-4.93,11.89A16.76,16.76,0,0,1,283,94.57Zm11.89-2.52a14.41,14.41,0,1,0,10.18,4.22A14.37,14.37,0,0,0,294.89,92.05Z"/><path class="cls-7" d="M305.07,118.34a1.2,1.2,0,1,1,1.7-1.7l4,4a1.2,1.2,0,0,1-1.7,1.7Z"/><path class="cls-7" d="M309.21,124.19a2.41,2.41,0,1,1,3.41-3.41l12.82,12.83A2.4,2.4,0,0,1,322,137Z"/><path class="cls-11" d="M303.19,98.15A.8.8,0,0,1,304.32,97a13.32,13.32,0,0,1,3.9,9.44h0a13.26,13.26,0,0,1-.52,3.69.79.79,0,1,1-1.52-.44,12,12,0,0,0,.45-3.25h0a11.72,11.72,0,0,0-3.45-8.31Zm1.59,14.65a.79.79,0,0,1,1.33.86,13,13,0,0,1-.83,1.16c-.31.38-.63.73-1,1.07a.8.8,0,0,1-1.13-1.13,12,12,0,0,0,.85-.93c.26-.33.51-.67.74-1Zm-18.2,2a.8.8,0,0,1-1.13,1.13A13.4,13.4,0,0,1,281.77,104a13.18,13.18,0,0,1,.67-2.36.79.79,0,0,1,1.48.56,11.72,11.72,0,0,0-.59,2.08,11.89,11.89,0,0,0-.19,2.16,11.65,11.65,0,0,0,3.44,8.3Zm-1.24-15.17a.79.79,0,1,1-1.28-.93q.31-.43.66-.84l0,0c.24-.27.47-.53.69-.75a.8.8,0,0,1,1.13,1.13c-.24.23-.44.45-.62.65l0,0C285.72,99.09,285.52,99.34,285.34,99.59Z"/><path class="cls-12" d="M317.13,69.38h24.92c.32,0,.58.4.58.88h0c0,.49-.26.88-.58.88H317.13c-.32,0-.58-.39-.58-.88h0C316.55,69.78,316.81,69.38,317.13,69.38Z"/><path class="cls-12" d="M317.13,74.91h24.92c.32,0,.58.4.58.88h0c0,.49-.26.88-.58.88H317.13c-.32,0-.58-.39-.58-.88h0C316.55,75.31,316.81,74.91,317.13,74.91Z"/><path class="cls-12" d="M334.57,81h7.18a.89.89,0,0,1,.88.88h0a.89.89,0,0,1-.88.89h-7.18a.89.89,0,0,1-.88-.89h0A.89.89,0,0,1,334.57,81Z"/><path class="cls-12" d="M334.57,87.26h7.18a.88.88,0,0,1,.88.88h0a.89.89,0,0,1-.88.88h-7.18a.89.89,0,0,1-.88-.88h0A.88.88,0,0,1,334.57,87.26Z"/><path class="cls-12" d="M334.57,93.51h7.18a.89.89,0,0,1,.88.88h0a.89.89,0,0,1-.88.88h-7.18a.89.89,0,0,1-.88-.88h0A.89.89,0,0,1,334.57,93.51Z"/><path class="cls-12" d="M334.57,99.76h7.18a.89.89,0,0,1,.88.88h0a.88.88,0,0,1-.88.88h-7.18a.88.88,0,0,1-.88-.88h0A.89.89,0,0,1,334.57,99.76Z"/><path class="cls-12" d="M334.57,106h7.18a.89.89,0,0,1,.88.89h0a.89.89,0,0,1-.88.88h-7.18a.89.89,0,0,1-.88-.88h0A.89.89,0,0,1,334.57,106Z"/><path class="cls-12" d="M334.57,112.27h7.18a.88.88,0,0,1,.88.88h0a.89.89,0,0,1-.88.88h-7.18a.89.89,0,0,1-.88-.88h0A.88.88,0,0,1,334.57,112.27Z"/><rect class="cls-13" x="322.67" y="118.52" width="19.96" height="1.76" rx="0.88"/><path class="cls-12" d="M325.35,112.27h5.38a.88.88,0,0,1,.88.88h0a.89.89,0,0,1-.88.88h-5.38a.89.89,0,0,1-.88-.88h0A.88.88,0,0,1,325.35,112.27Z"/><path class="cls-12" d="M327.76,106h2.71a.89.89,0,0,1,.88.89h0a.89.89,0,0,1-.88.88h-2.71a.89.89,0,0,1-.88-.88h0A.89.89,0,0,1,327.76,106Z"/><path class="cls-12" d="M329.65,99.76h2a.89.89,0,0,1,.88.88h0a.88.88,0,0,1-.88.88h-2a.88.88,0,0,1-.89-.88h0A.89.89,0,0,1,329.65,99.76Z"/><rect class="cls-14" x="253.65" y="167.41" width="7.08" height="7.08" rx="1.42"/><rect class="cls-1" x="268.17" y="167.41" width="7.08" height="7.08" rx="1.42"/><rect class="cls-14" x="282.69" y="167.41" width="7.08" height="7.08" rx="1.42"/><path class="cls-14" d="M298.63,167.41h4.25a1.41,1.41,0,0,1,1.41,1.41v4.25a1.42,1.42,0,0,1-1.42,1.42h-4.25a1.42,1.42,0,0,1-1.42-1.42v-4.25A1.42,1.42,0,0,1,298.63,167.41Z"/><path class="cls-15" d="M142.61,104.91c-.53,0-1-.62-1-1.39s.44-1.39,1-1.39h45.5c.54,0,1,.63,1,1.39s-.43,1.39-1,1.39Zm-6.17-2.78c.54,0,1,.63,1,1.39s-.43,1.39-1,1.39h-3.79c-.53,0-1-.62-1-1.39s.44-1.39,1-1.39Z"/><path class="cls-15" d="M197,157.12a.59.59,0,0,1,1.17,0v2.64a.59.59,0,1,1-1.17,0v-2.64Zm-4,2.15a.59.59,0,0,1,0-.83.57.57,0,0,1,.82,0l1.87,1.86a.59.59,0,0,1-.83.83L193,159.27Zm-1.32,4.34a.59.59,0,0,1,0-1.17h2.64a.59.59,0,1,1,0,1.17Zm2.14,4a.57.57,0,0,1-.82,0,.59.59,0,0,1,0-.83l1.86-1.87a.6.6,0,0,1,.83,0,.59.59,0,0,1,0,.83l-1.87,1.87Zm4.35,1.31a.59.59,0,1,1-1.17,0v-2.64a.59.59,0,0,1,1.17,0v2.64Zm4-2.14a.59.59,0,0,1-.83.83l-1.87-1.87a.59.59,0,0,1,0-.83.6.6,0,0,1,.83,0l1.87,1.87Zm1.31-4.34a.59.59,0,1,1,0,1.17h-2.64a.59.59,0,1,1,0-1.17Zm-2.14-4a.59.59,0,0,1,.83.83l-1.87,1.86a.59.59,0,1,1-.83-.83Z"/><path class="cls-15" d="M542.56,86.67a.59.59,0,1,1,1.17,0v2.64a.59.59,0,0,1-1.17,0V86.67Zm-4,2.14a.59.59,0,1,1,.83-.83l1.86,1.87a.59.59,0,1,1-.83.83l-1.86-1.87Zm-1.31,4.34a.59.59,0,1,1,0-1.17h2.63a.59.59,0,1,1,0,1.17Zm2.14,4a.59.59,0,0,1-.83,0,.57.57,0,0,1,0-.82l1.86-1.87a.59.59,0,1,1,.83.83l-1.86,1.86Zm4.34,1.32a.59.59,0,0,1-1.17,0V95.83a.59.59,0,1,1,1.17,0v2.64Zm4-2.14a.57.57,0,0,1,0,.82.59.59,0,0,1-.83,0L545,95.29a.6.6,0,0,1,0-.83.59.59,0,0,1,.83,0l1.87,1.87ZM549,92a.59.59,0,1,1,0,1.17H546.4a.59.59,0,0,1,0-1.17Zm-2.14-4a.59.59,0,1,1,.83.83l-1.87,1.87a.59.59,0,0,1-.83,0,.6.6,0,0,1,0-.83Z"/><path class="cls-15" d="M587.45,354.73a.59.59,0,0,1,1.17,0v2.64a.59.59,0,1,1-1.17,0v-2.64Zm-4,2.15a.59.59,0,0,1,.83-.83l1.86,1.86a.59.59,0,0,1,0,.83.57.57,0,0,1-.82,0l-1.87-1.86Zm-1.31,4.34a.59.59,0,1,1,0-1.17h2.63a.59.59,0,1,1,0,1.17Zm2.14,4a.59.59,0,0,1-.83-.83l1.87-1.87a.57.57,0,0,1,.82,0,.59.59,0,0,1,0,.83l-1.86,1.87Zm4.34,1.31a.59.59,0,1,1-1.17,0v-2.64a.59.59,0,0,1,1.17,0v2.64Zm4-2.14a.59.59,0,0,1-.83.83l-1.87-1.87a.6.6,0,0,1,0-.83.59.59,0,0,1,.83,0l1.87,1.87Zm1.31-4.34a.59.59,0,1,1,0,1.17h-2.64a.59.59,0,0,1,0-1.17Zm-2.14-4a.59.59,0,0,1,.83.83l-1.87,1.86a.59.59,0,0,1-.83,0,.6.6,0,0,1,0-.83Z"/><path class="cls-15" d="M83.36,261.54a.59.59,0,0,1,1.18,0v2.64a.59.59,0,0,1-1.18,0v-2.64Zm-4,2.14a.59.59,0,1,1,.83-.83l1.87,1.86a.59.59,0,1,1-.83.83l-1.87-1.86ZM78.05,268a.59.59,0,1,1,0-1.17h2.64a.59.59,0,1,1,0,1.17Zm2.14,4a.59.59,0,1,1-.83-.83l1.87-1.86a.59.59,0,1,1,.83.83L80.19,272Zm4.35,1.31a.59.59,0,0,1-1.18,0V270.7a.59.59,0,0,1,1.18,0v2.63Zm4-2.14a.6.6,0,0,1,0,.83.59.59,0,0,1-.83,0l-1.87-1.86a.59.59,0,1,1,.83-.83l1.87,1.86Zm1.31-4.34a.59.59,0,1,1,0,1.17H87.21a.59.59,0,1,1,0-1.17Zm-2.14-4a.59.59,0,0,1,.83,0,.6.6,0,0,1,0,.83l-1.87,1.86a.59.59,0,1,1-.83-.83Z"/><path class="cls-15" d="M662.35,316.84a.59.59,0,0,1,1.18,0v2.64a.59.59,0,0,1-1.18,0v-2.64Zm-4,2.15a.59.59,0,0,1,.83-.83l1.87,1.86a.59.59,0,0,1-.83.83L658.35,319ZM657,323.33a.59.59,0,1,1,0-1.17h2.64a.59.59,0,1,1,0,1.17Zm2.14,4a.59.59,0,0,1-.83-.83l1.87-1.87a.59.59,0,1,1,.83.83l-1.87,1.87Zm4.35,1.31a.59.59,0,1,1-1.18,0V326a.59.59,0,0,1,1.18,0v2.64Zm4-2.14a.59.59,0,0,1-.83.83l-1.87-1.87a.59.59,0,1,1,.83-.83l1.87,1.87Zm1.31-4.34a.59.59,0,1,1,0,1.17H666.2a.59.59,0,1,1,0-1.17Zm-2.14-4a.59.59,0,0,1,.83.83l-1.87,1.86a.59.59,0,0,1-.83-.83Z"/><path class="cls-14" d="M623.59,87.89h4.25a1.41,1.41,0,0,1,1.41,1.41v4.25A1.42,1.42,0,0,1,627.84,95h-4.25a1.42,1.42,0,0,1-1.42-1.42V89.31a1.42,1.42,0,0,1,1.42-1.42Z"/><path class="cls-1" d="M638.11,87.89h4.25a1.41,1.41,0,0,1,1.41,1.41v4.25A1.42,1.42,0,0,1,642.36,95h-4.25a1.42,1.42,0,0,1-1.42-1.42V89.31A1.42,1.42,0,0,1,638.11,87.89Z"/><rect class="cls-14" x="651.21" y="87.89" width="7.08" height="7.08" rx="1.42"/><rect class="cls-14" x="665.73" y="87.89" width="7.08" height="7.08" rx="1.42"/><path class="cls-2" d="M81,151.71Zm5.5-20.94a10.57,10.57,0,1,1-3.1,7.48,10.54,10.54,0,0,1,3.1-7.48Zm2.29-10.49A18.63,18.63,0,0,0,84.67,122,19.13,19.13,0,0,0,81,124.79a.65.65,0,0,1-.77.09L75.34,122h0a1.16,1.16,0,0,0-.89-.11,1.2,1.2,0,0,0-.74.57l0,0-3.46,6a1.23,1.23,0,0,0,.44,1.67l0,0L75.56,133a.64.64,0,0,1,.3.71h0a18.42,18.42,0,0,0-.41,2.24,18.64,18.64,0,0,0,0,4.56,18.42,18.42,0,0,0,.41,2.24.63.63,0,0,1-.34.73l-4.88,2.82h0a1.21,1.21,0,0,0-.56.74,1.19,1.19,0,0,0,.12.92l3.48,6h0a1.2,1.2,0,0,0,.74.57,1.24,1.24,0,0,0,.92-.12l0,0,4.88-2.82a.65.65,0,0,1,.77.09,19.13,19.13,0,0,0,3.64,2.75,18.43,18.43,0,0,0,4.18,1.77.65.65,0,0,1,.47.62v5.68a1.2,1.2,0,0,0,.36.85,1.17,1.17,0,0,0,.86.36h7a1.21,1.21,0,0,0,1.21-1.21v-5.68a.66.66,0,0,1,.5-.63,18.49,18.49,0,0,0,7.79-4.51.65.65,0,0,1,.81-.07l4.88,2.82a1.26,1.26,0,0,0,.93.12,1.23,1.23,0,0,0,.74-.57l0,0,3.46-6h0a1.22,1.22,0,0,0-.45-1.66l-4.91-2.84a.64.64,0,0,1-.31-.71h0a18.42,18.42,0,0,0,.41-2.24,18.64,18.64,0,0,0,0-4.56,18.42,18.42,0,0,0-.41-2.24.65.65,0,0,1,.35-.73l4.87-2.82a1.22,1.22,0,0,0,.45-1.66l0,0-3.46-6h0a1.23,1.23,0,0,0-.74-.57,1.26,1.26,0,0,0-.93.12h0l-4.91,2.84a.65.65,0,0,1-.79-.11,19.49,19.49,0,0,0-3.63-2.73,18.55,18.55,0,0,0-4.17-1.77.65.65,0,0,1-.48-.62V114a1.21,1.21,0,0,0-1.21-1.21h-7a1.17,1.17,0,0,0-.86.36,1.2,1.2,0,0,0-.36.85v5.68A.65.65,0,0,1,88.82,120.28Z"/><path class="cls-16" d="M415.64,226.73c-6.18,5.63-7.15,6.3-7.15,6.3s-4.08,7.75-2.51,7.74a4.35,4.35,0,0,0,2.82-1.42s1.53,2,2.91,1.14a17.93,17.93,0,0,1,2.1-1.12s1.57,1.56,2.87.54,7.52-7.72,7.52-7.72l8.21-5.38-3.28-2.95Z"/><path class="cls-17" d="M515.76,392.16c-.13.87-1.14,5.23-1.12,5.34.18,1.28.49,3.86.49,3.86s-2.51,2.89-4.85,3.31-12.91.89-13,.31,2.65-5.15,2.65-5.15,3-2.52,3.41-8.35S515.76,392.16,515.76,392.16Z"/><path class="cls-18" d="M502,401l1.3-.47a9,9,0,0,0,6.63.29c3.7-1.27,4.7-3.34,4.7-3.34a.7.7,0,0,1,.57-.42h.88a1.87,1.87,0,0,1,1.7,1.09c.4.95,1.23,6.73.1,9.93s-2.73,2.78-2.73,2.78-6.31-1.87-10.57-.36-8.16,3.06-8.16,3.06S496.63,405.1,502,401Z"/><path class="cls-19" d="M473.25,412.72l-.47-1.38v-1.68c0-.62.26-2.51,2.09-2.51h7c1.62,0,10.37-4.45,17.09-9.92a.92.92,0,0,1,1.18-.15c.71.4,2.85,2.12,3.07,2.3a1.4,1.4,0,0,1,.12,1.17L497,413.13S478.63,415.54,473.25,412.72Z"/><path class="cls-18" d="M472.78,411.34a1.15,1.15,0,0,0-.41.72v1.34a2.64,2.64,0,0,0,2.62,1.71h19.37a16.51,16.51,0,0,0,6.92-1.51,39.94,39.94,0,0,1,5-1.82s.46-.16.46.64V414c0,.39-.24,1.44,1.34,1.44h9.43c.72,0,1.54-.41,1.54-1.88v-3.78c0-.91-.56-1.63-1.15-1.63h-7.25c-3,0-5.46.74-9.24,2.52a24.75,24.75,0,0,1-11.17,2.31H479.39C477.48,412.93,474.07,412.5,472.78,411.34Z"/><path class="cls-17" d="M556.85,392.16c-.13.87-1.14,5.23-1.12,5.34.18,1.28.49,3.86.49,3.86s-2.51,2.89-4.84,3.31-12.92.89-13.06.31,2.65-5.15,2.65-5.15,3-2.52,3.41-8.35S556.85,392.16,556.85,392.16Z"/><path class="cls-18" d="M543.1,401l1.3-.47a9,9,0,0,0,6.63.29c3.7-1.27,4.7-3.34,4.7-3.34a.7.7,0,0,1,.57-.42h.88a1.86,1.86,0,0,1,1.7,1.09c.4.95,1.24,6.73.1,9.93s-2.73,2.78-2.73,2.78-6.31-1.87-10.57-.36-8.16,3.06-8.16,3.06S537.72,405.1,543.1,401Z"/><path class="cls-19" d="M514.34,412.72l-.47-1.38v-1.68c0-.62.27-2.51,2.09-2.51h7c1.62,0,10.37-4.45,17.09-9.92a.92.92,0,0,1,1.18-.15c.71.4,2.85,2.12,3.07,2.3a1.4,1.4,0,0,1,.12,1.17L538,413.13S519.72,415.54,514.34,412.72Z"/><path class="cls-18" d="M513.87,411.34a1.15,1.15,0,0,0-.41.72v1.34a2.64,2.64,0,0,0,2.62,1.71h19.37a16.51,16.51,0,0,0,6.92-1.51,39.94,39.94,0,0,1,5-1.82s.46-.16.46.64V414c0,.39-.24,1.44,1.35,1.44h9.42c.72,0,1.54-.41,1.54-1.88v-3.78c0-.91-.55-1.63-1.15-1.63h-7.25c-3,0-5.46.74-9.24,2.52a24.75,24.75,0,0,1-11.17,2.31H520.48C518.57,412.93,515.16,412.5,513.87,411.34Z"/><path class="cls-20" d="M441.87,128.9s-4.36,7.33-1.62,24,21.65,81.51,8.8,115.35a3.05,3.05,0,0,0,1.42,3.59c2.21,1.28,33.4,6.7,56.2-3S489.42,133.84,441.87,128.9Z"/><path class="cls-7" d="M502.51,395.19s5.11,3.1,13.75,1.23a4.57,4.57,0,0,0,2.69-3.1c.49-2.28,16.63-138.19,18.59-162.31s-12.79-38.86-35.37-54.35-3.68-2.41-5.43-3.4c-5.6,20.73-12.17,34.06-12.17,34.06l-.06,10.22a8.34,8.34,0,0,0,.52,2c6.88,27.35,7.69,49.18,8.73,76.69,0,.81-.41-20.65.09,2.41s5.72,89.36,6,92S501.37,394.94,502.51,395.19Z"/><path class="cls-7" d="M446,154.88l6.52,10.59s27.66,47.51,31.49,54.27,20.23,5.81,20.23,5.81l-35-101.76s-12.22-1.94-17-1.84-7.79,7.36-7.79,7.36Z"/><path class="cls-21" d="M441.87,128.9s-4.36,7.33-1.62,24c2.12,12.88,13.89,54.54,13.2,88.42h0c6-61.67-5.07-100.69-8.95-112C443.63,129.14,442.75,129,441.87,128.9Z"/><path class="cls-8" d="M543.21,395.28s4.75,2.65,13.39.78a4.55,4.55,0,0,0,2.69-3.1c.49-2.28,7-47.84,8.91-72s18.35-114.64-24.94-144.33-52.61,21.54-52.61,21.54S531,215.2,532,260.51s8.27,127.6,8.6,130.21S542.07,395,543.21,395.28Z"/><path class="cls-22" d="M546.77,396.39a25,25,0,0,0,9.83-.33,4.55,4.55,0,0,0,2.69-3.1c.49-2.28,7-47.84,8.91-72,1.48-18.3,11.27-74.82-3-114-.19.14-22.47,15.75-35.3,37.66A70.87,70.87,0,0,1,532,260.51c.16,7.65.51,16.35,1,25.54,5.5-5.9,12.81-13.84,16.52-18.3,6.41-7.69,13.63-5,16.19-1.28S558.48,363,557.2,374.85C556.29,383.2,550.26,391.94,546.77,396.39Z"/><path class="cls-17" d="M435,103.13c.07,0,.26.79,1.05,2.13l-3.93,4.14a33.41,33.41,0,0,0,2.45,2.71,8.48,8.48,0,0,0-4.3,3.12s-4.22,13-3,14.25l-.14.16c-7.59,9-12.25,6-13.2,5.2s-5.62-5.09-6.12-5.18-2.31,2-3.52,1-7.12-8.24-13.54-18.38S388,90.45,388,90.45c15.66-12.71,28.67,11.23,30.24,7.21s6.07-4.39,8.56.07C427.12,98.35,434.92,102.46,435,103.13Z"/><path class="cls-16" d="M435,103.13c.07,0,.26.79,1.05,2.13l-3.93,4.14a33.41,33.41,0,0,0,2.45,2.71,13.27,13.27,0,0,0-1.28.54,3.2,3.2,0,0,0-.39-1.54c-1.07-1.23-3.2-3.87-3.2-3.87s-3,1.39-3.54-1.9-3.08-6.49-5.73-6-1.12,4-1.12,4l6.25,9-1,10.75s-9.78,1.76-7.77-2.41-3.13-7.37-9.06-14.11-9.22-6-10.75-5c-.95.65-5.36,3.61-8.54,5.74A28.83,28.83,0,0,1,387.13,95,77.91,77.91,0,0,1,400.53,87c9.6,2.11,16.56,13.5,17.68,10.63,1.58-4,6.07-4.39,8.56.07C427.12,98.35,434.92,102.46,435,103.13Z"/><path class="cls-17" d="M437.12,103.11s3.05.21,5.37.31,4.23,13.65,4.23,13.65l-4,6-.92,1.4-3,4.56-.29-1.41s-3.13-2.43-5.11.31-6.91-4.59-6.91-4.59S425.64,107.29,437.12,103.11Z"/><path class="cls-16" d="M437.12,103.11s3.05.21,5.37.31,4.23,13.65,4.23,13.65l-4,6-.92,1.4-3,4.56-.29-1.41s-3.13-2.43-5.11.31a1.44,1.44,0,0,1-1.9.44l1.36-5.64s1.06-10.4,0-11.63c-.65-.75-1.7-2-2.41-2.9A13.8,13.8,0,0,1,437.12,103.11Z"/><path class="cls-7" d="M412.77,103.08s-7.16,3.49-12.81-7.24c0,0-7.33,7.76-12.11,9.7l-.29.1.29-.1a10.63,10.63,0,0,1-4.27-.91A15.31,15.31,0,0,1,374.85,97c-4.16-8.33.81-12.58,5.29-12,0,0,6.74-14.67,10.5-19s12.59-2.49,12.59-2.49-1.28-3.76.24-4.64,9.78.75,13,10.31c0,0,6.41-1.05,9.78,2.22s10.84,31.62,10.88,31.77c.16,1.81-.55,3.64-2.38,3.7a9.3,9.3,0,0,1-7.88-3.68s-2.38-8.47-6.55-7.19c0,0-3.54,0-1.88,6a18.41,18.41,0,0,0,3.4,4.31c2,1.72,7.36,5.3,11.11,14.05s-4.17,14.29-6.35,16.85-5.82,4.57-8.44,2.34l-9.44-8c-.89-.76-1.1-1.59-.88-1.83,0,0,3.81-4,6.71-6.84s5.16-4.59,5.16-7.77-.07-5.69-3-8.94A14,14,0,0,0,412.77,103.08Z"/><path class="cls-23" d="M400,95.84s-7.33,7.76-12.11,9.7l-.29.1.29-.1a10.63,10.63,0,0,1-4.27-.91A15.31,15.31,0,0,1,374.85,97c-4.16-8.33.81-12.58,5.29-12,0,0,6.74-14.67,10.5-19s12.59-2.49,12.59-2.49-1.28-3.76.24-4.64,9.78.75,13,10.31C416.46,69.12,416.48,78.68,400,95.84Z"/><path class="cls-24" d="M374,94.88c-2.42-7,2.08-10.45,6.17-9.94,0,0,26,6.12,29.51-24.71.39.24.79.5,1.19.8C411.18,73.78,407.38,97.38,374,94.88Z"/><path class="cls-7" d="M402.93,117.29h0a1.66,1.66,0,0,1,2.34.19l1.4,1.65a1.67,1.67,0,0,1-.2,2.34h0a1.67,1.67,0,0,1-2.34-.19l-1.4-1.66A1.65,1.65,0,0,1,402.93,117.29Z"/><path class="cls-25" d="M408,121.59a2.45,2.45,0,1,1-.29,3.46A2.45,2.45,0,0,1,408,121.59Z"/><path class="cls-7" d="M403.26,114a.5.5,0,0,0,.38-.6.51.51,0,0,0-.6-.39s-3.33.66-4.39,3.6a.5.5,0,0,0,.3.64.51.51,0,0,0,.65-.3A5.19,5.19,0,0,1,403.26,114Z"/><path class="cls-11" d="M452.85,222.23s-21.16,7.89-23.38,9-4.64-7.75-4.84-9.18,1.31-3.12,4.18-4.76,18.81-10.89,18.81-10.89Z"/><path class="cls-7" d="M456.17,221.59c-7.74,2.9-21.16,8-23.06,8.89-2.71,1.3-5.67-9.46-5.92-11.21s1.6-3.81,5.1-5.82c2-1.13,9.07-5.24,14.85-8.59a16.28,16.28,0,0,0,5.94-11.5c.78-7.92,3.5-44.24,3.5-44.24l21.21,9.43,3.76,5.54s-7.95,34.39-11.07,42.38S463,219,456.17,221.59Z"/><path class="cls-26" d="M564.32,173.69s15.07,26.07,17.92,65.11a1.85,1.85,0,0,1-1.27,2c-1.5.64-14.12,0-29,18.24s-38.53,34.56-52.12,32.43c0,0-1.47,0-1.65-2.39s-3-109.19-46.68-147.79a12.49,12.49,0,0,1-4.08-9.39C447.65,125.94,515.88,101.73,564.32,173.69Z"/><path class="cls-20" d="M552,200.37,548.87,211s-6.73.33-24.2-34.7c0,0-6.95-13.5-27-17.62l8.93-12.72s38.13,6.74,37.93,10S552,200.37,552,200.37Z"/><path class="cls-7" d="M462.84,172.5l12.58-8.45a3.33,3.33,0,0,1,4.18.53l22,24.31a2.35,2.35,0,0,1-.43,3.62L488.59,201a3.33,3.33,0,0,1-4.18-.53l-22-24.3A2.36,2.36,0,0,1,462.84,172.5Z"/><path class="cls-8" d="M461,173.73l12.59-8.45a3.32,3.32,0,0,1,4.17.53l22,24.31a2.35,2.35,0,0,1-.42,3.62l-12.59,8.45a3.33,3.33,0,0,1-4.18-.53l-22-24.31A2.34,2.34,0,0,1,461,173.73Z"/><path class="cls-27" d="M462.8,176.7l2-1.36a.55.55,0,0,1,.67.09l5.45,6a.39.39,0,0,1-.07.59l-2,1.36a.53.53,0,0,1-.67-.09l-5.45-6A.39.39,0,0,1,462.8,176.7Z"/><path class="cls-2" d="M464.51,176.71a1.33,1.33,0,0,1,1.72.24,1,1,0,0,1-.21,1.54,1.32,1.32,0,0,1-1.72-.25A1,1,0,0,1,464.51,176.71Z"/><path class="cls-2" d="M466.59,179a1.33,1.33,0,0,1,1.72.24,1,1,0,0,1-.21,1.54,1.33,1.33,0,0,1-1.72-.24A1,1,0,0,1,466.59,179Z"/><path class="cls-11" d="M466.92,179.43a.74.74,0,0,1,1,.13.58.58,0,0,1-.11.88.77.77,0,0,1-1-.14A.57.57,0,0,1,466.92,179.43Z"/><path class="cls-11" d="M464.81,177.06a.81.81,0,0,1,1,.15.61.61,0,0,1-.13.92.8.8,0,0,1-1-.14A.61.61,0,0,1,464.81,177.06Z"/><path class="cls-2" d="M468.58,181.26a.8.8,0,0,1,1,.15.62.62,0,0,1-.12.93.82.82,0,0,1-1-.15A.62.62,0,0,1,468.58,181.26Z"/><path class="cls-7" d="M448.77,94.12c-.25.15-5.48,1.51-6.36,1.9s-1.16,2.26-1.35,5.43-2.77,26.7-2.9,28a2.14,2.14,0,0,0,1.52,2.54c1.16.4,14.55,5.21,14.55,5.21Z"/><path class="cls-11" d="M521.21,160.39S501,173.8,498.66,175s3.81,8.93,4.92,10,3.54.83,6.78-.63S531.71,175,531.71,175Z"/><path class="cls-8" d="M530.24,152.55s-26.44,17.53-29.49,19.16,5,11.68,6.44,13.1,4.62,1.09,8.86-.82S544,171.6,544,171.6Z"/><path class="cls-21" d="M474.13,155a175.87,175.87,0,0,0,27.29,3.91c14.8.91,45.54,2.94,47.45,52,0,0,.23.26,1,0s22.2-19.27,25.21-28.4-14.38-42.68-23.92-47-27.28-7.87-46.67-27.34S458.44,91,458.44,91l-5.8,21.49S455.29,149.44,474.13,155Z"/><path class="cls-28" d="M543.47,183.87c3,6.89,5,15.72,5.4,27.08,0,0,.23.26,1,0s22.2-19.27,25.21-28.4c1.2-3.65-.86-11.22-4.39-19.26,0,5.88-.78,12.4-3.72,15.65-4.13,4.55-16.15,5.07-23.52,4.94Zm9.3-47.41a9.69,9.69,0,0,0-1.59-.94c-9.53-4.34-27.28-7.87-46.67-27.34-.4-.4-.81-.79-1.22-1.18.15.32,12.52,28.36-18.4,34.57,0,0-2,.41-1.44,2.09S540.3,128.52,552.77,136.46Z"/><path class="cls-20" d="M459.55,91c-.72,0-1.11.06-1.11.06l-3.54,13.12L460,140.05l4.52,1.86s-.75-5-.35-5.39,9.86-5,11.06-5.65a1.71,1.71,0,0,0,1-1.8C475.31,127.14,462.4,97.52,459.55,91Z"/><path class="cls-8" d="M448.94,90a3,3,0,0,0-1.58,1.9c-.37,1.41.16,30.8.29,34.07s13.31,20,16.59,23.88,8.11,4.82,9.89,5.17a.19.19,0,0,0,.17-.16c0-.15-5.14-2.28-6.71-4.67s-4.29-12.59-4.61-14.08c0,0,9.07-4.36,10.63-5.25s1.81-1.6,1.22-2.62S459.5,92.33,458.44,91,453.52,89.43,448.94,90Z"/><path class="cls-23" d="M406.38,63.92a.46.46,0,1,1-.53.75s-5-3.58-13-2.09a.46.46,0,0,1-.53-.37.45.45,0,0,1,.37-.52C401.09,60.13,406.36,63.91,406.38,63.92Z"/><path class="cls-23" d="M387.34,103.82a.46.46,0,0,1,.61.2.45.45,0,0,1-.21.61s-8.51,4.36-13.85-5.57a.45.45,0,0,1,.18-.61.46.46,0,0,1,.62.18C379.61,107.78,387.32,103.83,387.34,103.82Z"/><path class="cls-29" d="M498.18,175.7c-1.34-.48-4.12-2-4.86-2.36s-7.77-2-7.77-2l3.73,4.14s-11.4,5-13.88,7-.94,2.9,1.24,2.9h2.18s-.42,3.73,2.38,3.83a15.35,15.35,0,0,0,3,0s1,3.11,3.32,2.8a30.63,30.63,0,0,0,10.78-3.83c3.68-2.1,4.66-3.18,4.9-3.51C501.7,183,497.71,177.73,498.18,175.7Z"/><path class="cls-16" d="M498.18,175.7c-.38-.14-.87-.35-1.4-.6-.24,4.1,3,7.37-2.12,10.07-5.58,3-9.23,2.22-15.58-3.84l-.87-.58a20.87,20.87,0,0,0-2.81,1.71c-2.49,2-.94,2.9,1.24,2.9h2.18s-.42,3.73,2.38,3.83a15.35,15.35,0,0,0,3,0s1,3.11,3.32,2.8a30.63,30.63,0,0,0,10.78-3.83c3.68-2.1,4.66-3.18,4.9-3.51C501.7,183,497.71,177.73,498.18,175.7Z"/><path class="cls-30" d="M332.51,190.16h-144c-7.18,0-13.05,4.9-13.05,10.9V415.12h170.1V201.06C345.55,195.06,339.68,190.16,332.51,190.16Z"/><path class="cls-15" d="M356.15,190.16H235.51c-6,0-10.93,4.11-10.93,9.13V415.12h142.5V199.29C367.08,194.27,362.16,190.16,356.15,190.16Z"/><path class="cls-11" d="M356.15,195.79H235.51a2.23,2.23,0,0,0-2.4,2V415.12H358.55V197.79A2.23,2.23,0,0,0,356.15,195.79Z"/><path class="cls-8" d="M279.38,195.78h32.89a2.6,2.6,0,0,1,2.79,2.34h0a2.6,2.6,0,0,1-2.79,2.33H279.38a2.6,2.6,0,0,1-2.79-2.33h0A2.6,2.6,0,0,1,279.38,195.78Z"/><path class="cls-8" d="M235.51,195.78H356.15a2.24,2.24,0,0,1,2.4,2v.33H233.11v-.33A2.24,2.24,0,0,1,235.51,195.78Z"/><path class="cls-8" d="M279.38,362h32.89a2.6,2.6,0,0,1,2.79,2.33h0a2.6,2.6,0,0,1-2.79,2.34H279.38a2.6,2.6,0,0,1-2.79-2.34h0A2.6,2.6,0,0,1,279.38,362Z"/><path class="cls-8" d="M235.51,362H356.15a2.23,2.23,0,0,1,2.4,2v.33H233.11V364A2.23,2.23,0,0,1,235.51,362Z"/><rect class="cls-31" x="233.11" y="230.88" width="28.59" height="44.93"/><rect class="cls-32" x="233.11" y="237.53" width="28.59" height="38.28"/><rect class="cls-1" x="233.11" y="241.58" width="28.59" height="34.23"/><rect class="cls-33" x="233.11" y="241.58" width="28.59" height="34.23"/><path class="cls-10" d="M261.71,238.69H240.54a8.43,8.43,0,0,0-7.43,5.41v31.71h28.6Z"/><rect class="cls-32" x="242.15" y="230.88" width="19.56" height="39.72"/><rect class="cls-32" x="242.15" y="237.53" width="19.56" height="33.07"/><rect class="cls-34" x="242.15" y="241.58" width="19.56" height="29.02"/><rect class="cls-35" x="242.15" y="241.58" width="19.56" height="29.02"/><rect class="cls-32" x="242.15" y="238.69" width="19.56" height="31.9"/><path class="cls-10" d="M299.38,230.88h-43.7a6.13,6.13,0,0,0-6.12,6.11v38.82h49.82Z"/><path class="cls-9" d="M299.38,237.53H259.07a6.13,6.13,0,0,0-6.11,6.11v32.17h46.42Z"/><path class="cls-11" d="M255.56,275.81V246.56a5,5,0,0,1,5-5h38.83v34.23Z"/><path class="cls-36" d="M258.6,275.81l7.78-31a7.89,7.89,0,0,1,1.74-3.23h31.26v34.23Z"/><path class="cls-10" d="M299.38,238.69H278.22a8.39,8.39,0,0,0-7.65,6.12l-7.78,31h36.59Z"/><rect class="cls-32" x="279.82" y="230.88" width="19.56" height="39.72"/><rect class="cls-32" x="279.82" y="237.53" width="19.56" height="33.07"/><rect class="cls-34" x="279.82" y="241.58" width="19.56" height="29.02"/><rect class="cls-35" x="279.82" y="241.58" width="19.56" height="29.02"/><rect class="cls-32" x="279.82" y="238.69" width="19.56" height="31.9"/><path class="cls-10" d="M337.06,230.88H293.35a6.14,6.14,0,0,0-6.12,6.11v38.82h49.83Z"/><path class="cls-9" d="M337.06,237.53H296.75a6.14,6.14,0,0,0-6.12,6.11v32.17h46.43Z"/><path class="cls-11" d="M293.24,275.81V246.56a5,5,0,0,1,5-5h38.84v34.23Z"/><path class="cls-36" d="M296.28,275.81l7.78-31a7.66,7.66,0,0,1,1.74-3.23h31.26v34.23Z"/><path class="cls-10" d="M337.06,238.69H315.89a8.4,8.4,0,0,0-7.65,6.12l-7.78,31h36.6Z"/><rect class="cls-32" x="317.5" y="230.88" width="19.56" height="39.72"/><rect class="cls-32" x="317.5" y="237.53" width="19.56" height="33.07"/><rect class="cls-34" x="317.5" y="241.58" width="19.56" height="29.02"/><rect class="cls-35" x="317.5" y="241.58" width="19.56" height="29.02"/><rect class="cls-32" x="317.5" y="238.69" width="19.56" height="31.9"/><path class="cls-10" d="M329.91,299.17h73.85a6.13,6.13,0,0,0,6.11-6.11V237a6.13,6.13,0,0,0-6.11-6.11h-3V228a1.68,1.68,0,0,0-1.68-1.68H376.76a1.68,1.68,0,0,0-1.68,1.68v2.85H329.91a6.13,6.13,0,0,0-6.12,6.11v56.07A6.13,6.13,0,0,0,329.91,299.17Z"/><path class="cls-9" d="M329.91,299.17h73.85a6.13,6.13,0,0,0,6.11-6.11V238.17a6,6,0,0,0-2.71-.64h-3v-2.85a1.68,1.68,0,0,0-1.68-1.68H380.16a1.69,1.69,0,0,0-1.69,1.68v2.85H333.31a6.13,6.13,0,0,0-6.12,6.11v54.89A6.05,6.05,0,0,0,329.91,299.17Z"/><rect class="cls-1" x="329.79" y="241.58" width="56.63" height="57.6" rx="4.98"/><path class="cls-36" d="M381.44,299.17H334.78a5,5,0,0,1-5-5v-6.27l10.82-43.11a7.89,7.89,0,0,1,1.74-3.23h39.09a5,5,0,0,1,5,5v47.63A5,5,0,0,1,381.44,299.17Z"/><path class="cls-10" d="M337.27,299.17h68.19a8.41,8.41,0,0,0,7.65-6.11l12.11-48.25c.84-3.37-1.22-6.12-4.59-6.12h-3.58l.76-3a1.68,1.68,0,0,0-1.67-2.23H391.25a3.06,3.06,0,0,0-2.79,2.23l-.76,3H352.45a8.39,8.39,0,0,0-7.65,6.12l-12.11,48.25C331.84,296.42,333.91,299.17,337.27,299.17Z"/><path class="cls-37" d="M409.87,247.47,400.2,286a8.41,8.41,0,0,1-7.66,6.11H332.92l-.23.91c-.85,3.36,1.22,6.11,4.58,6.11h68.19a8.41,8.41,0,0,0,7.65-6.11l12.11-48.25c.84-3.37-1.22-6.12-4.59-6.12h-3.58l.76-3a1.68,1.68,0,0,0-1.67-2.23h-4.58a5,5,0,0,1,.75,4.36Z"/><rect class="cls-1" x="317.19" y="253.5" width="125.43" height="53.05"/><path class="cls-8" d="M279.38,306.56h32.89a2.61,2.61,0,0,1,2.8,2.33h0a2.61,2.61,0,0,1-2.8,2.34H279.38a2.6,2.6,0,0,1-2.79-2.34h0A2.6,2.6,0,0,1,279.38,306.56Z"/><path class="cls-8" d="M235.51,306.56H356.15a2.23,2.23,0,0,1,2.4,2v.33H233.11v-.33A2.23,2.23,0,0,1,235.51,306.56Z"/><path class="cls-8" d="M319.58,251.17H440.23a2.22,2.22,0,0,1,2.39,2v.33H399.14a2.6,2.6,0,0,1-2.79,2.33H363.46a2.6,2.6,0,0,1-2.79-2.33H317.19v-.33A2.23,2.23,0,0,1,319.58,251.17Z"/><path class="cls-2" d="M317.19,306.56V253.5H233.11v55.06a2.23,2.23,0,0,1,2.4-2h81.68Z"/><path class="cls-38" d="M178.56,248.3c-14.36-15.91-25,4.31-23.55,24.6,1.41,19.24,16.65,85.25,13.83,113h5.83C188.94,350.31,197,268.68,178.56,248.3Z"/><path class="cls-39" d="M172.52,385.93c13.9-56.14-3.69-133.73-3.75-134a.82.82,0,0,0-1-.66.9.9,0,0,0-.6,1.08c.06.27,17.67,77.95,3.67,133.57Z"/><path class="cls-15" d="M143.13,283.38c-15.13-8.73-18.95,10.31-13,26.07,4.89,13.05,26.49,51.67,34.66,76.48h7.69C173.09,351.64,161,293.68,143.13,283.38Z"/><path class="cls-21" d="M169.62,385.93c-5-46.38-33.34-96.78-33.44-97a.66.66,0,0,0-1-.26.78.78,0,0,0-.23,1c.1.19,28.25,50.26,33.25,96.19Z"/><path class="cls-10" d="M208.1,305.39c14.66-7,17,11.06,10.47,25.29-4.41,9.63-20.3,34.28-31,55.25H175.36C179.54,354.2,192.93,312.6,208.1,305.39Z"/><path class="cls-9" d="M179.72,385.93c10.41-38.44,34.4-74.66,34.49-74.8a.61.61,0,0,1,.9-.17.74.74,0,0,1,.15,1c-.09.15-23.82,36-34.21,74Z"/><path class="cls-10" d="M155.56,373.24h43a2.45,2.45,0,0,1,2.34,2.54v11.55a2.45,2.45,0,0,1-2.34,2.54h-43a2.45,2.45,0,0,1-2.33-2.54V375.78A2.45,2.45,0,0,1,155.56,373.24Z"/><polygon class="cls-10" points="162.94 382.63 191.17 382.63 198.54 389.87 192.52 415.12 177.05 415.12 161.59 415.12 155.56 389.87 162.94 382.63"/><polygon class="cls-9" points="198.54 389.87 197.3 395.06 156.8 395.06 155.56 389.87 198.54 389.87"/><path class="cls-29" d="M424.62,221.57c-.77.57-1.19.94-1.19.94s-6.73-.61-8.78,1.74-6.53,8.06-8.47,9,.21,2.55,4.29,1.12a39.08,39.08,0,0,0,8.67-4.9s4.24,1,7.56-1a30.93,30.93,0,0,1-2.07-6.45A1.61,1.61,0,0,1,424.62,221.57Z"/></g></svg>