<svg xmlns="http://www.w3.org/2000/svg" viewBox="0 0 485.69 372.29"><defs><style>.cls-1{isolation:isolate;}.cls-2{fill:#f9ee26;fill-rule:evenodd;opacity:0.15;}.cls-3,.cls-54{fill:#50a4ff;}.cls-3{opacity:0.1;}.cls-4{fill:#e6ecef;}.cls-5{fill:#d6e0e5;}.cls-6{fill:#c1ced6;}.cls-7{fill:#fdd329;}.cls-8{fill:#f9b532;opacity:0.31;}.cls-9{fill:#fcaa86;}.cls-10{fill:#ed6042;}.cls-11{fill:#024487;}.cls-12{fill:#ffbe9d;}.cls-13{fill:#024aae;}.cls-14{fill:#53b9f8;}.cls-15{fill:#34a2ce;}.cls-16{fill:#1b227a;}.cls-17{fill:#389fe5;}.cls-18,.cls-33,.cls-50{fill:none;}.cls-18{stroke:#fff;stroke-miterlimit:10;stroke-width:3.17px;}.cls-19,.cls-55,.cls-56{fill:#67c2ef;}.cls-20{fill:#fcff6c;opacity:0.32;}.cls-21{fill:#285faf;}.cls-22{fill:#3a7dce;}.cls-23{fill:#fdcf33;}.cls-24{fill:#2673bf;}.cls-25{fill:#feb80c;}.cls-26{fill:#fff;}.cls-27{fill:#ffdbb3;}.cls-28{fill:#545454;}.cls-29{fill:#4d70ff;}.cls-30{fill:#2d24a0;}.cls-31,.cls-32{fill:#fc8510;}.cls-32,.cls-40{mix-blend-mode:multiply;}.cls-34{fill:#2694d1;}.cls-35{fill:#cfeffe;}.cls-36{fill:#8ddcfc;}.cls-37{fill:#43b9dd;}.cls-38{fill:#feaf84;}.cls-39{fill:#383874;}.cls-40{opacity:0.35;}.cls-41{fill:#5275a0;}.cls-42{fill:#2f98d3;}.cls-43{fill:#93d2e5;}.cls-44{fill:#10195b;}.cls-45{fill:#fcb392;}.cls-46{fill:#b3eaff;}.cls-47{fill:#153351;}.cls-48{fill:#57c6f2;}.cls-49{fill:#e5f8ff;}.cls-50{stroke:#a1d2f0;stroke-linecap:round;stroke-linejoin:round;stroke-width:0.59px;}.cls-51{fill:#f2a181;}.cls-52{fill:#b0d9ef;}.cls-53{fill:#1d5699;}.cls-54{opacity:0.19;}.cls-55,.cls-57{opacity:0.3;}.cls-56{opacity:0.2;}</style></defs><g class="cls-1"><g id="OBJECTS"><path class="cls-2" d="M35.71,431.29s-49.46-59,8.25-110.06c0,0-51.82-57.74-18.85-123.26s96.58-60,147.22-46.64S288.92,158,339.56,105.81,449.1,64.72,471.47,89.15s28.27,74.4,3.53,124.37-10.6,82.17,10.6,106.6,23.56,92.43-27.08,111.17Z" transform="translate(-14.13 -68.71)"/><path class="cls-3" d="M190.36,194.59H107.14c-12.55,0-12.54-14.42-1.69-18.23,10.49-3.68,19.71,4.89,19.71,4.89s3-35.07,31.67-31c22.58,3.25,21.27,25.79,21.27,25.79s4.65-9.27,16.83-5.76C207.64,174,206.27,194.59,190.36,194.59Z" transform="translate(-14.13 -68.71)"/><path class="cls-3" d="M328.76,302.93H245.55c-12.55,0-12.54-14.41-1.69-18.22,10.48-3.68,19.71,4.89,19.71,4.89s3-35.07,31.67-31c22.58,3.25,21.27,25.79,21.27,25.79s4.65-9.27,16.83-5.76C346.05,282.33,344.67,302.93,328.76,302.93Z" transform="translate(-14.13 -68.71)"/><path class="cls-3" d="M375.5,119.18H292.28c-12.54,0-12.54-14.41-1.68-18.22,10.48-3.69,19.71,4.88,19.71,4.88s3-35.07,31.67-30.95c22.58,3.25,21.27,25.79,21.27,25.79s4.65-9.28,16.83-5.77C392.79,98.57,391.41,119.18,375.5,119.18Z" transform="translate(-14.13 -68.71)"/><ellipse class="cls-4" cx="360.35" cy="353.19" rx="65.82" ry="2.73"/><path class="cls-5" d="M387.42,422.43a1.23,1.23,0,0,0,.52-.12,2.71,2.71,0,0,0,1.15-2.95c-6.49-31.78-12.68-63.91-18.66-95s-12.17-63.16-18.6-94.63c-.25-1.23-1.17-1.9-2.05-1.49a2.7,2.7,0,0,0-1.15,3c6.42,31.44,12.6,63.53,18.58,94.57s12.18,63.23,18.68,95C386.09,421.81,386.72,422.43,387.42,422.43Z" transform="translate(-14.13 -68.71)"/><path class="cls-5" d="M425.64,422.43a1.23,1.23,0,0,0,.52-.12,2.69,2.69,0,0,0,1.15-2.95c-6.49-31.78-12.68-63.91-18.66-95s-12.17-63.16-18.6-94.63c-.25-1.23-1.17-1.9-2.05-1.49a2.7,2.7,0,0,0-1.15,3c6.43,31.44,12.61,63.53,18.58,94.57s12.18,63.23,18.68,95C424.31,421.81,424.94,422.43,425.64,422.43Z" transform="translate(-14.13 -68.71)"/><path class="cls-5" d="M382.57,395.7" transform="translate(-14.13 -68.71)"/><path class="cls-5" d="M418.83,395.7" transform="translate(-14.13 -68.71)"/><path class="cls-5" d="M377.26,366.45h36.26c.92,0,1.7-1,1.73-2.33s-.67-2.34-1.59-2.34H377.4c-.92,0-1.69,1-1.73,2.34S376.35,366.45,377.26,366.45Z" transform="translate(-14.13 -68.71)"/><path class="cls-5" d="M371.49,334.86h36.26c.92,0,1.69-1,1.73-2.33s-.68-2.34-1.59-2.34H371.63c-.92,0-1.7,1.05-1.74,2.34S370.57,334.86,371.49,334.86Z" transform="translate(-14.13 -68.71)"/><path class="cls-5" d="M383,398H419.3c.92,0,1.69-1,1.73-2.33s-.67-2.34-1.59-2.34H383.18c-.92,0-1.69,1-1.73,2.34S382.12,398,383,398Z" transform="translate(-14.13 -68.71)"/><path class="cls-5" d="M364.59,303.28h36.25c.92,0,1.7-1,1.74-2.34s-.68-2.34-1.6-2.34H364.73c-.92,0-1.7,1-1.74,2.34S363.67,303.28,364.59,303.28Z" transform="translate(-14.13 -68.71)"/><path class="cls-5" d="M359.35,271.69H395.6c.92,0,1.7-1.05,1.74-2.34s-.68-2.34-1.6-2.34H359.49c-.92,0-1.7,1.05-1.74,2.34S358.43,271.69,359.35,271.69Z" transform="translate(-14.13 -68.71)"/><path class="cls-5" d="M351.91,240.1h36.26c.92,0,1.69-1,1.73-2.34s-.67-2.33-1.59-2.33H352.05c-.92,0-1.69,1-1.73,2.33S351,240.1,351.91,240.1Z" transform="translate(-14.13 -68.71)"/><path class="cls-6" d="M367.65,422.43a1.31,1.31,0,0,1-.53-.12,2.93,2.93,0,0,1-1.4-2.95c3.8-31.78,7.28-63.91,10.64-95s6.82-63.16,10.59-94.63c.15-1.23,1-1.9,1.93-1.49a2.93,2.93,0,0,1,1.4,3c-3.77,31.44-7.24,63.53-10.59,94.57s-6.84,63.23-10.65,95C368.93,421.81,368.35,422.43,367.65,422.43Z" transform="translate(-14.13 -68.71)"/><path class="cls-6" d="M329.43,422.43a1.39,1.39,0,0,1-.54-.12,2.94,2.94,0,0,1-1.39-2.95c3.8-31.78,7.27-63.91,10.63-95s6.83-63.16,10.6-94.63c.15-1.23,1-1.9,1.93-1.49a3,3,0,0,1,1.4,3c-3.77,31.44-7.24,63.53-10.59,94.57s-6.84,63.23-10.65,95C330.7,421.81,330.13,422.43,329.43,422.43Z" transform="translate(-14.13 -68.71)"/><path class="cls-6" d="M370.24,395.7" transform="translate(-14.13 -68.71)"/><path class="cls-6" d="M334,395.7" transform="translate(-14.13 -68.71)"/><path class="cls-6" d="M373.07,366.45H336.81c-.91,0-1.78-1-1.92-2.33s.47-2.34,1.39-2.34h36.26c.92,0,1.78,1,1.93,2.34S374,366.45,373.07,366.45Z" transform="translate(-14.13 -68.71)"/><path class="cls-6" d="M376.18,334.86H339.92c-.92,0-1.78-1-1.93-2.33s.48-2.34,1.4-2.34h36.26c.91,0,1.78,1.05,1.93,2.34S377.1,334.86,376.18,334.86Z" transform="translate(-14.13 -68.71)"/><path class="cls-6" d="M370,398H333.71c-.92,0-1.78-1-1.93-2.33s.47-2.34,1.39-2.34h36.26c.92,0,1.78,1,1.93,2.34S370.89,398,370,398Z" transform="translate(-14.13 -68.71)"/><path class="cls-6" d="M380.41,303.28H344.15c-.92,0-1.78-1-1.93-2.34s.48-2.34,1.4-2.34h36.26c.92,0,1.78,1,1.93,2.34S381.33,303.28,380.41,303.28Z" transform="translate(-14.13 -68.71)"/><path class="cls-6" d="M383,271.69H346.72c-.92,0-1.78-1.05-1.93-2.34s.48-2.34,1.4-2.34h36.26c.92,0,1.78,1.05,1.93,2.34S383.9,271.69,383,271.69Z" transform="translate(-14.13 -68.71)"/><path class="cls-6" d="M387.75,240.1H351.49c-.92,0-1.78-1-1.93-2.34s.48-2.33,1.4-2.33h36.26c.91,0,1.78,1,1.92,2.33S388.67,240.1,387.75,240.1Z" transform="translate(-14.13 -68.71)"/><path class="cls-5" d="M332.79,153.75h45.32a2.94,2.94,0,0,1,2.94,2.94v5.72a0,0,0,0,1,0,0h-51.2a0,0,0,0,1,0,0v-5.72A2.94,2.94,0,0,1,332.79,153.75Z"/><path class="cls-7" d="M361.24,178.74v31.41a1.53,1.53,0,0,1-1.53,1.53H317.43a1.52,1.52,0,0,1-1.53-1.53V178.74a1.46,1.46,0,0,1,.51-1.12,1.5,1.5,0,0,1,1-.4h42.28a1.46,1.46,0,0,1,1,.4A1.5,1.5,0,0,1,361.24,178.74Z" transform="translate(-14.13 -68.71)"/><path class="cls-8" d="M360.73,177.62l-21,16a1.88,1.88,0,0,1-2.27,0l-21-16a1.5,1.5,0,0,1,1-.4h42.28A1.46,1.46,0,0,1,360.73,177.62Z" transform="translate(-14.13 -68.71)"/><path class="cls-9" d="M378.08,202c-7.51-5-18.66-21.57-19.74-21.62a29.53,29.53,0,0,1-3,.39,17.12,17.12,0,0,1-3.26-.49c-.19,0-.41-.15-.41-.33a.38.38,0,0,1,.19-.29,2.3,2.3,0,0,1,1.32-.33c.38,0,.87-.06,1-.43a.57.57,0,0,0-.24-.59,10,10,0,0,0-4.47-1.13c.72-.22,1.75-.45,2.48-.63a10.54,10.54,0,0,1,1.68-.29,22.77,22.77,0,0,1,3.5.14,10.73,10.73,0,0,1,3.71,1.4,14.89,14.89,0,0,1,2.49,1.68c2,1.59,9.73,10.61,11.41,11.86" transform="translate(-14.13 -68.71)"/><path class="cls-10" d="M386.11,182.07" transform="translate(-14.13 -68.71)"/><path class="cls-9" d="M341.35,220.62a52.58,52.58,0,0,1,4.37,12.13c1.19,5.57-1.33,14.74-.53,21.25.19,1.26.57,4.31,1.12,5.19.69,1.08,2.11,2.23,2.35,3.71a2.32,2.32,0,0,1-1.34,2.35c-1,.55-1.74.05-2.12.11-2.16.33-2.47,1.93-6.18,2.66a6,6,0,0,1-4-.81.8.8,0,0,1-.22-1.1c.21-.34,2.92-1.35,4.13-2.16a7.75,7.75,0,0,0,2.49-3.52c.15-.77-.63-4.38-1-5.89-2.33-10.42-5.33-25.1-6.82-31.17" transform="translate(-14.13 -68.71)"/><path class="cls-11" d="M334.61,267.17c-.28-.44-.36-1.12-.11-1.28a22.12,22.12,0,0,1,2.32-1.34c.72-.32,3.79-2.12,3.38-1.91s.32.65,1,.61a13,13,0,0,0,3.47-.42,3.34,3.34,0,0,0,2.45-2.58,9,9,0,0,1,1.8,2.47,4.31,4.31,0,0,1,.31,1.93c-.1.36-3.25,1.17-3.25,1.17a5.77,5.77,0,0,0-1.19.11,4,4,0,0,0-1.8,1c-.28.29-.55.75-.91.9a7.86,7.86,0,0,1-3,.7C336.56,268.64,335.08,267.94,334.61,267.17Z" transform="translate(-14.13 -68.71)"/><path class="cls-12" d="M339.05,222.69s2.94,6.72,2,13.33c-.77,5.63-6.57,15-8,21.44-.25,1.25-.94,4.24-.71,5.26.27,1.25,1.22,2.81.93,4.29a2.3,2.3,0,0,1-2.05,1.76c-1.14.17-1.65-.55-2-.63-2.15-.42-3,1-6.72.4a5.94,5.94,0,0,1-3.47-2.12.8.8,0,0,1,.17-1.11c.3-.25,3.2-.27,4.61-.62a7.67,7.67,0,0,0,3.54-2.47c.41-.67.9-4.33,1.1-5.86,1.36-10.59,4-28.42,4.7-34.64" transform="translate(-14.13 -68.71)"/><path class="cls-13" d="M318.63,266.58c-.13-.51,0-1.17.29-1.25a21.13,21.13,0,0,1,2.61-.58c.79-.08,4.25-.86,3.81-.79s.1.71.76.88a12.55,12.55,0,0,0,3.44.65,3.32,3.32,0,0,0,3.11-1.71,8.77,8.77,0,0,1,1,2.9,4.33,4.33,0,0,1-.29,1.93c-.2.31-3.45.13-3.45.13a6.12,6.12,0,0,0-1.17-.25,4,4,0,0,0-2,.38,3.62,3.62,0,0,1-1.14.58,8.06,8.06,0,0,1-3.07-.24C320.05,268.57,318.85,267.46,318.63,266.58Z" transform="translate(-14.13 -68.71)"/><path class="cls-12" d="M372.46,208l17,9.73s-.68,6.19-8.38,7.84c-4.47,1-12-.56-13.74,0-11.49,3.45-31.27-.5-31.27-.5s-2.8,2.27-2.95-.08c-.19-3.14-.43-4.66,2-6.26C339.2,216,354.77,210.91,372.46,208Z" transform="translate(-14.13 -68.71)"/><path class="cls-13" d="M386.18,202.63s4.63,10.21,4,14.78-4,9.52-11.34,9.57-23,.23-23,.23-3.16-5.88-4.77-8.85a7.6,7.6,0,0,1-.29-6.08s14.66-4.95,16-6.18a16.59,16.59,0,0,0,2.55-4" transform="translate(-14.13 -68.71)"/><path class="cls-14" d="M368.89,165.18c-1,.32-.61,2.64-1.58,3-.71.23-2.1-.08-2.75.29-3.43,1.94-2.55,5.81-3,10.6-1.45,3.68-1.84,7-.68,9.07,1.44,2.55,3,3.27,4.73,5.38,1.32,1.59,1.09,4.09,1.36,7.58a27.71,27.71,0,0,1-.66,3.5c-.13.72,3,1.32,4.9,1a120.57,120.57,0,0,1,12.51-1.42c4.12,0,3.84-1.92,3.84-1.92a6.47,6.47,0,0,1-1.18-2.53c-.66-3.23-1.17-11.3-1.68-14-1.32-7-2.28-12.21-5.15-18.67" transform="translate(-14.13 -68.71)"/><path class="cls-15" d="M359,182a33.06,33.06,0,0,1,4-5.2l3.74,1.68c-1.76,3.37-2.08,7.34-2.88,11a8.73,8.73,0,0,1-2.16-.22c-.36-.59-.23-.29-.71-1.15A15.05,15.05,0,0,1,359,182Z" transform="translate(-14.13 -68.71)"/><path class="cls-12" d="M356.4,155.72a18.45,18.45,0,0,1-.63-4.84c.11-2.78.46-6.8,5.07-8.46s9.72-.66,11.23,2.67,1.16,8.37,1.38,11.07a16.63,16.63,0,0,0,2.2,5.92l-9.95,4.28s-1.62-3.53-2.29-4-.7.79-3,1.32c-.92.21-2.09-2-2.85-4.1l-.07-.2c-.49,0-1.06-.07-1.18-.1-.69-.21-.64-.51-.48-1A11,11,0,0,0,356.4,155.72Z" transform="translate(-14.13 -68.71)"/><path class="cls-12" d="M340.25,210.3a5.34,5.34,0,0,1-3.25,2.85,1.77,1.77,0,0,1-1.15-.21c-.57.15-2.29.06-1.5-.83-1.22.73-2.44.48-3.79.19-.45-.09-.35-.62.69-.73a5.06,5.06,0,0,0,3.54-2.12c-.18-.19-.39.07-1,.07s-.93-.34-.91-.61.81-.33,1-.41l2.08-.93a3.6,3.6,0,0,1,2.08-.41c.14,0,1.48.32,1.06.75" transform="translate(-14.13 -68.71)"/><path class="cls-12" d="M363.49,183.87s-5.22,14.07-6.13,15.22c-3.57,4.53-17.63,11.65-17.63,11.65a2.75,2.75,0,0,1-1.74-3.07C342.31,205.77,350.3,197,352,196c1.13-.69,6.13-17.89,6.13-17.89" transform="translate(-14.13 -68.71)"/><path class="cls-14" d="M361.35,168.24c3.78-1.45,7.39-1.45,10.28-4.35,2.94,2.26-3.54,15.32-5.14,15.67s-3.78,7.57-4.18,8.55c-5.23-.14-7.14-3-7.14-3C357.3,178.56,357.69,169.64,361.35,168.24Z" transform="translate(-14.13 -68.71)"/><path class="cls-16" d="M364.38,168.59c.26-1,1-1.76,1.17-2.76a4.55,4.55,0,0,0-.56-3,5.36,5.36,0,0,0-1.29-1.22c-2.08-1.64-2.71-2-2-4.46a6.47,6.47,0,0,0,.35-2.46c-.07-.75-.22-1.54-1-1.63a.94.94,0,0,0-1.12.54c-.26.53.71,5-.76.38-.45-1.42-1.42-1.39-1.38-4.36,0-.35.12-1.79-.1-2-2.73,1.92-1.52,4.7-1.68,6-1-.44-1.59-3.89-1.59-4.46a6.59,6.59,0,0,1,.55-3c1.8-3.87,3.72-4.58,5.33-5.27a11.88,11.88,0,0,1,4.9-1.3c1.7,0,3.81.55,4.3,1.83,2.36-.61,3.71,1.45,4.26,2.19a11.85,11.85,0,0,1,1.82,3.51c.6,1.86.74,3.84,1.22,5.74a8.49,8.49,0,0,0,2.24,4.23c1.15,1,2.77,1.13,4,2.08a6.29,6.29,0,0,1,2.39,5.22c-.09,2-1.12,4.14.09,6,.39.6.94,1.07,1.33,1.67a4.57,4.57,0,0,1-.09,4.69,8.33,8.33,0,0,1-4.07,3.47,11.91,11.91,0,0,1-4.39.6c-2.86-.16-5.27,0-8.3-2.58-1.72-1.47-.62-2.31-2.27-3.86-.92-.87-2.23-1.34-2.91-2.47a4.42,4.42,0,0,1-.44-3.17Z" transform="translate(-14.13 -68.71)"/><path class="cls-17" d="M237.53,384.19H215s1.25,9,22.49,9,22.48-9,22.48-9Z" transform="translate(-14.13 -68.71)"/><path class="cls-7" d="M302.13,192.27c-14.67-18.17-36.48-31.06-60.28-31.47-13.77-.25-28.28,1.58-40.58,8.13a92,92,0,0,0-27.85,23.32c-13.14,16.27-20.72,37.49-18.45,58.29,1.9,17.36,10.48,33.28,21.81,46.32C187.84,309.57,204,320.07,206.71,338c.79,5.13-1.1,12.22,2.81,16.32,4.66,4.88,12.22,3.18,18.17,3.13l21.26-.13c5.08,0,13.2,1.39,17-3,3.91-4.1,2-11.19,2.81-16.32,2.08-13.52,12.63-24.48,22.34-33.29,11.15-10.11,20-21.74,25-36.1C325.31,242.06,319.68,214,302.13,192.27Z" transform="translate(-14.13 -68.71)"/><path class="cls-18" d="M232.86,361.08s-1.76-47.39-3.93-70.62a92.05,92.05,0,0,0-4.05-22c-1.92-6.08-7.12-19-15.69-16-10.11,3.47-2,16.54,4.52,19.39,5.36,2.34,15.29,1.28,20.42-1.75A26.75,26.75,0,0,0,246.78,243c-1.24-7.21-11.88-8.76-15-.5-2.34,6.17,3.72,27.74,15.66,28.4,6.28.35,12.07-2.66,17.29-6.13,10.94-7.27,2.32-24.58-7.71-13.41-7.13,7.94-9.24,21.22-9.76,31.43-1.42,27.94-1.78,49.9-2.67,77.86" transform="translate(-14.13 -68.71)"/><rect class="cls-17" x="199.13" y="287.86" width="48.03" height="5.38"/><path class="cls-19" d="M264.06,378.35a2.81,2.81,0,0,1,.09-3.57l.3-.31a2.8,2.8,0,0,0,.12-3.52l-.49-.61a2.79,2.79,0,0,1,.22-3.62,2.77,2.77,0,0,0,.26-3.57l-1.28-1.72a2.51,2.51,0,0,0-2-1H213.56a2.47,2.47,0,0,0-2,1l-1.29,1.71a2.79,2.79,0,0,0,.26,3.57,2.79,2.79,0,0,1,.22,3.62l-.49.61a2.81,2.81,0,0,0,.12,3.52l.3.32a2.79,2.79,0,0,1,.09,3.56l-.38.45a2.8,2.8,0,0,0,.13,3.62l.2.2a5.15,5.15,0,0,0,3.63,1.58h46.1a5.14,5.14,0,0,0,3.64-1.57l.2-.2a2.8,2.8,0,0,0,.13-3.62Z" transform="translate(-14.13 -68.71)"/><path class="cls-17" d="M262.37,367.19a.88.88,0,0,0,.07-.32.79.79,0,0,0-.79-.78H239.41a.78.78,0,0,0-.78.78.79.79,0,0,0,.78.79h22.25A.8.8,0,0,0,262.37,367.19Z" transform="translate(-14.13 -68.71)"/><path class="cls-17" d="M230.21,367.18a.88.88,0,0,0,.07-.32.78.78,0,0,0-.78-.78H217.17a.78.78,0,0,0,0,1.56H229.5A.78.78,0,0,0,230.21,367.18Z" transform="translate(-14.13 -68.71)"/><path class="cls-17" d="M246.89,372.63a.66.66,0,0,0,.07-.32.78.78,0,0,0-.78-.78H213.94a.78.78,0,0,0,0,1.56h32.24A.77.77,0,0,0,246.89,372.63Z" transform="translate(-14.13 -68.71)"/><path class="cls-17" d="M262.44,372.64a.71.71,0,0,0,.07-.32.78.78,0,0,0-.78-.78h-9.51a.78.78,0,1,0,0,1.56h9.51A.77.77,0,0,0,262.44,372.64Z" transform="translate(-14.13 -68.71)"/><path class="cls-17" d="M235.12,378.08a.68.68,0,0,0,.07-.32.78.78,0,0,0-.78-.78H217.16a.78.78,0,1,0,0,1.56h17.24A.77.77,0,0,0,235.12,378.08Z" transform="translate(-14.13 -68.71)"/><path class="cls-17" d="M253.34,378.08a.78.78,0,0,0-.71-1.1h-6.94a.78.78,0,0,0-.78.78.8.8,0,0,0,.79.79h6.93A.78.78,0,0,0,253.34,378.08Z" transform="translate(-14.13 -68.71)"/><path class="cls-17" d="M235.8,367.18a.83.83,0,0,0,.07-.32.79.79,0,0,0-.79-.78h-2.49a.78.78,0,1,0,0,1.56h2.5A.82.82,0,0,0,235.8,367.18Z" transform="translate(-14.13 -68.71)"/><path class="cls-8" d="M302.13,192.27a90,90,0,0,0-21.95-19.6l-.64-.88-1.16-.22a74,74,0,0,0-36.53-10.77c-2.72-.05-5.46,0-8.21.12a73,73,0,0,1,27.65,7.39l-9.76-1.86L226,167.62l-19.5,3L191.18,174l-9,8.82s68.14-16,106.06,7.51a71.2,71.2,0,0,1,15.23,46c-1.05,33.51-17.42,57.4-51.25,72.05-7.09,3.06-12.17,7.74-13.29,15.85-1.05,7.5,1.32,15.09-.24,22.56a6.31,6.31,0,0,1-1.38,3.13,6.89,6.89,0,0,1-2.78,1.56,50.1,50.1,0,0,1-26,1.64,7.58,7.58,0,0,0,1,1.31c4.66,4.88,12.22,3.18,18.17,3.13l21.26-.13c5.08,0,13.2,1.39,17-3,3.91-4.1,2-11.19,2.81-16.32,2.08-13.52,12.63-24.48,22.34-33.29,11.15-10.11,20-21.74,25-36.1C325.31,242.06,319.68,214,302.13,192.27Z" transform="translate(-14.13 -68.71)"/><path class="cls-20" d="M179.3,196s-28.81,31.08-14.62,67.79c0,0-1.66-33.38,24.19-47.58C221.31,198.39,193.39,178.62,179.3,196Z" transform="translate(-14.13 -68.71)"/><polygon class="cls-21" points="223.47 78.94 332.76 58.1 223.47 16.42 223.47 16.36 223.39 16.39 223.31 16.36 223.31 16.42 114.03 58.1 223.31 78.94 223.31 78.97 223.39 78.96 223.47 78.97 223.47 78.94"/><path class="cls-22" d="M293.2,123.57v59.2A141.69,141.69,0,0,0,270,176.38a165.9,165.9,0,0,0-31.64-3.15c-33,0-56.17,9.54-56.17,9.54v-59.2S205.43,114,238.4,114A166,166,0,0,1,270,117.18c2.17.43,4.22.87,6.13,1.33A129,129,0,0,1,293.2,123.57Z" transform="translate(-14.13 -68.71)"/><path class="cls-23" d="M150,185.29a.5.5,0,0,1-.5-.5V118.48a.5.5,0,0,1,1,0v66.31A.5.5,0,0,1,150,185.29Z" transform="translate(-14.13 -68.71)"/><path class="cls-23" d="M153.93,227.43h-7.86V185.22a3.93,3.93,0,0,1,3.93-3.93h0a3.93,3.93,0,0,1,3.93,3.93Z" transform="translate(-14.13 -68.71)"/><path class="cls-24" d="M273.37,117.87l-.27-.06c-1-.21-2-.43-3.06-.63A166,166,0,0,0,238.4,114c-33,0-56.17,9.53-56.17,9.53v4.62s72.67-8.27,87.81,26v22.18a141.69,141.69,0,0,1,23.16,6.39v-59.2A136.21,136.21,0,0,0,273.37,117.87Z" transform="translate(-14.13 -68.71)"/><rect class="cls-25" x="158.68" y="331.07" width="11.74" height="62.68" rx="1.84" transform="translate(-132.96 14.21) rotate(-20.98)"/><path class="cls-26" d="M149,338.1l1.85-.71a.2.2,0,0,0,.12-.26.22.22,0,0,0-.27-.13l-1.86.7Z" transform="translate(-14.13 -68.71)"/><path class="cls-26" d="M150.88,340.13a.08.08,0,0,1,0,.11l-.93.35-.06-.16.93-.35A.08.08,0,0,1,150.88,340.13Z" transform="translate(-14.13 -68.71)"/><path class="cls-26" d="M152.88,345.35a.08.08,0,0,1,0,.11l-.93.35-.06-.16.93-.35A.08.08,0,0,1,152.88,345.35Z" transform="translate(-14.13 -68.71)"/><path class="cls-26" d="M154.88,350.57a.08.08,0,0,1,0,.11l-.93.35-.06-.16.93-.35A.08.08,0,0,1,154.88,350.57Z" transform="translate(-14.13 -68.71)"/><path class="cls-26" d="M156.88,355.79a.09.09,0,0,1,0,.11l-.93.35-.06-.16.93-.35A.08.08,0,0,1,156.88,355.79Z" transform="translate(-14.13 -68.71)"/><path class="cls-26" d="M158.88,361a.09.09,0,0,1,0,.11l-.92.35-.07-.16.93-.35A.08.08,0,0,1,158.88,361Z" transform="translate(-14.13 -68.71)"/><path class="cls-26" d="M160.88,366.21a.09.09,0,0,1,0,.11l-.93.35-.06-.16.93-.35S160.86,366.18,160.88,366.21Z" transform="translate(-14.13 -68.71)"/><path class="cls-26" d="M162.88,371.43a.08.08,0,0,1,0,.11l-.93.35-.06-.16.93-.35S162.86,371.4,162.88,371.43Z" transform="translate(-14.13 -68.71)"/><path class="cls-26" d="M164.88,376.65a.08.08,0,0,1,0,.11l-.93.35-.06-.16.93-.35A.08.08,0,0,1,164.88,376.65Z" transform="translate(-14.13 -68.71)"/><path class="cls-26" d="M166.88,381.87a.08.08,0,0,1,0,.11l-.93.35-.06-.16.93-.35A.08.08,0,0,1,166.88,381.87Z" transform="translate(-14.13 -68.71)"/><path class="cls-26" d="M168.88,387.09a.08.08,0,0,1,0,.11l-.93.35-.06-.16.93-.35A.08.08,0,0,1,168.88,387.09Z" transform="translate(-14.13 -68.71)"/><path class="cls-26" d="M151,343.32l1.85-.71a.22.22,0,0,0,.12-.26.24.24,0,0,0-.27-.14l-1.85.71Z" transform="translate(-14.13 -68.71)"/><path class="cls-26" d="M154.91,347.55a.21.21,0,0,1-.11.28l-1.85.71-.15-.4,1.85-.71A.21.21,0,0,1,154.91,347.55Z" transform="translate(-14.13 -68.71)"/><path class="cls-26" d="M156.91,352.77a.21.21,0,0,1-.11.28l-1.85.71-.15-.4,1.85-.71A.21.21,0,0,1,156.91,352.77Z" transform="translate(-14.13 -68.71)"/><path class="cls-26" d="M158.91,358a.21.21,0,0,1-.11.28L157,359l-.15-.4,1.85-.71A.21.21,0,0,1,158.91,358Z" transform="translate(-14.13 -68.71)"/><path class="cls-26" d="M160.92,363.21a.21.21,0,0,1-.12.26l-1.85.71-.16-.39,1.85-.71A.23.23,0,0,1,160.92,363.21Z" transform="translate(-14.13 -68.71)"/><path class="cls-26" d="M162.92,368.43a.21.21,0,0,1-.12.26l-1.85.71-.16-.4,1.86-.71A.24.24,0,0,1,162.92,368.43Z" transform="translate(-14.13 -68.71)"/><path class="cls-26" d="M164.92,373.65a.2.2,0,0,1-.12.26l-1.85.71-.15-.4,1.85-.71A.24.24,0,0,1,164.92,373.65Z" transform="translate(-14.13 -68.71)"/><path class="cls-26" d="M165,379.84l1.85-.71a.21.21,0,0,0,.12-.26.24.24,0,0,0-.27-.14l-1.85.71Z" transform="translate(-14.13 -68.71)"/><path class="cls-26" d="M167,385.06l1.85-.71a.21.21,0,0,0,.11-.28.21.21,0,0,0-.26-.12l-1.85.71Z" transform="translate(-14.13 -68.71)"/><path class="cls-26" d="M169,390.28l1.85-.71a.21.21,0,0,0,.11-.28.21.21,0,0,0-.26-.12l-1.85.71Z" transform="translate(-14.13 -68.71)"/><rect class="cls-19" x="164.35" y="274.45" width="5.56" height="62.96"/><polygon class="cls-27" points="169.9 274.45 164.34 274.45 166.84 269.52 167.13 268.96 167.42 269.52 169.9 274.45"/><polygon class="cls-28" points="167.42 269.52 166.84 269.52 167.13 268.96 167.42 269.52"/><rect class="cls-19" x="172.66" y="352.56" width="5.56" height="62.96" transform="translate(-65.16 -41.01) rotate(-7.88)"/><polygon class="cls-27" points="159.73 283.77 154.23 284.53 156.03 279.31 156.24 278.71 156.6 279.23 159.73 283.77"/><polygon class="cls-28" points="156.6 279.23 156.03 279.31 156.24 278.71 156.6 279.23"/><rect class="cls-29" x="185.9" y="352.13" width="13.68" height="4.75" rx="0.89" transform="matrix(1, 0, 0, 1, -13.69, -68.95)"/><path class="cls-30" d="M195.86,349.19a2.11,2.11,0,0,1-2.14-1.5h-1.88a2.13,2.13,0,0,1-2.14,1.5c-4.12.21-3.72,3.71-3.72,3.71h13.58S200,349.41,195.86,349.19Z" transform="translate(-14.13 -68.71)"/><path class="cls-25" d="M185.87,352.91h13.68a0,0,0,0,1,0,0v39a2.61,2.61,0,0,1-2.61,2.61h-8.45a2.61,2.61,0,0,1-2.61-2.61v-39A0,0,0,0,1,185.87,352.91Z" transform="translate(-13.67 -68.95) rotate(0.07)"/><rect class="cls-25" x="191.91" y="345.87" width="1.75" height="1.89" transform="translate(-168.42 470.43) rotate(-89.92)"/><path class="cls-31" d="M191.82,355.39h1.79a2.53,2.53,0,0,1,2.53,2.53v28.92a2.53,2.53,0,0,1-2.53,2.53h-1.79a2.52,2.52,0,0,1-2.52-2.52V357.91A2.53,2.53,0,0,1,191.82,355.39Z" transform="translate(-13.68 -68.94) rotate(0.07)"/><path class="cls-32" d="M196.15,358.43l0,27.89a3,3,0,0,1-3,3h-.51a3,3,0,0,0,3-3l0-27.89a3,3,0,0,0-3-3h.52A3,3,0,0,1,196.15,358.43Z" transform="translate(-14.13 -68.71)"/><line class="cls-33" x1="182.02" y1="289.72" x2="181.98" y2="317.62"/><path class="cls-17" d="M197.2,423.55H166.7a3.82,3.82,0,0,1-3.8-3.57l-3.15-49.76h44.4L201,420A3.81,3.81,0,0,1,197.2,423.55Z" transform="translate(-14.13 -68.71)"/><path class="cls-34" d="M204.15,370.21,201,420a3.82,3.82,0,0,1-3.8,3.58H166.7a3.82,3.82,0,0,1-3.8-3.58l-3.14-49.76Z" transform="translate(-14.13 -68.71)"/><path class="cls-17" d="M191.13,370.21,188,420a3.82,3.82,0,0,1-3.8,3.58H166.7a3.82,3.82,0,0,1-3.8-3.58l-3.14-49.76Z" transform="translate(-14.13 -68.71)"/><ellipse class="cls-4" cx="223.53" cy="357.95" rx="138.11" ry="5.81"/><path class="cls-35" d="M256.27,405.63c-13.51,0-18,6.89-19.49,9.76-1.49-2.87-6-9.75-19.48-9.76-19.82,0-100,8.75-100,8.75v6.46h239v-6.46S276.09,405.61,256.27,405.63Z" transform="translate(-14.13 -68.71)"/><path class="cls-36" d="M355.25,416.4,324.94,414q-15.17-1.23-30.32-2.35l-15.17-1.07-7.58-.47c-2.53-.13-5.06-.31-7.59-.39l-3.79-.15-3.78-.07a40,40,0,0,0-7.44.64,21.94,21.94,0,0,0-6.91,2.51,13.19,13.19,0,0,0-5,5.12l-.58,1.12-.59-1.12a13.26,13.26,0,0,0-5-5.12,22.19,22.19,0,0,0-6.91-2.51,39.24,39.24,0,0,0-7.43-.63l-3.8.06-3.79.15c-2.52.09-5.05.26-7.58.39l-7.58.48L179,411.6q-15.16,1.09-30.32,2.35l-30.31,2.45,30.26-3.09q15.13-1.43,30.3-2.72,7.58-.64,15.16-1.19l7.59-.5c2.54-.14,5.06-.33,7.61-.42l3.81-.17,3.8-.08a40.52,40.52,0,0,1,7.69.63,23.68,23.68,0,0,1,7.33,2.63,14.59,14.59,0,0,1,5.5,5.63H236.2a14.49,14.49,0,0,1,5.5-5.62,23.45,23.45,0,0,1,7.33-2.64,41.46,41.46,0,0,1,7.68-.63l3.82.08,3.81.17c2.53.09,5.06.28,7.6.42l7.59.5q7.59.54,15.16,1.19,15.17,1.29,30.3,2.73Z" transform="translate(-14.13 -68.71)"/><path class="cls-36" d="M187.14,416.19l12.44-.73c4.15-.22,8.29-.45,12.45-.56,2.08-.07,4.15-.11,6.24-.12,1,0,2.08,0,3.13.05s2.08.14,3.12.24q3.12.29,6.22.72c2.06.3,4.11.62,6.17,1.08l-.51.95a16.7,16.7,0,0,0-3-1.94,25.59,25.59,0,0,0-3.36-1.45,37.13,37.13,0,0,0-7.16-1.7,47.73,47.73,0,0,0-7.37-.41c-2.5.06-5,.21-7.46.34l-29.9,1.73-14.95.9-15,.84c-10,.61-19.94,1.06-29.91,1.6,10-.81,19.9-1.68,29.86-2.39l14.94-1.1,14.95-1,14.94-1c5-.31,10-.64,15-.87,2.49-.12,5-.26,7.51-.3a47.83,47.83,0,0,1,7.56.47,37.83,37.83,0,0,1,7.38,1.79,28.53,28.53,0,0,1,3.5,1.53,17.86,17.86,0,0,1,3.25,2.14.56.56,0,0,1-.49,1h0c-2-.45-4-.83-6.08-1.16s-4.09-.59-6.15-.82c-1-.11-2.07-.23-3.08-.28s-2.06-.09-3.09-.11c-2.07,0-4.14,0-6.22,0l-12.45.22Z" transform="translate(-14.13 -68.71)"/><path class="cls-36" d="M185.19,416.07l-1.89.2c-1.2.1-2.92.28-5,.43s-4.47.33-7.05.47-5.34.27-8.09.38c-5.51.21-11,.31-15.17.3-2.06,0-3.79-.05-5-.06l-1.9-.06,1.89-.2c1.2-.1,2.92-.28,5-.44,4.12-.32,9.63-.63,15.14-.85,2.76-.09,5.51-.18,8.1-.22s5-.07,7.07-.07,3.79.05,5,.06Z" transform="translate(-14.13 -68.71)"/><path class="cls-36" d="M286.56,416.19l-12.46-.36-12.45-.22c-2.07,0-4.14-.05-6.21,0-1,0-2.08,0-3.09.11s-2.07.17-3.09.28q-3.07.34-6.14.82c-2,.33-4.09.71-6.08,1.16h0a.55.55,0,0,1-.48-1,17.52,17.52,0,0,1,3.25-2.14,27.88,27.88,0,0,1,3.5-1.53,37.65,37.65,0,0,1,7.38-1.79,47.83,47.83,0,0,1,7.56-.47c2.49,0,5,.18,7.51.3,5,.23,10,.56,14.95.87l14.95,1,14.95,1,14.94,1.1c10,.71,19.91,1.58,29.86,2.39-10-.54-19.95-1-29.92-1.6l-14.95-.84-14.95-.9-29.9-1.73c-2.5-.13-5-.28-7.46-.34a47.73,47.73,0,0,0-7.37.41,37.13,37.13,0,0,0-7.16,1.7,25,25,0,0,0-3.36,1.45,17.14,17.14,0,0,0-3,1.94l-.51-.95c2.06-.46,4.12-.78,6.18-1.08s4.14-.53,6.21-.72c1.05-.1,2.06-.2,3.13-.24s2.09-.05,3.13-.05q3.12,0,6.24.12c4.15.11,8.3.34,12.45.56Z" transform="translate(-14.13 -68.71)"/><path class="cls-36" d="M288.51,416.07l1.9-.06c1.21,0,2.93-.06,5-.06s4.49,0,7.07.07,5.34.13,8.1.22c5.51.22,11,.53,15.14.85,2.07.16,3.78.34,5,.44l1.89.2-1.9.06c-1.21,0-2.94.06-5,.06-4.14,0-9.65-.09-15.16-.3-2.76-.11-5.51-.23-8.09-.38s-5-.31-7.06-.47-3.78-.33-5-.43Z" transform="translate(-14.13 -68.71)"/><path class="cls-17" d="M360,420.61l-123.2-2.88-121.7,2.88a1.25,1.25,0,0,0-1.26,1.25v4a1.25,1.25,0,0,0,1.26,1.25l117.84-2.9a5.94,5.94,0,0,0,9.21,0L360,427.13a1.25,1.25,0,0,0,1.25-1.25v-4A1.25,1.25,0,0,0,360,420.61Z" transform="translate(-14.13 -68.71)"/><ellipse class="cls-4" cx="294.46" cy="369.56" rx="41.48" ry="2.73"/><rect class="cls-19" x="273.9" y="322.16" width="50.6" height="46.66"/><rect class="cls-37" x="318.72" y="322.16" width="5.78" height="46.66"/><path class="cls-38" d="M284.15,429.54s.15,2.68.31,3.66,3.32.79,3.65.24.49-5.11.49-5.11" transform="translate(-14.13 -68.71)"/><path class="cls-39" d="M312.4,392.25c-4.86-.08-17.72,1.92-22.63,2.35.26,2,1.35,4.8,1.4,7.59A201.32,201.32,0,0,1,289,430.41a6.64,6.64,0,0,1-5,.06c-2.2-12.54-5.06-37.8-3.9-42.86,1.48-6.43,21.12-11.52,33.28-10.58" transform="translate(-14.13 -68.71)"/><g class="cls-40"><path class="cls-41" d="M313.35,377c-8.59-.66-20.9,1.68-27.92,5.38a17.33,17.33,0,0,1,4.18,2.6,6.59,6.59,0,0,1,2.37,4.88,16,16,0,0,1-.57,4.54c5.68-.63,16.6-2.25,21-2.18Z" transform="translate(-14.13 -68.71)"/></g><path class="cls-38" d="M297.67,428.74s.18,3.69.37,4.66,3.36.67,3.66.11a38.93,38.93,0,0,0,.52-5.33" transform="translate(-14.13 -68.71)"/><path class="cls-39" d="M331.44,377.68c1.27,3,2,8.48.84,10.89a6.05,6.05,0,0,1-3.57,3.59c-6.14,2.74-15.23,2.18-24.44,1.61,3.8,10.27-.65,29.43-1.65,36.69-3.45,1.53-5.4-.1-5.4-.1-1.14-14.67-5.16-41.8-2.6-46.34,1.55-2.75,20.13-6.39,20.49-6.34" transform="translate(-14.13 -68.71)"/><path class="cls-12" d="M306.54,355.9c-1.05-.34-3.74-4.06-4.59-3.88-.75,1-1.64,7.57-1.64,7.57-.28,1.86-11.65,19-11.65,19a3.63,3.63,0,0,0,1.26,2.27,9,9,0,0,0,2.44,1.28s12.31-13.55,15.16-18.3C307.66,362.84,308.94,356.67,306.54,355.9Z" transform="translate(-14.13 -68.71)"/><path class="cls-35" d="M314.35,345.67s-2.22,5.16-4.53,10.23a5.36,5.36,0,0,0-2.58-.85A26.44,26.44,0,0,1,300,353.6c1.11-4.5,2.38-9.66,2.61-10.73,1-4.57,3.12-6.43,3.12-6.43Z" transform="translate(-14.13 -68.71)"/><path class="cls-35" d="M331.53,377.82c-5,.64-14.22.41-20.48.64-5.6.2-6.72,1.28-6.72,1.28.21-8,1.39-13.76,1-19.71-.69-10.06-1.59-21.34.41-23.59,3.91-3,11.82-4.23,20-1.69,6.13,1.9,8.06,3.7,7.69,8.31-.11,1.34-3.4,20.78-2.57,30.5a4.76,4.76,0,0,0,.75,2.05C332.19,376.61,332.1,377.44,331.53,377.82Z" transform="translate(-14.13 -68.71)"/><polygon class="cls-42" points="308.1 309.18 278.38 309.62 296.22 315.8 308.1 309.18"/><polygon class="cls-19" points="296.17 316.5 308.1 310.2 308.1 309.18 296.03 315.49 296.17 316.5"/><path class="cls-12" d="M308.6,374.72l-2.5,1.15a4.15,4.15,0,0,0-4.75-.18c-2.49,1.62,0,6.87,1.8,6.49s7.16-3.82,7.16-3.82Z" transform="translate(-14.13 -68.71)"/><path class="cls-43" d="M307.39,374.63s7-4.15,11.94-7.92c-4.82,3.68-11.74,8.56-12.09,8.82C307.3,375,307.39,374.63,307.39,374.63Z" transform="translate(-14.13 -68.71)"/><path class="cls-35" d="M335.58,355a49.85,49.85,0,0,1-9.79.34c-.15-1.25-.3-2.56-.44-4.09-.23-2.26-.8-5.2-.48-7.43.41-3,1.55-7.9,5.22-7.29C336.64,337.58,335.58,354.85,335.58,355Z" transform="translate(-14.13 -68.71)"/><path class="cls-12" d="M334.86,355.05c-.14,3.47.08,9.08-2,11.9-3.22,4.42-24.33,12-24.33,12s-.86.35-1.35-1.84a3.46,3.46,0,0,1,0-1.59s7.16-5,12.11-8.82a36.3,36.3,0,0,1,7.27-4.46c-.27-2.72-.54-4.74-.81-6.94A41.74,41.74,0,0,0,334.86,355.05Z" transform="translate(-14.13 -68.71)"/><path class="cls-38" d="M307.19,377.12a3.32,3.32,0,0,1,0-1.52A4.6,4.6,0,0,0,307.19,377.12Z" transform="translate(-14.13 -68.71)"/><path class="cls-17" d="M310.31,385.21l-27.51-1.87a2,2,0,0,1-1.8-1.68l-2.61-19.07a1.63,1.63,0,0,1,1.72-1.85l25.77,1.76a1.64,1.64,0,0,1,1.51,1.4Z" transform="translate(-14.13 -68.71)"/><path class="cls-44" d="M307.13,318.1s-1.21,3.43.78,4.64a1.56,1.56,0,0,0,1.47,2.05c2,.33.2-6.28.2-6.28" transform="translate(-14.13 -68.71)"/><path class="cls-12" d="M314.57,330.43s-.05.83-.12,1.58a13.45,13.45,0,0,0-.25,1.54,5.93,5.93,0,0,0,.26,2c.25.44.8-.06,1.32.08,4.94,1.35,5.63-1.78,5.63-1.78-.49-1.87.42-6.6.42-6.6" transform="translate(-14.13 -68.71)"/><path class="cls-12" d="M309.36,326.3a7.14,7.14,0,0,0,2.37,4,6.12,6.12,0,0,0,4.8,1,7.62,7.62,0,0,0,3.13-13.67c-2.22-1.62-7.77-2.88-10.15-1.23S308.75,323.8,309.36,326.3Z" transform="translate(-14.13 -68.71)"/><path class="cls-45" d="M322.61,325.56a7.81,7.81,0,0,1-6.08,5.81,6.35,6.35,0,0,1-4.38-.74,10.26,10.26,0,0,0,2.88.16,7.94,7.94,0,0,0,6.21-5.78c.66-2.89-1.18-6.3-3.58-8.05a5.9,5.9,0,0,0-.8-.49,7.71,7.71,0,0,1,2.79,1.23A7.79,7.79,0,0,1,322.61,325.56Z" transform="translate(-14.13 -68.71)"/><path class="cls-44" d="M305.74,316.36a4.66,4.66,0,0,0,4,3.75c1.95.26,5.72.25,7-1.22,0,1.94,3.56,5.63,5.34,6.21-.1,1.29-.26,2-.44,3.19.9.44,2.24-.78,2.76-1.63s2.43-6.18,1.93-8.56-1.52-4.39-3.95-4.26a5,5,0,0,0-9.09-2.37c.1-.15-1.37-.43-1.48-.45a4.34,4.34,0,0,0-1.83,0,5.91,5.91,0,0,0-2.92,1.77,5,5,0,0,0-1.35,2.79A3.21,3.21,0,0,0,305.74,316.36Z" transform="translate(-14.13 -68.71)"/><path class="cls-12" d="M319.25,321.67a.79.79,0,0,1,.27-.56,1.44,1.44,0,0,1,2.18.23c.65.93.44,4.82-1.2,3.64A3.72,3.72,0,0,1,319.25,321.67Z" transform="translate(-14.13 -68.71)"/><path class="cls-46" d="M321.28,331.79a14.21,14.21,0,0,1,1.57,2.22,22.52,22.52,0,0,1-2.43,1.82,47.33,47.33,0,0,1-4.85,2.49l-1.11-2.74S319.15,333.05,321.28,331.79Z" transform="translate(-14.13 -68.71)"/><path class="cls-46" d="M314.46,335.58a13.16,13.16,0,0,0-2.07,2.21,7.43,7.43,0,0,1,.07-3.73s1.14-1.77,2-2.05A12.39,12.39,0,0,0,314.46,335.58Z" transform="translate(-14.13 -68.71)"/><path class="cls-43" d="M324.35,346.07c.11,1.54.18,3.08.26,4.61s.12,3.08.32,4.58l-.25-.25c.84.06,1.69.14,2.53.18s1.7.05,2.55.07a41.43,41.43,0,0,0,5.1-.21,24.93,24.93,0,0,1-5.1.68c-.85,0-1.71,0-2.57,0s-1.71-.06-2.57-.15l-.23,0,0-.22a42.44,42.44,0,0,1-.18-4.64C324.19,349.15,324.23,347.61,324.35,346.07Z" transform="translate(-14.13 -68.71)"/><path class="cls-43" d="M304.74,344.12s0,1,.06,2.44c0,.73,0,1.58.06,2.49s0,1.89.08,2.86.05,1.94.1,2.85.07,1.76.12,2.49c.09,1.46.14,2.44.14,2.44l-.14-.66c-.09-.42-.22-1-.32-1.75s-.24-1.57-.3-2.49-.14-1.89-.18-2.86,0-2,0-2.88.08-1.77.12-2.5C304.58,345.09,304.74,344.12,304.74,344.12Z" transform="translate(-14.13 -68.71)"/><path class="cls-47" d="M288.9,434.82a7.25,7.25,0,0,1-.27,2.75c-.26.43-4.29.75-5.15,1a9,9,0,0,1-2.59.14c-2.25-.3-3.77-1.22-3.83-1.61-.23-1.64,4.28-1.2,7.32-4.6a.89.89,0,0,1,.56.51,1.49,1.49,0,0,0,1.72.83,4.45,4.45,0,0,0,1.61-1A4.83,4.83,0,0,1,288.9,434.82Z" transform="translate(-14.13 -68.71)"/><path class="cls-47" d="M302.5,434.82a7.68,7.68,0,0,1-.27,2.75c-.27.43-4.29.75-5.15,1a9.1,9.1,0,0,1-2.6.14c-2.25-.3-3.77-1.22-3.82-1.61-.24-1.64,4.27-1.2,7.31-4.6a.89.89,0,0,1,.56.51,1.49,1.49,0,0,0,1.72.83,4.45,4.45,0,0,0,1.61-1A4.77,4.77,0,0,1,302.5,434.82Z" transform="translate(-14.13 -68.71)"/><ellipse class="cls-4" cx="110.78" cy="367.81" rx="26.4" ry="2.66"/><path class="cls-48" d="M136.91,300.35l-5.44,23.88a1.13,1.13,0,0,0,.95,1.38L149.34,328a1.14,1.14,0,0,0,1.28-.88l5.43-23.87a1.13,1.13,0,0,0-1-1.38l-16.92-2.43A1.13,1.13,0,0,0,136.91,300.35Z" transform="translate(-14.13 -68.71)"/><polygon class="cls-49" points="123.83 232.42 118.63 255.28 135.43 257.69 140.63 234.83 123.83 232.42"/><line class="cls-50" x1="138.85" y1="236.51" x2="124.58" y2="234.46"/><line class="cls-50" x1="138.37" y1="238.67" x2="124.1" y2="236.62"/><line class="cls-50" x1="132.43" y1="240.46" x2="123.51" y2="239.18"/><line class="cls-50" x1="131.79" y1="242.32" x2="122.87" y2="241.04"/><line class="cls-50" x1="131.16" y1="244.18" x2="122.24" y2="242.9"/><line class="cls-50" x1="134.43" y1="254.44" x2="125.51" y2="253.16"/><path class="cls-51" d="M130.4,324.51a7.33,7.33,0,0,0,2.35-2.09l2-2.41a2,2,0,0,0,.57-1.07c-1.13-.09-1.85,1.38-3,1.46a23.64,23.64,0,0,1,2.24-5.32,1.63,1.63,0,0,0,.32-1.32,8.49,8.49,0,0,0-3.13,2.29,17.65,17.65,0,0,0-1.7,2.15,23.26,23.26,0,0,0-3,7.46" transform="translate(-14.13 -68.71)"/><path class="cls-12" d="M125.55,343.74l-12.08-10.19s-5.62,7.63-3.51,15c1.05,3.62,2.35,5.41,2.92,7.13s4.17,24.3,3.9,26-2.23,6.3-3,11.19c-.9,5.87-.75,25-1.44,30.08s4,5.93,4.25,4.21c2.2-14.67,8-37.53,8.83-44.86S125.93,361.47,125.55,343.74Z" transform="translate(-14.13 -68.71)"/><path class="cls-51" d="M125.58,358.2l-5.25,12.05A27.11,27.11,0,0,1,124,382.89c.08,2.33-.12,4.66-.06,7a3,3,0,0,0,.07.51c.71-3.45,1.23-6.29,1.44-8.14.57-5.19.58-13.42.39-24.05Z" transform="translate(-14.13 -68.71)"/><path class="cls-12" d="M117.43,422.39s-1.13,5.32-.82,6a9.3,9.3,0,0,0,2.5,3.36c1.17.75,3.76,1.64,4,2a.8.8,0,0,1-.15,1.09,5.35,5.35,0,0,1-3.69.94c-3.51-.58-3.88-2.14-5.92-2.38-.36-.05-1,.48-2,0a2.33,2.33,0,0,1-1.36-2.26,10,10,0,0,1,1.55-3.76c.59-1.08,1-6,1-6" transform="translate(-14.13 -68.71)"/><path class="cls-16" d="M123.2,435.06c.26-.44.33-1.1.09-1.26a19.26,19.26,0,0,0-2.19-1.32c-.68-.31-1.76-.59-1.38-.38s-.32,1-1,.93c-2.2-.13-3.82-1.6-5.07-1.91-1.81-.45-2.57-2.59-2.65-2.94a8.52,8.52,0,0,0-1.3,2.48,4.24,4.24,0,0,0-.27,1.89,4.34,4.34,0,0,1,.2,1.81,3.59,3.59,0,0,0,1.3.47,5.28,5.28,0,0,0,1.4,0l.16-1.14a5.11,5.11,0,0,1,1.12.11,6.24,6.24,0,0,1,1.71.8c.25.3.45.85.78,1a6.85,6.85,0,0,0,2.89.72C121.39,436.49,122.77,435.81,123.2,435.06Z" transform="translate(-14.13 -68.71)"/><path class="cls-12" d="M142,434.84c-.26-.29-3-.75-4.37-1.29a7.66,7.66,0,0,1-3.06-2.92c-.29-.71-.22-4.32-.19-5.84.27-10.45,2.2-36,2.47-42.08.49-10.63-.89-21.6-5-38.65l-15.22-11.69s-4.26,7.93-2.84,15.51c.83,4.39,4.48,5.07,5.1,6.78s9.82,29.25,9.82,29.25a51.85,51.85,0,0,0-1.89,12.49c-.09,5.57,2.43,22.37,2.9,28.77.06,1.25.27,4.24-.1,5.2-.45,1.16-1.6,2.54-1.54,4a2.26,2.26,0,0,0,1.73,2c1.08.34,1.68-.29,2-.3,2.15-.09,2.74,1.39,6.45,1.38a5.88,5.88,0,0,0,3.67-1.52A.78.78,0,0,0,142,434.84Z" transform="translate(-14.13 -68.71)"/><path class="cls-16" d="M142.36,436.14c.2-.47.18-1.14-.09-1.26a21.5,21.5,0,0,0-2.44-.94c-.75-.2-1.9-.3-1.48-.15s-.19,1-.86,1.08c-2.29.22-4.17-1-5.51-1.06-1.93-.15-2.64-2.14-2.77-2.47a8.88,8.88,0,0,0-1.36,2.66,4,4,0,0,0,0,1.92,4.09,4.09,0,0,1,.46,1.75,3.74,3.74,0,0,0,1.41.25,5.87,5.87,0,0,0,1.45-.21v-1.15a5.73,5.73,0,0,1,1.17-.08,3.94,3.94,0,0,1,1.88.67c.32.24.65.64,1,.73a7.73,7.73,0,0,0,3,.23C140.69,437.86,142,437,142.36,436.14Z" transform="translate(-14.13 -68.71)"/><path class="cls-21" d="M113.79,332.27c-1,1.13-4.72,7.27-4.76,12.26s1.74,8.2,1.9,9.24c1.17,7.63,2.3,16.83,2.3,17.33s4.33,3.39,10.15,3c10.76-.68,14.94-3.5,14.94-3.5s-.51-18.47-2.17-27.59c-.83-4.56-4.45-11.91-4.45-11.91" transform="translate(-14.13 -68.71)"/><path class="cls-12" d="M104,312.32s1.73,8.61,2.19,10.14,2.7,11.26,4.83,11.09,13.8-9.91,13.8-9.91l-1.65-3.31-10.27,4.9s-.93-11.12-1.74-13.77" transform="translate(-14.13 -68.71)"/><path class="cls-51" d="M107.94,317.62c1.09,3.84,3.32,7.89,4,10.87.14.6,7.25-2,7.27-4.66" transform="translate(-14.13 -68.71)"/><path class="cls-35" d="M110.93,300.38s-3.41.37-5.13,1.69c-4.41,3.37-1,15.6-1,15.6s-.22.65,2.74.49a21.42,21.42,0,0,0,5.33-1l-.86-10" transform="translate(-14.13 -68.71)"/><path class="cls-52" d="M107,307.31s-.37,7.19.93,10.82a11.9,11.9,0,0,0,2.41-.32Z" transform="translate(-14.13 -68.71)"/><path class="cls-12" d="M127.21,277.81c2,2.67,1.65,6.41,1.14,9.73-.26,1.68-.51,3.36-.77,5a2.52,2.52,0,0,1-3.24,2.66l0,4.17q-3.57.09-7.14,0a6.78,6.78,0,0,0-.62-2.83c-1.16,0-1.94-1.19-2.4-2.26a34.19,34.19,0,0,1-1.27-3.82,20.87,20.87,0,0,1-1-5.23,7.56,7.56,0,0,1,1.51-5,9.16,9.16,0,0,1,2.9-2.17c1.47-.77,3.24-1.37,4.77-.7" transform="translate(-14.13 -68.71)"/><path class="cls-16" d="M124.75,290.49a4.32,4.32,0,0,1,.2-3.11,2.14,2.14,0,0,1,.62-.8,1.34,1.34,0,0,1,1.27-.13,1.43,1.43,0,0,1,.64.6,18.11,18.11,0,0,0,.45-5.83,7.59,7.59,0,0,0-4.81-6.6c-5-2.07-12.28,0-14.33,4.92A12.25,12.25,0,0,0,111,291.8c2.62,2.77,6.39,3.18,9.87,2.61,1.78-.29,4.52-.12,5.44-2.54a.28.28,0,0,0-.28-.36C125.3,291.57,124.8,290.75,124.75,290.49Z" transform="translate(-14.13 -68.71)"/><path class="cls-16" d="M125.14,283.92c.18.29.14.68.31,1a2.35,2.35,0,0,0,1.22.94c.86.39.66,1.64.63,2.2.65-.43.75-1.6.91-2.19s.29-1.35.48-2a10.19,10.19,0,0,0,.58-1.93,7.92,7.92,0,0,0-3-6.39,4.21,4.21,0,0,0-4.72.05,3.71,3.71,0,0,0-1.34,1.71,1.15,1.15,0,0,0-.06.92" transform="translate(-14.13 -68.71)"/><path class="cls-46" d="M113.68,300.42c.13-.82.35-1.77,1.1-2.09a2.23,2.23,0,0,1,.67-.14,54.51,54.51,0,0,1,7-.33,6.42,6.42,0,0,1,2.82.49c1.36.68,2.1,2.14,2.76,3.51" transform="translate(-14.13 -68.71)"/><path class="cls-35" d="M133.34,330.27a20.31,20.31,0,0,1-1.34-1.58c-.64-1.27-1.21-6.61-1-8s1.53-2.25,2.11-5.5a12,12,0,0,0-1.93-8.84c-1.35-2-.55-2-1-4.38a2.38,2.38,0,0,0-.48-1.2,11.68,11.68,0,0,0-2.72-1.29c-3.77-.59-6-.13-9.81,0a32.36,32.36,0,0,0-5.62.71c-2,.45-3.84,1-4.26,3.78a28.05,28.05,0,0,0,1.21,12.74c.86,2.7,6,12.06,4.76,13.88a6.31,6.31,0,0,0-1.12,1.71c-.32,1.9,3.95,2.56,5.78,2.71a71.45,71.45,0,0,0,8.78-.05c2.12-.1,6.75-.84,7.08-3.46A1.88,1.88,0,0,0,133.34,330.27Z" transform="translate(-14.13 -68.71)"/><path class="cls-52" d="M132.54,316a7.79,7.79,0,0,1-.56,2.18,5.84,5.84,0,0,1-3.85.17,54.93,54.93,0,0,0-1.74-7.35S132.54,315.32,132.54,316Z" transform="translate(-14.13 -68.71)"/><path class="cls-16" d="M114.92,292.68a4,4,0,0,0-4,1.56c-1.12,1.34-1.6,3.42-.56,4.81a4.73,4.73,0,0,0,1.52,1.21,8,8,0,0,0,5.7,1.06,4.57,4.57,0,0,0,3.59-4.17c0-1.79-1.33-3.29-2.65-4.5" transform="translate(-14.13 -68.71)"/><path class="cls-12" d="M129.84,314.27s7,16.85,10,16.85c2.2,0,7.6-15.55,7.6-15.55L144,314l-3.8,6.51-3.85-12.15" transform="translate(-14.13 -68.71)"/><path class="cls-12" d="M143.34,315.11a6.66,6.66,0,0,0,1-3,12.9,12.9,0,0,1-.08-3.22,13.46,13.46,0,0,1,1.14-2.21c.33-.29,1.54-.75,1.83-.54s.67-.74,1.16-.66a1,1,0,0,1,.9.94c0,.46.65.54.74.86a4.56,4.56,0,0,0,.16.86c.12.25.49.13.61.74s0,.61,0,.9.29.26.21.81a7,7,0,0,1-.78,1.86,5.41,5.41,0,0,1-1.9,1.93,3.59,3.59,0,0,0-1.11,1.53" transform="translate(-14.13 -68.71)"/><path class="cls-16" d="M145.21,302.1a.41.41,0,0,0-.6-.17.54.54,0,0,0-.13.67l2.06,4.67s.17.19.49-.09.23-.46.23-.46S145.3,302.23,145.21,302.1Z" transform="translate(-14.13 -68.71)"/><path class="cls-51" d="M147.39,306.42a4.81,4.81,0,0,1-1.26,1.31c-.32.3-.28.5-.64.81.62-.05.52-.41,1.32-1a1.7,1.7,0,0,0,.83-1,.14.14,0,0,0-.25-.11Z" transform="translate(-14.13 -68.71)"/><path class="cls-35" d="M123.42,299.25c1.82.09,7.1-.83,10,2.24,2.46,2.57,3.87,9.32,4.86,12.06-2.46,2.51-4.84,4.54-8.57,3.72-.14-.11-2-5.94-3.34-6.46" transform="translate(-14.13 -68.71)"/><path class="cls-53" d="M125.44,374c-.68-4.44-4.93-18.18-5.11-18.56a16.65,16.65,0,0,1-4.61-5.13c-.52,3,.85,6,2.14,8.76,2.25,4.85,3.58,10.11,5.52,15.09" transform="translate(-14.13 -68.71)"/><rect class="cls-54" x="34.93" y="204.25" width="48.44" height="22.54" rx="3.31"/><path class="cls-26" d="M91.06,284.45l-21.41.07a.64.64,0,0,1-.65-.64h0a.65.65,0,0,1,.65-.65l21.4-.08a.65.65,0,0,1,.65.65h0A.65.65,0,0,1,91.06,284.45Z" transform="translate(-14.13 -68.71)"/><path class="cls-26" d="M91.06,281.23l-21.41.08a.65.65,0,0,1-.65-.65h0a.65.65,0,0,1,.65-.65l21.4-.07a.64.64,0,0,1,.65.64h0A.65.65,0,0,1,91.06,281.23Z" transform="translate(-14.13 -68.71)"/><path class="cls-26" d="M91.06,278.3l-21.41.08a.65.65,0,0,1-.65-.64h0a.65.65,0,0,1,.65-.65l21.4-.08a.65.65,0,0,1,.65.65h0A.64.64,0,0,1,91.06,278.3Z" transform="translate(-14.13 -68.71)"/><path class="cls-26" d="M86,287.29l-16.32.06a.64.64,0,0,1-.64-.64h0a.64.64,0,0,1,.64-.65L86,286a.65.65,0,0,1,.64.65h0A.64.64,0,0,1,86,287.29Z" transform="translate(-14.13 -68.71)"/><path class="cls-26" d="M65.19,286.63H52.5a.47.47,0,0,1-.46-.46v-8.58a.46.46,0,0,1,.46-.46H65.19a.46.46,0,0,1,.46.46v8.58A.47.47,0,0,1,65.19,286.63ZM53,285.72H64.74V278H53Z" transform="translate(-14.13 -68.71)"/><path class="cls-26" d="M62.87,289.53h-8.4a.34.34,0,0,1,0-.68h8.4a.34.34,0,1,1,0,.68Z" transform="translate(-14.13 -68.71)"/><path class="cls-26" d="M61.48,287.32H60.24l2.11,4.82a.56.56,0,0,0,.75.29.58.58,0,0,0,.3-.75Z" transform="translate(-14.13 -68.71)"/><path class="cls-26" d="M56.2,287.32l-1.91,4.36a.56.56,0,0,0,.29.75.59.59,0,0,0,.23.05.57.57,0,0,0,.52-.34l2.12-4.82Z" transform="translate(-14.13 -68.71)"/><rect class="cls-54" x="384.08" y="59.61" width="48.44" height="22.54" rx="3.31"/><rect class="cls-26" x="410.95" y="140.65" width="1.21" height="0.79" transform="translate(822.05 -22.34) rotate(148.51)"/><rect class="cls-26" x="405.2" y="132.83" width="2.93" height="0.64" transform="translate(808.86 -34.43) rotate(148.51)"/><path class="cls-26" d="M409,145.69l-.21-.37,2.17-1.78h2.64v-.87h-4.82v.87h1.27l-1.55,1.28-3.34-5.77,2.89-1.67,2,3.2a.45.45,0,0,0,.62.15l.92-.56a.45.45,0,0,0,.15-.63l-3.8-6.22-1.7,1,1,1.66-3.92,2.27-.19.1h0a1.46,1.46,0,0,0-.53,2l3.06,5.31h-3.84v1.69h13.91v-1.69Zm-1-9.57a.38.38,0,0,1,.38.38.39.39,0,1,1-.77,0A.38.38,0,0,1,408.05,136.12Zm-4.16,4.41a.83.83,0,1,1,.82-.82A.83.83,0,0,1,403.89,140.53Z" transform="translate(-14.13 -68.71)"/><path class="cls-26" d="M440.45,139.89l-21.64.08a.65.65,0,0,1-.65-.65h0a.65.65,0,0,1,.65-.66l21.64-.08a.66.66,0,0,1,.65.66h0A.64.64,0,0,1,440.45,139.89Z" transform="translate(-14.13 -68.71)"/><path class="cls-26" d="M440.45,136.64l-21.64.07a.64.64,0,0,1-.65-.65h0a.64.64,0,0,1,.65-.65l21.64-.08a.65.65,0,0,1,.65.65h0A.65.65,0,0,1,440.45,136.64Z" transform="translate(-14.13 -68.71)"/><path class="cls-26" d="M440.45,133.68l-21.64.08a.65.65,0,0,1-.65-.65h0a.65.65,0,0,1,.65-.66l21.64-.08a.65.65,0,0,1,.65.65h0A.64.64,0,0,1,440.45,133.68Z" transform="translate(-14.13 -68.71)"/><path class="cls-26" d="M431.52,142.77l-12.7.06a.66.66,0,0,1-.66-.65h0a.66.66,0,0,1,.65-.66l12.71-.06a.66.66,0,0,1,.66.65h0A.65.65,0,0,1,431.52,142.77Z" transform="translate(-14.13 -68.71)"/><path class="cls-19" d="M435.32,279.74a1.95,1.95,0,1,1-1.95-1.95A1.94,1.94,0,0,1,435.32,279.74Z" transform="translate(-14.13 -68.71)"/><path class="cls-19" d="M443.05,343.32a1.95,1.95,0,1,1-1.95-1.94A1.95,1.95,0,0,1,443.05,343.32Z" transform="translate(-14.13 -68.71)"/><path class="cls-55" d="M187.54,80.52a1.95,1.95,0,1,1-1.94-1.94A1.94,1.94,0,0,1,187.54,80.52Z" transform="translate(-14.13 -68.71)"/><path class="cls-19" d="M91.77,316a3.11,3.11,0,1,1-3.11-3.1A3.1,3.1,0,0,1,91.77,316Z" transform="translate(-14.13 -68.71)"/><path class="cls-55" d="M319,155.63a4.77,4.77,0,1,1-4.77-4.77A4.76,4.76,0,0,1,319,155.63Z" transform="translate(-14.13 -68.71)"/><path class="cls-55" d="M69.44,351.36a4.78,4.78,0,1,1-4.78-4.77A4.78,4.78,0,0,1,69.44,351.36Z" transform="translate(-14.13 -68.71)"/><path class="cls-55" d="M93.44,107.38a4.78,4.78,0,1,1-4.78-4.77A4.77,4.77,0,0,1,93.44,107.38Z" transform="translate(-14.13 -68.71)"/><path class="cls-55" d="M283.9,87.42a3.11,3.11,0,1,1-3.1-3.1A3.1,3.1,0,0,1,283.9,87.42Z" transform="translate(-14.13 -68.71)"/><path class="cls-56" d="M429.63,185.42a3.11,3.11,0,1,1-3.1-3.11A3.1,3.1,0,0,1,429.63,185.42Z" transform="translate(-14.13 -68.71)"/><path class="cls-19" d="M60.87,309.36a.62.62,0,0,1-.62-.62v-4.37a.62.62,0,0,1,1.24,0v4.37A.62.62,0,0,1,60.87,309.36Z" transform="translate(-14.13 -68.71)"/><path class="cls-19" d="M63.06,307.17H58.68a.62.62,0,0,1-.62-.62.62.62,0,0,1,.62-.62h4.38a.62.62,0,0,1,.62.62A.62.62,0,0,1,63.06,307.17Z" transform="translate(-14.13 -68.71)"/><g class="cls-57"><path class="cls-19" d="M90.33,231.41a.62.62,0,0,1-.62-.62v-4.37a.62.62,0,0,1,1.24,0v4.37A.62.62,0,0,1,90.33,231.41Z" transform="translate(-14.13 -68.71)"/><path class="cls-19" d="M92.52,229.23H88.14a.63.63,0,0,1,0-1.25h4.38a.63.63,0,0,1,0,1.25Z" transform="translate(-14.13 -68.71)"/></g><path class="cls-19" d="M412.32,119.18a.62.62,0,0,1-.62-.62v-4.37a.62.62,0,0,1,.62-.62.61.61,0,0,1,.62.62v4.37A.62.62,0,0,1,412.32,119.18Z" transform="translate(-14.13 -68.71)"/><path class="cls-19" d="M414.51,117h-4.37a.62.62,0,0,1,0-1.24h4.37a.62.62,0,1,1,0,1.24Z" transform="translate(-14.13 -68.71)"/><path class="cls-19" d="M55.84,172a.62.62,0,0,1-.62-.62V167a.62.62,0,0,1,.62-.62.62.62,0,0,1,.62.62v4.37A.61.61,0,0,1,55.84,172Z" transform="translate(-14.13 -68.71)"/><path class="cls-19" d="M58,169.79H53.66a.62.62,0,0,1-.62-.62.61.61,0,0,1,.62-.62H58a.62.62,0,0,1,.62.62A.62.62,0,0,1,58,169.79Z" transform="translate(-14.13 -68.71)"/></g></g></svg>