<svg xmlns="http://www.w3.org/2000/svg" xmlns:xlink="http://www.w3.org/1999/xlink" viewBox="0 0 364.42 273.61"><defs><style>.cls-1{isolation:isolate;}.cls-2{opacity:0.4;}.cls-3{fill:#ffb000;}.cls-4{fill:#7dc3ea;opacity:0.25;}.cls-5{fill:#ffc871;}.cls-6{fill:url(#Áåçûìÿííûé_ãðàäèåíò_3);}.cls-7{fill:url(#Áåçûìÿííûé_ãðàäèåíò_10);}.cls-8{fill:url(#Áåçûìÿííûé_ãðàäèåíò_13);}.cls-9{fill:#fff;}.cls-10{fill:url(#Áåçûìÿííûé_ãðàäèåíò_3-2);}.cls-11{fill:url(#Áåçûìÿííûé_ãðàäèåíò_10-2);}.cls-12{fill:url(#Áåçûìÿííûé_ãðàäèåíò_13-2);}.cls-13{fill:#396caa;}.cls-14{fill:url(#Áåçûìÿííûé_ãðàäèåíò_13-3);}.cls-15{fill:#d4ecff;}.cls-16{fill:#5793ce;}.cls-17{fill:url(#Áåçûìÿííûé_ãðàäèåíò_45);}.cls-18{fill:url(#Áåçûìÿííûé_ãðàäèåíò_46);}.cls-19{fill:#173d7a;}.cls-20,.cls-24{fill:#ffd278;}.cls-21{fill:#ff2c9c;}.cls-22{fill:#79b1e0;}.cls-23{fill:#ffbc45;}.cls-24{mix-blend-mode:multiply;}.cls-25{fill:#707bbf;}.cls-26{fill:#353b67;}.cls-27{fill:#f6f0e9;}.cls-28{fill:#f3c8b7;}.cls-29{fill:#5f72a1;}</style><radialGradient id="Áåçûìÿííûé_ãðàäèåíò_3" cx="72.73" cy="26.9" r="33.67" gradientUnits="userSpaceOnUse"><stop offset="0" stop-color="#274f89"/><stop offset="1" stop-color="#173d7a"/></radialGradient><linearGradient id="Áåçûìÿííûé_ãðàäèåíò_10" x1="52.28" y1="14.68" x2="111.85" y2="14.68" gradientUnits="userSpaceOnUse"><stop offset="0" stop-color="#d4ecff"/><stop offset="0.24" stop-color="#d0eafe"/><stop offset="0.46" stop-color="#c5e2f9"/><stop offset="0.67" stop-color="#b2d6f2"/><stop offset="0.88" stop-color="#98c4e7"/><stop offset="1" stop-color="#86b8e0"/></linearGradient><radialGradient id="Áåçûìÿííûé_ãðàäèåíò_13" cx="24.32" cy="-7.94" r="60.86" gradientUnits="userSpaceOnUse"><stop offset="0" stop-color="#699dd1"/><stop offset="0.27" stop-color="#6396cc"/><stop offset="0.64" stop-color="#5184bd"/><stop offset="1" stop-color="#396caa"/></radialGradient><radialGradient id="Áåçûìÿííûé_ãðàäèåíò_3-2" cx="22.17" cy="223.12" r="33.67" xlink:href="#Áåçûìÿííûé_ãðàäèåíò_3"/><linearGradient id="Áåçûìÿííûé_ãðàäèåíò_10-2" x1="1.72" y1="210.9" x2="61.3" y2="210.9" xlink:href="#Áåçûìÿííûé_ãðàäèåíò_10"/><radialGradient id="Áåçûìÿííûé_ãðàäèåíò_13-2" cx="-26.24" cy="188.28" r="60.86" xlink:href="#Áåçûìÿííûé_ãðàäèåíò_13"/><radialGradient id="Áåçûìÿííûé_ãðàäèåíò_13-3" cx="304.46" cy="197.11" r="39.39" xlink:href="#Áåçûìÿííûé_ãðàäèåíò_13"/><linearGradient id="Áåçûìÿííûé_ãðàäèåíò_45" x1="311.9" y1="184.48" x2="373.6" y2="221.26" gradientUnits="userSpaceOnUse"><stop offset="0" stop-color="#d4ecff"/><stop offset="0.2" stop-color="#d0eafe"/><stop offset="0.39" stop-color="#c5e2f9"/><stop offset="0.57" stop-color="#b2d6f2"/><stop offset="0.74" stop-color="#98c4e7"/><stop offset="0.84" stop-color="#86b8e0"/></linearGradient><radialGradient id="Áåçûìÿííûé_ãðàäèåíò_46" cx="175.04" cy="233.71" r="142.08" gradientUnits="userSpaceOnUse"><stop offset="0" stop-color="#396caa"/><stop offset="0.36" stop-color="#5184bd"/><stop offset="0.73" stop-color="#6396cc"/><stop offset="1" stop-color="#699dd1"/></radialGradient></defs><g class="cls-1"><g id="Ñëîé_1" data-name="Ñëîé 1"><g class="cls-2"><path class="cls-3" d="M330.41,116.1l-24.8-14.31,24.8-14.31,24.79,14.31Zm-23-14.31,23,13.3,23-13.3-23-13.3Z" transform="translate(-24.69 -25.04)"/><path class="cls-3" d="M282.58,116.1l-24.8-14.31,24.8-14.31.22.12,24.57,14.19Zm-23-14.31,23,13.3,23-13.3-23-13.3Z" transform="translate(-24.69 -25.04)"/><path class="cls-3" d="M306.49,129.91,281.7,115.6l24.79-14.32,24.79,14.32Zm-23-14.31,23,13.3,23-13.3-23-13.3Z" transform="translate(-24.69 -25.04)"/><path class="cls-3" d="M330.41,143.72l-.22-.13L305.61,129.4l24.8-14.31.21.13L355.2,129.4Zm-23-14.32,23,13.3,23-13.3-23-13.3Z" transform="translate(-24.69 -25.04)"/><path class="cls-3" d="M234.75,116.1l-.22-.12L210,101.79l24.79-14.32.22.13,24.57,14.19Zm-23-14.31,23,13.3,23-13.3-23-13.3Z" transform="translate(-24.69 -25.04)"/><path class="cls-3" d="M258.66,129.91l-.22-.13L233.87,115.6l24.79-14.32,24.79,14.32Zm-23-14.31,23,13.3,23-13.3-23-13.3Z" transform="translate(-24.69 -25.04)"/><path class="cls-3" d="M282.58,143.72l-.22-.13L257.79,129.4l24.79-14.31,24.79,14.31Zm-23-14.32,23,13.3,23-13.3-23-13.3Z" transform="translate(-24.69 -25.04)"/><path class="cls-3" d="M306.49,157.52,281.7,143.21l24.79-14.31.22.12,24.57,14.19Zm-23-14.31,23,13.3,23-13.3-23-13.3Z" transform="translate(-24.69 -25.04)"/><path class="cls-3" d="M330.41,171.33l-.22-.13L305.61,157l24.8-14.32.22.13L355.2,157Zm-23-14.31,23,13.3,23-13.3-23-13.3Z" transform="translate(-24.69 -25.04)"/><path class="cls-3" d="M186.92,116.1l-24.79-14.31,24.79-14.32.22.13,24.57,14.19Zm-23-14.31,23,13.3,23-13.3-23-13.3Z" transform="translate(-24.69 -25.04)"/><path class="cls-3" d="M210.83,129.91l-.22-.13L186,115.6l24.79-14.32.22.13,24.58,14.19Zm-23-14.31,23,13.3,23-13.3-23-13.3Z" transform="translate(-24.69 -25.04)"/><path class="cls-3" d="M234.75,143.72l-.22-.13L210,129.4l24.79-14.31.22.13,24.57,14.18Zm-23-14.32,23,13.3,23-13.3-23-13.3Z" transform="translate(-24.69 -25.04)"/><path class="cls-3" d="M258.66,157.52l-.22-.12-24.57-14.19,24.79-14.31.22.12,24.58,14.19Zm-23-14.31,23,13.3,23-13.3-23-13.3Z" transform="translate(-24.69 -25.04)"/><path class="cls-3" d="M282.58,171.33,257.79,157l24.79-14.32L307.37,157Zm-23-14.31,23,13.3,23-13.3-23-13.3Z" transform="translate(-24.69 -25.04)"/><path class="cls-3" d="M306.49,185.14,281.7,170.82l24.79-14.31.22.13,24.57,14.18Zm-23-14.32,23,13.3,23-13.3-23-13.3Z" transform="translate(-24.69 -25.04)"/><path class="cls-3" d="M330.41,199l-.22-.13-24.57-14.19,24.79-14.31.22.12,24.57,14.19Zm-23-14.32,23,13.3,23-13.3-23-13.3Z" transform="translate(-24.69 -25.04)"/><path class="cls-3" d="M139.09,116.1l-.22-.13L114.3,101.79l24.79-14.32.22.13,24.57,14.19Zm-23-14.31,23,13.3,23-13.3-23-13.3Z" transform="translate(-24.69 -25.04)"/><path class="cls-3" d="M163,129.91l-.21-.13-24.58-14.19L163,101.28l24.8,14.32Zm-23-14.32,23,13.3,23-13.29-23-13.31Z" transform="translate(-24.69 -25.04)"/><path class="cls-3" d="M186.92,143.72l-.22-.13L162.13,129.4l24.79-14.31.22.13,24.57,14.18Zm-23-14.32,23,13.3,23-13.3-23-13.3Z" transform="translate(-24.69 -25.04)"/><path class="cls-3" d="M210.83,157.52,186,143.21l24.79-14.31.22.12,24.58,14.19Zm-23-14.31,23,13.3,23-13.3-23-13.3Z" transform="translate(-24.69 -25.04)"/><path class="cls-3" d="M234.75,171.33l-.22-.13L210,157l24.79-14.32.22.13L259.54,157Zm-23-14.31,23,13.3,23-13.3-23-13.3Z" transform="translate(-24.69 -25.04)"/><path class="cls-3" d="M258.66,185.14l-24.79-14.32,24.79-14.31,24.8,14.31Zm-23-14.32,23,13.3,23-13.3-23-13.3Z" transform="translate(-24.69 -25.04)"/><path class="cls-3" d="M282.58,198.94l-.22-.12-24.57-14.19,24.79-14.31,24.79,14.31Zm-23-14.31,23,13.3,23-13.3-23-13.3Z" transform="translate(-24.69 -25.04)"/><path class="cls-3" d="M306.49,212.75l-.22-.13L281.7,198.44l24.79-14.32.22.13,24.58,14.19Zm-23-14.31,23,13.3,23-13.3-23-13.3Z" transform="translate(-24.69 -25.04)"/><path class="cls-3" d="M330.41,226.56l-24.79-14.31,24.79-14.32.22.13,24.57,14.19Zm-23-14.31,23,13.3,23-13.3-23-13.3Z" transform="translate(-24.69 -25.04)"/><path class="cls-3" d="M91.26,116.1,91,116,66.47,101.79,91.26,87.47l.22.13,24.57,14.19Zm-23-14.31,23,13.3,23-13.3-23-13.3Z" transform="translate(-24.69 -25.04)"/><path class="cls-3" d="M115.18,129.91l-24.8-14.32,24.79-14.31.22.13L140,115.59Zm-23-14.32,23,13.3,23-13.3-23-13.3Z" transform="translate(-24.69 -25.04)"/><path class="cls-3" d="M139.09,143.72l-.22-.13L114.3,129.4l24.79-14.31.22.12,24.57,14.19Zm-23-14.32,23,13.3,23-13.3-23-13.3Z" transform="translate(-24.69 -25.04)"/><path class="cls-3" d="M163,157.52l-.22-.12-24.58-14.19L163,128.89l.22.13,24.58,14.19Zm-23-14.31,23,13.3,23-13.3-23-13.3Z" transform="translate(-24.69 -25.04)"/><path class="cls-3" d="M186.92,171.33l-.22-.13L162.13,157l24.79-14.32L211.71,157Zm-23-14.31,23,13.3L210,157l-23-13.3Z" transform="translate(-24.69 -25.04)"/><path class="cls-3" d="M210.84,185.14l-.22-.13L186,170.82l24.79-14.31.22.13,24.58,14.18Zm-23-14.32,23,13.3,23-13.3-23-13.3Z" transform="translate(-24.69 -25.04)"/><path class="cls-3" d="M234.75,198.94,210,184.63l24.79-14.31,24.79,14.31Zm-23-14.31,23,13.3,23-13.3-23-13.3Z" transform="translate(-24.69 -25.04)"/><path class="cls-3" d="M258.66,212.75l-24.79-14.31,24.79-14.32.22.13,24.58,14.19Zm-23-14.31,23,13.3,23-13.3-23-13.3Z" transform="translate(-24.69 -25.04)"/><path class="cls-3" d="M282.58,226.56l-.22-.13-24.57-14.18,24.79-14.32.22.13,24.57,14.19Zm-23-14.31,23,13.3,23-13.3-23-13.31Z" transform="translate(-24.69 -25.04)"/><path class="cls-3" d="M306.49,240.37l-.21-.13L281.7,226.05l24.79-14.31,24.8,14.31Zm-23-14.32,23,13.3,23-13.3-23-13.3Z" transform="translate(-24.69 -25.04)"/><path class="cls-3" d="M330.41,254.17l-24.79-14.31,24.79-14.31.22.12,24.57,14.19Zm-23-14.31,23,13.3,23-13.3-23-13.3Z" transform="translate(-24.69 -25.04)"/><path class="cls-3" d="M91.26,143.71l-.22-.12L66.47,129.4l24.79-14.31,24.79,14.31Zm-23-14.31,23,13.3,23-13.3-23-13.3Z" transform="translate(-24.69 -25.04)"/><path class="cls-3" d="M115.18,157.52l-24.8-14.31,24.8-14.32.21.13L140,143.21Zm-23-14.31,23,13.3,23-13.3-23-13.3Z" transform="translate(-24.69 -25.04)"/><path class="cls-3" d="M139.09,171.33l-.22-.13L114.3,157l24.79-14.32.22.13L163.88,157Zm-23-14.31,23,13.3,23-13.3-23-13.3Z" transform="translate(-24.69 -25.04)"/><path class="cls-3" d="M163,185.14l-.22-.13-24.58-14.19L163,156.51l.21.13,24.58,14.18Zm-23-14.32,23,13.3,23-13.3-23-13.3Z" transform="translate(-24.69 -25.04)"/><path class="cls-3" d="M186.92,198.94l-.22-.12-24.57-14.19,24.79-14.31.22.12,24.57,14.19Zm-23-14.31,23,13.3,23-13.3-23-13.3Z" transform="translate(-24.69 -25.04)"/><path class="cls-3" d="M210.84,212.75l-.22-.13L186,198.44l24.8-14.32,24.79,14.32Zm-23-14.31,23,13.3,23-13.3-23-13.3Z" transform="translate(-24.69 -25.04)"/><path class="cls-3" d="M234.75,226.56,210,212.24l24.79-14.31,24.79,14.32Zm-23-14.32,23,13.31,23-13.3-23-13.31Z" transform="translate(-24.69 -25.04)"/><path class="cls-3" d="M258.67,240.37l-.22-.13-24.58-14.19,24.79-14.31.22.13,24.58,14.18Zm-23-14.32,23,13.3,23-13.3-23-13.3Z" transform="translate(-24.69 -25.04)"/><path class="cls-3" d="M282.58,254.17l-.22-.12-24.57-14.19,24.79-14.31.22.12,24.57,14.19Zm-23-14.31,23,13.3,23-13.3-23-13.3Z" transform="translate(-24.69 -25.04)"/><path class="cls-3" d="M306.5,268l-.22-.13L281.7,253.67l24.79-14.32,24.8,14.32Zm-23-14.31,23,13.3,23-13.3-23-13.3Z" transform="translate(-24.69 -25.04)"/><path class="cls-3" d="M330.41,281.79l-.22-.13-24.57-14.19,24.79-14.31.22.13,24.57,14.18Zm-23-14.32,23,13.3,23-13.3-23-13.3Z" transform="translate(-24.69 -25.04)"/><path class="cls-3" d="M91.26,171.33,91,171.2,66.47,157,91.26,142.7,116.05,157ZM68.22,157l23,13.3,23-13.3-23-13.31Z" transform="translate(-24.69 -25.04)"/><path class="cls-3" d="M115.18,185.14,115,185,90.38,170.82l24.8-14.31.22.13L140,170.82Zm-23-14.32,23,13.3,23-13.3-23-13.3Z" transform="translate(-24.69 -25.04)"/><path class="cls-3" d="M139.09,198.94,114.3,184.63l24.79-14.31.22.12,24.57,14.19Zm-23-14.31,23,13.3,23-13.3-23-13.3Z" transform="translate(-24.69 -25.04)"/><path class="cls-3" d="M163,212.75l-.22-.13-24.58-14.18L163,184.12l.22.13,24.57,14.19Zm-23-14.31,23,13.3,23-13.3-23-13.3Z" transform="translate(-24.69 -25.04)"/><path class="cls-3" d="M186.92,226.56l-.22-.13-24.57-14.19,24.79-14.31.22.13,24.57,14.18Zm-23-14.32,23,13.3,23-13.3-23-13.3Z" transform="translate(-24.69 -25.04)"/><path class="cls-3" d="M210.84,240.37,186,226.05l24.8-14.31,24.79,14.31Zm-23-14.32,23,13.3,23-13.3-23-13.3Z" transform="translate(-24.69 -25.04)"/><path class="cls-3" d="M234.75,254.17l-.22-.12L210,239.86l24.79-14.31.22.12,24.57,14.19Zm-23-14.31,23,13.3,23-13.3-23-13.3Z" transform="translate(-24.69 -25.04)"/><path class="cls-3" d="M258.67,268l-24.8-14.31,24.8-14.32.21.13,24.58,14.19Zm-23-14.31,23,13.3,23-13.3-23-13.3Z" transform="translate(-24.69 -25.04)"/><path class="cls-3" d="M282.58,281.79l-.22-.13-24.57-14.19,24.79-14.31.22.13,24.57,14.18Zm-23-14.32,23,13.3,23-13.3-23-13.3Z" transform="translate(-24.69 -25.04)"/><path class="cls-3" d="M91.26,198.94l-.22-.12L66.47,184.63l24.79-14.31.22.12,24.57,14.19Zm-23-14.31,23,13.3,23-13.3-23-13.3Z" transform="translate(-24.69 -25.04)"/><path class="cls-3" d="M115.18,212.75l-.22-.13L90.39,198.44l24.79-14.32L140,198.44Zm-23-14.31,23,13.3,23-13.3-23-13.3Z" transform="translate(-24.69 -25.04)"/><path class="cls-3" d="M139.09,226.56,114.3,212.24l24.79-14.31.22.13,24.57,14.18Zm-23-14.32,23,13.3,23-13.3-23-13.3Z" transform="translate(-24.69 -25.04)"/><path class="cls-3" d="M163,240.37l-.22-.13-24.57-14.19L163,211.74l.22.12,24.57,14.19Zm-23-14.32,23,13.3,23-13.3-23-13.3Z" transform="translate(-24.69 -25.04)"/><path class="cls-3" d="M186.92,254.17l-.22-.12-24.57-14.19,24.79-14.32,24.79,14.32Zm-23-14.31,23,13.3,23-13.3-23-13.3Z" transform="translate(-24.69 -25.04)"/><path class="cls-3" d="M210.84,268l-24.79-14.31,24.79-14.32.22.13,24.57,14.19Zm-23-14.31,23,13.3,23-13.3-23-13.3Z" transform="translate(-24.69 -25.04)"/><path class="cls-3" d="M234.75,281.79l-.22-.13L210,267.47l24.79-14.31,24.79,14.31Zm-23-14.32,23,13.3,23-13.3-23-13.3Z" transform="translate(-24.69 -25.04)"/><path class="cls-3" d="M91.26,226.56l-.22-.13L66.47,212.24l24.79-14.31.22.13,24.58,14.18Zm-23-14.32,23,13.3,23-13.3-23-13.3Z" transform="translate(-24.69 -25.04)"/><path class="cls-3" d="M115.18,240.36l-.22-.12L90.39,226.05l24.79-14.31L140,226.05Zm-23-14.31,23,13.3,23-13.3-23-13.3Z" transform="translate(-24.69 -25.04)"/><path class="cls-3" d="M139.09,254.17l-.22-.13L114.3,239.86l24.79-14.32.22.13,24.58,14.19Zm-23-14.31,23,13.3,23-13.3-23-13.3Z" transform="translate(-24.69 -25.04)"/><path class="cls-3" d="M163,268l-24.79-14.32L163,239.35l.22.13,24.57,14.19Zm-23-14.32L163,267l23-13.3-23-13.3Z" transform="translate(-24.69 -25.04)"/><path class="cls-3" d="M186.92,281.79l-24.79-14.32,24.79-14.31,24.79,14.31Zm-23-14.32,23,13.3,23-13.3-23-13.3Z" transform="translate(-24.69 -25.04)"/><path class="cls-3" d="M91.26,254.17l-.21-.13L66.47,239.86l24.79-14.32.22.13,24.58,14.19Zm-23-14.31,23,13.3,23-13.3-23-13.3Z" transform="translate(-24.69 -25.04)"/><path class="cls-3" d="M115.18,268l-.22-.13L90.39,253.66l24.79-14.31.22.13L140,253.66Zm-23-14.32,23,13.31,23-13.31-23-13.3Z" transform="translate(-24.69 -25.04)"/><path class="cls-3" d="M139.09,281.79l-.21-.13L114.3,267.47l24.79-14.31,24.8,14.31Zm-23-14.32,23,13.3,23-13.3-23-13.3Z" transform="translate(-24.69 -25.04)"/><path class="cls-3" d="M91.27,281.79l-.22-.13L66.47,267.47l24.79-14.31.22.12,24.58,14.19Zm-23-14.32,23,13.3,23-13.3-23-13.3Z" transform="translate(-24.69 -25.04)"/></g><polygon class="cls-4" points="74.87 73.79 52.27 60.75 74.86 47.71 97.46 60.75 74.87 73.79"/><path class="cls-5" d="M99.55,90.76a1.79,1.79,0,0,1-.86-.23l-22.59-13a1.71,1.71,0,0,1,0-3l22.59-13a1.71,1.71,0,0,1,1.72,0l22.59,13a1.72,1.72,0,0,1,0,3l-22.59,13A1.73,1.73,0,0,1,99.55,90.76ZM80.4,76,99.55,87.06,118.71,76,99.55,64.94Z" transform="translate(-24.69 -25.04)"/><polygon class="cls-6" points="97.46 40.76 74.87 53.8 74.87 27.72 97.46 14.68 97.46 40.76"/><polygon class="cls-7" points="74.87 27.72 52.28 14.68 74.86 1.64 97.45 14.68 74.87 27.72"/><polygon class="cls-8" points="74.87 53.8 52.28 40.76 52.28 14.68 74.87 27.72 74.87 53.8"/><polygon class="cls-9" points="66.73 39.71 60.41 36.07 60.41 28.77 66.73 32.42 66.73 39.71"/><polygon class="cls-4" points="24.31 270.01 1.72 256.97 24.31 243.93 46.9 256.97 24.31 270.01"/><path class="cls-5" d="M49,287a1.72,1.72,0,0,1-.85-.23l-22.59-13a1.72,1.72,0,0,1,0-3l22.59-13a1.69,1.69,0,0,1,1.71,0l22.59,13a1.72,1.72,0,0,1,0,3l-22.59,13A1.73,1.73,0,0,1,49,287ZM29.84,272.22,49,283.28l19.16-11.06L49,261.16Z" transform="translate(-24.69 -25.04)"/><polygon class="cls-10" points="46.9 236.99 24.31 250.03 24.31 223.94 46.9 210.9 46.9 236.99"/><polygon class="cls-11" points="24.31 223.94 1.72 210.9 24.31 197.86 46.9 210.9 24.31 223.94"/><polygon class="cls-12" points="24.31 250.03 1.72 236.99 1.72 210.9 24.31 223.94 24.31 250.03"/><polygon class="cls-9" points="16.17 235.94 9.85 232.29 9.85 224.99 16.17 228.64 16.17 235.94"/><path class="cls-4" d="M334.94,252l-31.17-18c-1.91-1.11-1.67-3,.54-4.31l30.09-17.37c2.21-1.28,5.55-1.42,7.46-.31L373,230c1.91,1.1,1.67,3-.54,4.31L342.4,251.71A8.29,8.29,0,0,1,334.94,252Z" transform="translate(-24.69 -25.04)"/><path class="cls-5" d="M338.19,244.7a8.42,8.42,0,0,1-4.14-1l-31.16-18a4,4,0,0,1-2.18-3.4,4.76,4.76,0,0,1,2.71-4L333.51,201a10,10,0,0,1,9.24-.3l31.16,18a4,4,0,0,1,2.18,3.4,4.75,4.75,0,0,1-2.72,4L343.28,243.4A10.36,10.36,0,0,1,338.19,244.7Zm.45-41.49a7,7,0,0,0-3.36.82l-30.09,17.38c-.75.43-.94.83-.94.9a1.1,1.1,0,0,0,.41.34l31.16,18a6.56,6.56,0,0,0,5.69-.31L371.61,223c.75-.44.93-.83.94-.91a1.1,1.1,0,0,0-.41-.34l-31.16-18A4.88,4.88,0,0,0,338.64,203.21Z" transform="translate(-24.69 -25.04)"/><path class="cls-13" d="M374.31,211h0V200.27H350.2l-8.34-4.81c-1.91-1.11-5.25-1-7.46.31l-7.78,4.49-24.13,0v11.06a2.17,2.17,0,0,0,1.28,2l31.17,18c1.91,1.1,5.25,1,7.46-.31l30.09-17.38C373.76,212.87,374.38,211.91,374.31,211Z" transform="translate(-24.69 -25.04)"/><path class="cls-14" d="M338.4,194.71a8.6,8.6,0,0,0-4,1l-7.78,4.49-24.13,0v11.06a2.17,2.17,0,0,0,1.28,2l31.17,18a6.73,6.73,0,0,0,3.46.74Z" transform="translate(-24.69 -25.04)"/><path class="cls-15" d="M305.22,200.24h-2.73v11.06a2.17,2.17,0,0,0,1.28,2l1.45.84Z" transform="translate(-24.69 -25.04)"/><path class="cls-16" d="M335.42,231.52a8.45,8.45,0,0,0,6-.07V218.9h-6Z" transform="translate(-24.69 -25.04)"/><path class="cls-17" d="M334.94,220.27l-31.17-18c-1.91-1.1-1.67-3,.54-4.3l30.09-17.38c2.21-1.27,5.55-1.41,7.46-.31l31.17,18c1.91,1.1,1.67,3-.54,4.3L342.4,220C340.19,221.23,336.85,221.37,334.94,220.27Z" transform="translate(-24.69 -25.04)"/><path class="cls-9" d="M372.49,200.47,342.4,217.84a8.29,8.29,0,0,1-7.46.31l-31.17-18a2.85,2.85,0,0,1-.95-.85,2,2,0,0,0,.95,3l31.17,18c1.91,1.1,5.25,1,7.46-.31l30.09-17.38c1.72-1,2.24-2.37,1.49-3.46A4.22,4.22,0,0,1,372.49,200.47Z" transform="translate(-24.69 -25.04)"/><path class="cls-15" d="M362.84,213.86a2.81,2.81,0,0,1-1.25,2.19c-.7.4-1.26.07-1.26-.73a2.77,2.77,0,0,1,1.26-2.18C362.28,212.74,362.84,213.06,362.84,213.86Z" transform="translate(-24.69 -25.04)"/><path class="cls-15" d="M366.89,211.53a2.79,2.79,0,0,1-1.25,2.18c-.7.4-1.26.07-1.26-.73a2.77,2.77,0,0,1,1.26-2.18C366.33,210.4,366.89,210.72,366.89,211.53Z" transform="translate(-24.69 -25.04)"/><path class="cls-15" d="M370.94,209.19a2.79,2.79,0,0,1-1.25,2.18c-.7.4-1.26.07-1.26-.73a2.77,2.77,0,0,1,1.26-2.18C370.38,208.06,370.94,208.39,370.94,209.19Z" transform="translate(-24.69 -25.04)"/><path class="cls-16" d="M336.78,209.11l-14.58-8.42c-.9-.52-.79-1.42.25-2l14.08-8.13a3.86,3.86,0,0,1,3.49-.15l14.58,8.42c.9.52.79,1.42-.25,2L340.27,209A3.89,3.89,0,0,1,336.78,209.11Z" transform="translate(-24.69 -25.04)"/><path class="cls-15" d="M338.17,202.06l-2-1.16c-.13-.08-.11-.2,0-.28l1.95-1.13a.54.54,0,0,1,.48,0l2,1.17c.12.07.11.19,0,.28L338.66,202A.56.56,0,0,1,338.17,202.06Z" transform="translate(-24.69 -25.04)"/><path class="cls-13" d="M322.2,200.69l0,0,.21-.15,14.08-8.13a3.86,3.86,0,0,1,3.49-.14l14.54,8.39c.83-.59.87-1.39,0-1.87L340,190.4a3.86,3.86,0,0,0-3.49.15l-14.08,8.13C321.41,199.27,321.3,200.17,322.2,200.69Z" transform="translate(-24.69 -25.04)"/><path class="cls-4" d="M376.5,142.07,279.11,85.68c-5.29-3.07-14.54-2.7-20.66.82L54.06,204.13c-6.12,3.52-6.79,8.86-1.5,11.93L150,272.45c5.29,3.07,14.54,2.7,20.66-.83L375,154C381.12,150.48,381.79,145.14,376.5,142.07Z" transform="translate(-24.69 -25.04)"/><path class="cls-5" d="M159,262.48a20,20,0,0,1-9.88-2.32l-97.39-56.4c-2.85-1.65-4.42-4-4.42-6.66,0-3.06,2.16-6,5.92-8.21L257.6,71.26c6.69-3.85,16.52-4.21,22.37-.83l97.39,56.4c2.85,1.65,4.42,4,4.41,6.66,0,3.06-2.16,6-5.92,8.22L171.46,259.33A25.54,25.54,0,0,1,159,262.48ZM270.14,71.55a22.54,22.54,0,0,0-10.84,2.66L54.91,191.84c-2.63,1.52-4.21,3.49-4.21,5.26s1.48,3,2.72,3.71l97.39,56.4c4.73,2.74,13.41,2.36,18.95-.83L374.15,138.75c2.64-1.52,4.21-3.48,4.21-5.26s-1.47-3-2.71-3.71l-97.39-56.4A16.63,16.63,0,0,0,270.14,71.55Z" transform="translate(-24.69 -25.04)"/><path class="cls-18" d="M147.12,237.79,45.76,179.1c-3.33-1.93-4.88-4.53-4.77-7.23h0l0-14.71,5.64,6.6c.36-.24.73-.48,1.13-.71L255.12,43.74c8.23-4.74,20.67-5.24,27.79-1.12l99.93,57.87c2-2.21,6.26-6.89,6.26-6.89l0,14.39h0c.15,3.25-2.16,6.7-6.8,9.38L174.91,236.68C166.68,241.42,154.24,241.92,147.12,237.79Z" transform="translate(-24.69 -25.04)"/><path class="cls-19" d="M92.31,201.79l5.84,3.37c.77.45,1.4,0,1.4-1.06h0a3.38,3.38,0,0,0-1.4-2.69L92.31,198c-.77-.44-1.4,0-1.4,1.07h0A3.38,3.38,0,0,0,92.31,201.79Z" transform="translate(-24.69 -25.04)"/><path class="cls-13" d="M255.12,43.74c8.23-4.74,20.67-5.24,27.79-1.12l99.93,57.87c2-2.21,6.26-6.89,6.26-6.89l0,14.39h0c.15,3.25-2.16,6.7-6.8,9.38L174.91,236.68a32.1,32.1,0,0,1-15,3.89l.2-142.17Z" transform="translate(-24.69 -25.04)"/><path class="cls-15" d="M384.31,86.53,283,27.84c-7.11-4.13-19.56-3.63-27.79,1.11L47.82,148.27c-8.23,4.74-9.13,11.92-2,16L147.16,223c7.12,4.12,19.56,3.62,27.79-1.12L382.29,102.57C390.52,97.83,391.42,90.65,384.31,86.53Z" transform="translate(-24.69 -25.04)"/><path class="cls-9" d="M147.08,224.58,45.73,165.88c-3.67-2.12-5.19-5.06-4.69-8.06.18,2.44,1.74,4.74,4.77,6.5L147.16,223c7.12,4.12,19.56,3.62,27.79-1.12L382.29,102.57c4-2.29,6.24-5.16,6.71-8,.24,3.3-2.06,6.83-6.79,9.55L174.87,223.46C166.64,228.2,154.2,228.7,147.08,224.58Z" transform="translate(-24.69 -25.04)"/><path class="cls-20" d="M376.5,88.84,279.11,32.45c-5.29-3.07-14.54-2.7-20.66.82L54.06,150.9c-6.12,3.52-6.79,8.86-1.5,11.93L150,219.22c5.29,3.07,14.54,2.7,20.66-.83L375,100.77C381.12,97.25,381.79,91.91,376.5,88.84Z" transform="translate(-24.69 -25.04)"/><polygon class="cls-15" points="149.8 164.89 81.07 125.21 85.46 122.68 154.18 162.35 149.8 164.89"/><polygon class="cls-15" points="101.98 153.32 67.18 133.23 71.57 130.7 106.37 150.79 101.98 153.32"/><polygon class="cls-21" points="118.87 163.07 107.58 156.55 111.97 154.02 123.25 160.54 118.87 163.07"/><polygon class="cls-9" points="135.91 172.91 124.62 166.39 129.01 163.86 140.29 170.37 135.91 172.91"/><polygon class="cls-9" points="102.37 145.52 74.13 129.22 78.51 126.69 106.76 142.99 102.37 145.52"/><polygon class="cls-15" points="136.84 165.43 108.6 149.12 112.99 146.59 141.23 162.9 136.84 165.43"/><path class="cls-21" d="M140.62,155.62a5.7,5.7,0,0,1-5.12,0c-1.41-.82-1.41-2.14,0-3a5.7,5.7,0,0,1,5.12,0C142,153.48,142,154.8,140.62,155.62Z" transform="translate(-24.69 -25.04)"/><path class="cls-9" d="M148.27,160a5.64,5.64,0,0,1-5.12,0c-1.41-.81-1.41-2.14,0-2.95a5.64,5.64,0,0,1,5.12,0C149.68,157.89,149.68,159.22,148.27,160Z" transform="translate(-24.69 -25.04)"/><path class="cls-15" d="M155.92,164.45a5.7,5.7,0,0,1-5.12,0c-1.42-.82-1.42-2.14,0-3a5.7,5.7,0,0,1,5.12,0C157.33,162.31,157.33,163.63,155.92,164.45Z" transform="translate(-24.69 -25.04)"/><path class="cls-21" d="M163.56,168.86a5.64,5.64,0,0,1-5.12,0c-1.41-.81-1.41-2.14,0-3a5.64,5.64,0,0,1,5.12,0C165,166.72,165,168.05,163.56,168.86Z" transform="translate(-24.69 -25.04)"/><path class="cls-9" d="M171.21,173.28a5.7,5.7,0,0,1-5.12,0c-1.41-.82-1.41-2.14,0-3a5.7,5.7,0,0,1,5.12,0C172.62,171.14,172.62,172.46,171.21,173.28Z" transform="translate(-24.69 -25.04)"/><polygon class="cls-21" points="300.22 64.23 288.65 57.55 293.15 54.96 304.72 61.64 300.22 64.23"/><polygon class="cls-9" points="316.33 73.54 304.76 66.86 309.26 64.26 320.83 70.94 316.33 73.54"/><polygon class="cls-9" points="248.54 34.11 236.97 27.43 241.47 24.84 253.04 31.52 248.54 34.11"/><polygon class="cls-9" points="297.64 70.97 281.53 61.66 286.03 59.07 302.14 68.37 297.64 70.97"/><polygon class="cls-15" points="309.21 77.65 302.14 73.56 306.64 70.97 313.71 75.05 309.21 77.65"/><polygon class="cls-22" points="189.24 140.25 121.04 100.88 122.85 99.83 191.05 139.21 189.24 140.25"/><polygon class="cls-15" points="143.04 114.72 120.05 101.45 123.83 99.26 146.82 112.53 143.04 114.72"/><polygon class="cls-9" points="142.14 115.44 141.17 114.9 147.11 111.46 148.08 112.01 142.14 115.44"/><path class="cls-23" d="M280.69,229.32a10.45,10.45,0,0,0-1.7,1.25c-.24-7.67-5.78-10.72-12.6-6.79-5.55,3.21-10.26,10.08-11.95,16.81a7.48,7.48,0,0,0-4.71,1.17c-5,2.87-9,9.85-9,15.59s4,8.06,9,5.19l31-17.87a14.69,14.69,0,0,0,6.65-11.51C287.34,228.92,284.36,227.2,280.69,229.32Z" transform="translate(-24.69 -25.04)"/><path class="cls-20" d="M378.35,184a6.47,6.47,0,0,1-2.92,5.06c-1.61.93-2.92.18-2.92-1.69a6.45,6.45,0,0,1,2.92-5C377,181.34,378.35,182.09,378.35,184Z" transform="translate(-24.69 -25.04)"/><path class="cls-20" d="M386.4,179.3a6.45,6.45,0,0,1-2.92,5.06c-1.61.93-2.92.18-2.92-1.69a6.45,6.45,0,0,1,2.92-5C385.09,176.69,386.4,177.44,386.4,179.3Z" transform="translate(-24.69 -25.04)"/><path class="cls-20" d="M378.35,174.66a6.45,6.45,0,0,1-2.92,5.05c-1.61.93-2.92.18-2.92-1.68a6.45,6.45,0,0,1,2.92-5.06C377,172,378.35,172.79,378.35,174.66Z" transform="translate(-24.69 -25.04)"/><path class="cls-20" d="M386.4,170a6.45,6.45,0,0,1-2.92,5.05c-1.61.93-2.92.18-2.92-1.68a6.47,6.47,0,0,1,2.92-5.06C385.09,167.39,386.4,168.14,386.4,170Z" transform="translate(-24.69 -25.04)"/><path class="cls-20" d="M168.26,298.65a1.45,1.45,0,0,1-.7-.17,1.52,1.52,0,0,1-.65-2.05,17,17,0,0,1,6.2-6.81,8,8,0,0,1,4.37-1.21c2,.1,4.39-1.38,6.52-3.94a15,15,0,0,1,3.94-3.41,7.94,7.94,0,0,1,4.37-1.21c1.91.11,4.38-1.37,6.51-3.93a14.68,14.68,0,0,1,3.94-3.42,8,8,0,0,1,4.37-1.21c2,.09,4.39-1.37,6.52-3.93a14.86,14.86,0,0,1,3.94-3.42,6.92,6.92,0,0,1,6.24-.78,1.52,1.52,0,1,1-1.21,2.79,4,4,0,0,0-3.52.62,11.82,11.82,0,0,0-3.12,2.72c-2.77,3.34-6.06,5.16-9,5a5,5,0,0,0-2.7.81,12,12,0,0,0-3.13,2.72c-2.77,3.35-6.08,5.16-9,5a5.06,5.06,0,0,0-2.7.8,12.05,12.05,0,0,0-3.12,2.73c-2.77,3.34-6.06,5.16-9,5a5,5,0,0,0-2.7.8,14.06,14.06,0,0,0-5,5.6A1.5,1.5,0,0,1,168.26,298.65Z" transform="translate(-24.69 -25.04)"/><path class="cls-24" d="M293.2,109.75,252.1,88.07c-12.32-6.5-32.21-6.5-44.44,0s-12.17,17,.14,23.51l41.11,21.69c12.31,6.49,32.21,6.49,44.44,0S305.52,116.24,293.2,109.75Z" transform="translate(-24.69 -25.04)"/><path class="cls-25" d="M238.61,44.24l-.18-.1-.14-.07-.23-.11-.16-.07-.07,0a4.32,4.32,0,0,0-.45-.19h0l-.45-.17h-.06l-.16-.06-.23-.07-.12,0-.19-.06-.16,0-.16,0-.19,0-.11,0-.18,0-.23,0h-.08l-.19,0-.24,0h-1.18l-.15,0h-.11l-.39.07h0l-.11,0-.32.07-.15.05-.2.06,0,0-.29.13a.94.94,0,0,0-.15.06,4.23,4.23,0,0,0-.42.22l-1.3.75a4.13,4.13,0,0,1,.42-.22l.14-.06.3-.12.25-.08.15,0,.32-.08.1,0,.41-.07H232a2.34,2.34,0,0,1,.38,0h1l.24,0,.26,0,.23,0,.29.06.2,0,.31.08.2,0,.34.11.16,0c.34.12.69.26,1,.42l.17.07.37.18.18.1c.16.08.33.17.49.27l1.31-.76-.36-.2Z" transform="translate(-24.69 -25.04)"/><path class="cls-26" d="M300.22,94.17a.22.22,0,0,1,0-.08,1,1,0,0,0,0-.17,1.21,1.21,0,0,0,0-.19.76.76,0,0,0,0-.15c0-.06,0-.12,0-.17s0-.08,0-.12l0-.25c0-.05,0-.1,0-.14v-.05l-.06-.46h0a.13.13,0,0,0,0-.06l-.06-.38a.64.64,0,0,0,0-.07l0-.18c0-.08,0-.15-.05-.23l0-.12c0-.06,0-.13,0-.2a.83.83,0,0,1,0-.15,1.21,1.21,0,0,0-.05-.18,1.46,1.46,0,0,0,0-.2l0-.1c0-.09-.05-.17-.07-.26l-.05-.17v0l-.15-.46h0v0c-.05-.14-.09-.28-.14-.41l0-.07-.06-.15-.08-.23-.06-.14s0-.11-.07-.17a1.12,1.12,0,0,0-.05-.13c0-.08-.07-.16-.11-.25a1.12,1.12,0,0,0-.05-.13l0,0c-.07-.14-.13-.29-.2-.43v0l-.06-.12c-.05-.12-.11-.23-.16-.34l0,0c0-.09-.09-.18-.14-.27s-.07-.15-.11-.22l0,0-.39-.7a.21.21,0,0,1,0-.06l-.1-.17-.17-.28c-.06-.08-.11-.17-.16-.25l-.18-.27-.06-.09-.06-.09c-.16-.25-.33-.49-.51-.73h0l-.39-.51v0l-.29-.36-.06-.06h0l-.35-.41,0,0-.11-.12c-.07-.08-.15-.16-.22-.25l0,0-.16-.16-.17-.18a.23.23,0,0,0-.07-.07l-.17-.17-.14-.14-.09-.08-.18-.17-.13-.12-.1-.09-.19-.16-.11-.1-.13-.1-.18-.15-.09-.08L292.7,80l-.17-.13-.07,0-.21-.15-.15-.1,0,0-.39-.26h0L291.3,79l-.09,0-3.9-2.26,0,0-.06-.2c0-.16-.09-.32-.14-.48v0L287,75.7c0-.14-.08-.27-.13-.41s0-.05,0-.08a2,2,0,0,1-.08-.22c0-.13-.09-.26-.13-.38l0-.1a1.43,1.43,0,0,0-.08-.22c0-.12-.09-.24-.13-.35a.49.49,0,0,1,0-.11l-.09-.22c0-.11-.09-.22-.14-.33a.36.36,0,0,0,0-.11L286,73c-.05-.11-.1-.22-.14-.33a1.17,1.17,0,0,1-.05-.11l-.09-.21a3.73,3.73,0,0,1-.16-.35l-.06-.11a1.42,1.42,0,0,1-.08-.18l-.2-.4-.06-.14a.83.83,0,0,1-.07-.13l-.26-.5-.08-.16a.41.41,0,0,1-.05-.09l-.17-.3-.18-.33c0-.1-.11-.2-.17-.3l-.12-.21L284,69c-.16-.27-.32-.54-.49-.81l-.09-.13c-.14-.24-.29-.46-.45-.69l-.07-.12a.61.61,0,0,1-.07-.1l-.19-.27c-.07-.1-.14-.21-.22-.31l-.19-.26-.12-.17-.07-.1-.46-.6-.06-.08,0,0-.49-.61,0,0-.13-.15c-.11-.14-.23-.27-.35-.41l-.05-.06-.14-.15c-.1-.12-.21-.24-.32-.35a.39.39,0,0,0-.08-.1l-.12-.12-.32-.34-.12-.13-.09-.08-.36-.36-.14-.14,0,0-.49-.46-.06-.06h0l-.57-.5,0,0-.14-.12-.39-.32-.08-.07-.14-.1-.35-.27-.12-.09-.12-.08-.33-.24-.14-.1-.1-.07-.33-.21-.16-.11-.08,0-.32-.19-.18-.12-.14-.08-.44-.24h0l-.52-.27h0l-.11-.06-.37-.17-.07,0-.12-.05-.33-.14-.11,0-.08,0-.36-.13-.11-.05h0l-.5-.16h0l-.4-.11v0l-.07-.22c-.05-.19-.11-.39-.17-.59l0-.06c0-.09-.06-.18-.08-.27s-.11-.33-.16-.49l0-.09-.09-.27c-.06-.15-.11-.3-.16-.45a.76.76,0,0,1,0-.11l-.1-.27c-.05-.14-.1-.28-.16-.42s0-.07,0-.11l-.11-.27c-.05-.14-.11-.27-.16-.4l-.05-.12c0-.09-.08-.18-.11-.27l-.17-.39a.61.61,0,0,1-.05-.12l-.12-.25c-.06-.14-.12-.28-.19-.42l-.06-.13c0-.08-.07-.15-.1-.22l-.23-.47-.08-.16a1.19,1.19,0,0,0-.08-.16l-.3-.58a1.74,1.74,0,0,0-.1-.19l-.06-.12-.19-.35c-.08-.13-.15-.26-.22-.39l-.2-.35L267,48.5a.86.86,0,0,1-.07-.1c-.19-.32-.38-.64-.58-1l-.09-.14c-.18-.28-.36-.56-.55-.84l-.09-.13-.09-.14-.22-.32L265,45.5l-.23-.31-.14-.2-.09-.11c-.17-.24-.35-.48-.54-.71l-.07-.1,0,0-.58-.72,0,0a1.15,1.15,0,0,1-.14-.17l-.42-.48-.06-.07-.16-.18-.38-.42-.1-.11-.14-.15-.39-.41a.86.86,0,0,1-.13-.14l-.11-.11-.43-.42-.16-.16-.07-.06-.57-.53L260,39.8h0l-.67-.59-.05,0-.16-.13-.48-.39-.09-.08-.17-.13-.41-.31-.14-.11a.71.71,0,0,1-.14-.1l-.4-.28-.17-.12-.11-.08-.39-.25-.2-.13-.09-.06-.38-.23-.22-.13-.16-.1-.48-.27,0,0-.07,0-.53-.27-.07,0h0a6.11,6.11,0,0,0-.58-.27l0,0-.07,0-.58-.24h0l-.59-.22-.07,0h-.05l-.57-.19h0l-.06,0-.6-.16h0l-.61-.13-.06,0h-.06l-.16,0-.21,0-.16,0h-.2l-.18,0h-.19l-.18,0h-1.32l-.38,0h0l-.41,0-.12,0-.34.06h-.08l-.5.12-.09,0a3.37,3.37,0,0,0-.48.15h0l-.08,0-.21.07-.13.06-.2.08-.12.06-.22.1-.1.06-.31.17-1.3.75.31-.17.1,0,.21-.1.13-.06.2-.09.13,0,.21-.08.11,0,.48-.15.09,0,.51-.12h.08l.34-.06.12,0,.4-.05h0l.38,0h1.13l.18,0h.19l.18,0,.19,0,.2,0,.16,0,.21,0,.16,0,.12,0,.61.14h0l.59.16.1,0,.57.19.12,0,.59.22h0l.57.25.13.06c.19.08.39.17.58.27l.09,0,.54.27.11.06.48.27.38.23.37.23.3.19.38.25.29.2.39.28.28.2.42.32.26.21.48.38.2.18.68.58.09.09.57.53.22.22.43.42.25.25c.13.13.25.27.38.41l.24.25c.13.14.26.28.38.43l.23.25.41.48.17.2.59.73.1.13.54.7a3.55,3.55,0,0,0,.23.31c.07.11.15.21.23.32s.17.24.25.37a3.62,3.62,0,0,1,.22.32l.19.27.55.84.08.13.59,1,.2.34.2.34.21.4c.07.11.13.23.19.34l.17.32c.1.19.2.38.29.57l.17.33c.07.15.15.31.22.47s.11.23.17.35.13.27.19.41.11.25.17.38l.16.39.17.39c.05.13.1.26.16.4l.15.38.15.41c.05.13.1.26.14.38s.11.31.16.46l.12.36c.06.16.11.32.16.49s.07.22.11.33l.17.59a2,2,0,0,0,.08.26h0l.41.12.51.17.15.05.36.14.18.07.34.15.18.08.37.17.15.07.51.27.46.25.32.19.31.2.25.16.32.21.25.17.33.23.23.18.35.26.22.18c.14.1.27.21.4.32l.18.15.57.49.06.07.5.45.18.19.37.35.2.21.33.34a2.09,2.09,0,0,0,.2.22l.32.36.19.21.35.41a2.09,2.09,0,0,1,.14.17c.17.2.34.4.5.61l.07.1.46.6.2.27.19.26c.07.1.14.21.22.31l.18.27.15.22.45.68.09.14c.17.27.33.54.49.81l.17.29.17.3.18.32.16.3.14.26.25.49.14.28c.07.13.13.26.19.39s.1.2.14.3.11.24.16.35.1.21.14.32l.14.32c.05.11.1.22.14.33s.09.23.14.34l.12.33c.05.11.09.23.13.34l.12.32c.05.13.09.26.14.38s.07.21.1.31.09.27.13.41l.09.28c0,.16.09.32.14.48l.07.25h0l3.91,2.26.44.26,0,0,.43.28.14.1.29.21.17.13.25.2c.06,0,.12.09.18.15l.24.2.18.16.23.21a1.54,1.54,0,0,1,.19.17l.23.22.17.17.24.24.15.17.27.29.11.12.37.43.05.07.31.38.38.5h0l.51.73.12.17.17.28a2.13,2.13,0,0,1,.16.25,2.61,2.61,0,0,1,.17.28,1.76,1.76,0,0,1,.14.23c.14.23.27.46.39.7l.14.25.14.28.19.38.06.13c.07.16.15.33.22.5l.06.13c.06.13.11.25.16.38s.05.11.07.17l.14.36.06.16.17.48v0c.06.17.11.35.17.52s0,.11,0,.17.07.24.11.36a1.94,1.94,0,0,0,.05.2c0,.11.06.22.08.33s0,.13.05.2,0,.23.07.34,0,.13,0,.19.06.3.08.45v.06c0,.17.05.34.07.51s0,.1,0,.15,0,.24,0,.36a1.09,1.09,0,0,0,0,.18c0,.11,0,.23,0,.34s0,.11,0,.17,0,.32,0,.48V96c0,.17,0,.34,0,.5a.57.57,0,0,1,0,.13c0,.12,0,.23,0,.34s0,.12,0,.18l0,.28,0,.19c0,.09,0,.17,0,.25s0,.14-.05.22a1.6,1.6,0,0,1-.05.21l-.06.25-.06.19-.09.29a.88.88,0,0,0-.05.15c-.06.16-.13.31-.2.46s-.11.22-.17.33h0a3.37,3.37,0,0,1-.19.32l0,.06-.15.22-.07.09-.16.19-.06.07a2.39,2.39,0,0,1-.22.23l0,0-.21.19-.08.06a1.33,1.33,0,0,1-.19.14l-.07.06-.27.17,1.3-.76.27-.17.08,0,.18-.15.08-.06.21-.18,0,0,.23-.24.06-.07.15-.19.07-.09.15-.22.05-.06v0q.09-.14.18-.3h0l.16-.32h0c.06-.15.13-.3.19-.46l0,0,0-.11c0-.1.07-.19.1-.29a.24.24,0,0,0,0-.08l0-.11a1.82,1.82,0,0,0,.07-.25.3.3,0,0,0,0-.1l0-.11c0-.07,0-.15,0-.22a.43.43,0,0,0,0-.11.59.59,0,0,0,0-.13l0-.2s0-.07,0-.1a.88.88,0,0,1,0-.17c0-.07,0-.13,0-.19a.22.22,0,0,0,0-.08c0-.08,0-.17,0-.25a.66.66,0,0,1,0-.14v0c0-.15,0-.29,0-.44V94.17Z" transform="translate(-24.69 -25.04)"/><path class="cls-26" d="M298.91,94.92v-.07c0-.06,0-.11,0-.17a1.21,1.21,0,0,0,0-.19s0-.1,0-.15a1.09,1.09,0,0,1,0-.18.41.41,0,0,1,0-.11l0-.25s0-.1,0-.15V93.6c0-.15,0-.3-.07-.45h0s0,0,0-.07,0-.25-.07-.38,0,0,0-.06,0-.13,0-.19,0-.14,0-.22l0-.12c0-.07,0-.13-.05-.2l0-.15c0-.06,0-.12,0-.18a1.94,1.94,0,0,1-.05-.2l0-.1c0-.09-.05-.17-.07-.26a1.09,1.09,0,0,1-.05-.17l0,0-.15-.47h0l0,0c0-.14-.09-.28-.14-.42l0-.06-.06-.16a1.43,1.43,0,0,1-.08-.22l-.06-.14c0-.06-.05-.11-.07-.17s0-.09,0-.13-.07-.16-.11-.25l-.06-.13,0,0-.19-.43v0l-.06-.13-.17-.33,0,0-.14-.28-.12-.21,0,0c-.12-.24-.25-.47-.39-.7l0-.06-.11-.17a2.61,2.61,0,0,0-.17-.28l-.15-.25-.18-.28-.06-.09-.06-.08-.51-.73h0c-.12-.17-.25-.33-.38-.5l0,0-.28-.36-.06-.07h0c-.12-.14-.24-.27-.35-.41l0,0-.11-.12-.23-.25,0,0-.15-.17-.17-.18-.07-.06L292.9,82l-.15-.14a.6.6,0,0,0-.08-.08l-.18-.17-.13-.12-.11-.09-.18-.16-.11-.1-.13-.1-.18-.15-.1-.08-.15-.12-.17-.13-.07,0L291,80.4l-.15-.11,0,0-.38-.26h0l0,0-.35-.21-.09,0L286,77.47v-.06l-.06-.2c-.05-.15-.09-.31-.14-.47l0-.06-.07-.22c0-.14-.09-.28-.13-.41l0-.08c0-.08-.05-.15-.07-.22l-.14-.39,0-.1-.09-.22c0-.11-.08-.23-.13-.34a.36.36,0,0,0,0-.11c0-.08-.06-.15-.08-.22s-.09-.22-.14-.34,0-.07,0-.11-.07-.14-.1-.22l-.14-.32s0-.07,0-.11l-.1-.21c0-.12-.1-.23-.16-.35l-.05-.12-.09-.18-.19-.39a491716548358.26,491716548358.26,0,0,1-.14-.28l-.25-.49-.09-.16a.47.47,0,0,0-.05-.1l-.16-.3-.18-.32-.17-.3-.12-.21a.35.35,0,0,1-.05-.08c-.16-.27-.32-.54-.49-.81l-.09-.14-.45-.68-.08-.12a.61.61,0,0,0-.07-.1l-.18-.27-.22-.31-.19-.26-.13-.18-.07-.09-.46-.6-.06-.08v0c-.16-.21-.33-.41-.5-.61l0,0-.12-.14-.35-.41,0-.06-.14-.15-.32-.36-.08-.09-.12-.13-.33-.34-.11-.12-.09-.09-.37-.35-.13-.14a.12.12,0,0,1-.05-.05l-.49-.45-.07-.06h0l-.57-.49,0,0-.14-.11-.39-.32-.09-.07-.14-.11-.35-.26L275,61l-.12-.09-.33-.23-.15-.1-.1-.07-.32-.21-.17-.11-.08,0-.31-.2a1.18,1.18,0,0,1-.19-.11l-.13-.08-.44-.24h0l-.51-.27,0,0-.12,0-.37-.17-.07,0-.11,0-.34-.15-.11,0-.07,0-.37-.14-.11,0h0l-.51-.17h0l-.39-.11,0,0-.06-.21c-.06-.2-.11-.4-.17-.59l0-.06-.09-.27c0-.17-.1-.33-.16-.5s0,0,0-.08l-.1-.27c-.05-.15-.1-.31-.16-.46l0-.11-.11-.27-.15-.41-.05-.12-.1-.27c-.06-.13-.11-.26-.16-.4a.61.61,0,0,1-.05-.12l-.12-.27c-.05-.12-.11-.25-.16-.38l-.06-.13c0-.08-.07-.16-.11-.25s-.13-.28-.19-.41l-.06-.14-.11-.21c-.07-.16-.15-.32-.22-.47s0-.11-.08-.16a1.3,1.3,0,0,1-.08-.17l-.3-.57-.1-.19-.07-.13-.19-.35-.21-.39-.2-.34-.14-.24-.06-.1-.59-1-.08-.13-.55-.84-.09-.14L264.2,47l-.23-.33-.25-.36c-.08-.11-.16-.21-.23-.32l-.14-.19-.09-.12-.54-.7-.08-.1,0,0-.59-.73,0,0-.15-.17-.41-.48-.06-.07-.16-.18-.39-.43-.09-.1-.15-.15c-.12-.14-.25-.27-.38-.41l-.14-.14a1.14,1.14,0,0,0-.11-.11l-.43-.42-.15-.16-.07-.06-.57-.53-.08-.08h0L258,40l0,0-.16-.14-.48-.38-.09-.08-.17-.13-.42-.31-.13-.11-.15-.1-.39-.28-.17-.12-.12-.08-.38-.25-.2-.13-.09-.06-.38-.23-.22-.14-.16-.09-.48-.27,0,0-.07,0-.54-.27-.06,0h0c-.19-.1-.39-.19-.58-.27l-.05,0-.08,0-.57-.25h0l-.59-.22-.07,0H251l-.57-.19h0l-.06,0-.59-.16h0l-.62-.14H249l-.16,0-.21,0-.16,0-.12,0h-.08l-.19,0-.18,0h-1.5l-.38,0h0l-.4.05-.12,0-.34.06H245l-.51.12-.09,0-.48.15h0l-.08,0-.21.08-.13,0-.2.09-.13.06-.21.1-.1,0-.31.17L210,55.1a3.07,3.07,0,0,1,.31-.17l.1,0,.21-.11.13-.05.2-.09.13-.05.21-.08.11,0a4.42,4.42,0,0,1,.48-.15l.09,0,.51-.11.08,0,.34-.06H213l.39,0-16.17,9.4.42-.22.14-.06.3-.12.25-.09.15,0,.32-.08.1,0c.14,0,.27,0,.41-.06l.11,0,.38,0h.95l.24,0,.27,0,.23,0,.28.05.2,0,.31.08.2.06.34.1.17.06a9.59,9.59,0,0,1,1,.41l.16.08.37.18.18.09.49.27h0l15-8.72.2.09.1.05.53.28.11.06.48.26.38.23.38.23.29.19.39.26.28.19.4.28.28.21.41.32.26.2.48.39.21.17.67.59.09.08.57.54.23.21.43.43.24.25.39.4.24.26.38.42.22.25.42.49.17.2.58.72.1.13.54.71.23.31.23.31.26.37.22.32.18.27c.19.28.37.56.55.84l.09.14c.2.32.39.64.58,1l.2.34.2.35c.07.13.14.26.22.39l.18.35.17.31.3.58.16.32.23.47c.05.12.11.23.16.35s.13.28.19.42.11.25.17.37l.16.39.17.39c.05.13.11.26.16.4l.15.38.16.42c0,.12.09.25.14.38l.15.45c0,.12.09.24.13.36l.15.49.11.33.17.59c0,.09,0,.18.08.27l.41.11.51.17.14,0,.37.14.18.08.34.14L239,78l.37.17.15.07.52.27.45.26.32.19.32.19.24.16.33.21.24.17.33.24.24.17.35.27.22.17.39.32.18.15.57.5.07.06.49.46.19.18.36.36.2.21.33.34a2.09,2.09,0,0,1,.2.22c.11.11.22.23.32.35l.19.21.35.41.15.17c.16.21.33.41.49.61l.08.1.45.6.2.27.19.26c.07.11.15.21.22.31l.18.27.15.22.45.69.09.13c.17.27.33.54.49.81l.17.29c.06.1.12.2.17.3l.18.33.17.3.13.25.26.5.13.27c.07.13.13.27.19.4l.14.29c.06.12.11.24.16.36l.15.31.13.33c0,.11.1.22.14.33l.14.33c0,.11.08.22.13.33s.08.23.13.35a3,3,0,0,1,.11.32c.05.12.09.25.14.38s.07.2.1.3.09.27.13.41l.09.28c.05.16.09.32.14.48s0,.17.07.26l3.91,2.25.44.27h0l.42.29.15.1.28.2.17.13.25.2.18.15.24.2.19.16.23.21.18.17c.08.08.16.15.23.23l.17.16.24.25.15.16.27.29a1.27,1.27,0,0,1,.11.13c.13.14.25.28.37.43l.06.07.3.38c.13.16.26.33.38.5h0l.51.73.12.18.18.27.15.25.18.28.13.23c.14.23.27.47.39.7l.14.26.14.27.19.39.06.12.23.5.05.14c.06.12.11.25.16.37s.05.12.07.17.1.25.14.37l.06.15.17.48v0c.06.18.12.35.17.52s0,.12.05.17.07.24.1.36l.05.2.09.33c0,.07,0,.14,0,.2s.05.23.07.35a1.16,1.16,0,0,1,0,.18c0,.15.06.3.08.45a.13.13,0,0,1,0,.06c0,.18.05.35.07.52a.59.59,0,0,1,0,.14c0,.12,0,.24,0,.37s0,.11,0,.17,0,.23,0,.34a1,1,0,0,1,0,.17c0,.16,0,.32,0,.49v.7c0,.17,0,.34,0,.5a.66.66,0,0,0,0,.14l0,.33a1.37,1.37,0,0,1,0,.19l0,.27,0,.2c0,.08,0,.16,0,.24s0,.15,0,.22a1.6,1.6,0,0,0-.05.21c0,.09-.05.17-.07.25s0,.13-.05.19-.07.19-.1.29,0,.1,0,.15-.13.31-.2.46a3.41,3.41,0,0,1-.17.33h0a3.37,3.37,0,0,1-.19.32l0,.06-.15.22-.07.09-.15.19-.06.07-.23.24,0,0-.21.18-.08.07-.18.14-.08,0-.27.17,32.6-18.94.27-.17.07-.06a1.33,1.33,0,0,0,.19-.14l.08-.06a1.8,1.8,0,0,0,.2-.19l0,0a2.39,2.39,0,0,0,.22-.23l.06-.07.16-.19.07-.09.15-.22,0-.06v0c.07-.1.12-.2.18-.3h0a3.18,3.18,0,0,0,.16-.32h0c.07-.15.13-.3.2-.46s0,0,0,0a.56.56,0,0,0,0-.12l.09-.28,0-.08,0-.11.06-.25,0-.1s0-.08,0-.11,0-.15.05-.22a.43.43,0,0,1,0-.11s0-.09,0-.14l0-.19s0-.07,0-.1,0-.12,0-.18,0-.12,0-.18,0-.05,0-.08a2.17,2.17,0,0,0,0-.26.57.57,0,0,0,0-.13v0c0-.14,0-.28,0-.43v-.74C298.92,95.2,298.92,95.06,298.91,94.92Z" transform="translate(-24.69 -25.04)"/><path class="cls-27" d="M221.63,56.23c7,4,13,12.52,15.28,21a14.5,14.5,0,0,1,3.62,1.54c5.9,3.4,10.92,10.55,12.87,17.68l3.91,2.25c5,2.88,9,9.87,9,15.61v.7c0,5.74-4.08,8.06-9.07,5.17L202.92,88.79c-5-2.88-9-9.87-9-15.61v-.71c0-.29,0-.57,0-.85s0-.66,0-1c0-7.14,5.07-10,11.28-6.43C205.89,54.85,213,51.25,221.63,56.23Z" transform="translate(-24.69 -25.04)"/><path class="cls-27" d="M282.2,53.34a7,7,0,0,0-3.17-5.5L246.42,29c-1.76-1-3.19-.2-3.2,1.82l-.14,49.66,0,0,.39.32.18.15.57.5.07.06.49.46.18.18.37.36.2.21.33.34.2.22c.11.11.21.23.32.35l.19.21c.12.14.23.28.35.41l.14.17.5.61a.86.86,0,0,0,.07.1l.46.6.2.27.19.26a3.46,3.46,0,0,0,.22.31l.18.27.15.22.45.69.09.13c.17.27.33.54.49.81.06.1.11.2.17.29l.17.3.18.33.16.3.14.25c.08.17.17.33.25.5s.1.18.14.27.13.27.19.4l.14.29c.06.12.11.24.16.36s.1.21.14.31.1.22.14.33.1.22.14.33l.14.33.12.33a3.62,3.62,0,0,1,.13.35l.12.32c.05.12.09.25.14.38s.07.2.1.3.09.27.13.41l.09.28c.05.16.09.32.14.48s0,.17.07.26l3.91,2.25.44.27h0l.42.29.15.1.28.2a1.09,1.09,0,0,0,.17.13l.25.2.18.15.24.2.19.16.23.21.18.17.23.23.17.16.24.25.15.16.27.29.11.13c.12.14.25.28.37.43l.06.07.3.38c.13.16.26.33.38.5h0l.51.73.12.18.18.27.15.25.17.28.14.23c.14.23.27.47.39.7l.14.26c0,.09.09.18.14.27s.12.26.19.39l.06.12c.07.17.15.33.22.5l.06.14c.06.12.11.25.16.37s.05.12.07.17.09.25.14.37l.06.15.17.48v0c.06.18.11.35.17.52a.84.84,0,0,0,.05.17c0,.12.06.24.1.36l.05.2c0,.11.06.22.08.33s0,.14.05.2.05.23.07.35a1.16,1.16,0,0,1,0,.18c0,.12,0,.25.07.37l6.41,3.7,9.54-5.55Z" transform="translate(-24.69 -25.04)"/><path class="cls-28" d="M275.88,55.92l-26.47-15c-.37-.21-.66,0-.66.37a1.46,1.46,0,0,0,.65,1.14l26.48,15c.36.21.66,0,.66-.38A1.44,1.44,0,0,0,275.88,55.92Z" transform="translate(-24.69 -25.04)"/><path class="cls-28" d="M275.88,65.18l-26.47-15c-.37-.21-.66,0-.66.37a1.42,1.42,0,0,0,.65,1.13l26.48,15c.36.21.66,0,.66-.37A1.41,1.41,0,0,0,275.88,65.18Z" transform="translate(-24.69 -25.04)"/><path class="cls-28" d="M275.88,74.43l-26.47-15c-.37-.21-.66,0-.66.38a1.45,1.45,0,0,0,.65,1.13l26.48,15c.36.21.66,0,.66-.38A1.44,1.44,0,0,0,275.88,74.43Z" transform="translate(-24.69 -25.04)"/><path class="cls-28" d="M275.88,83.69l-26.47-15c-.37-.21-.66,0-.66.37a1.46,1.46,0,0,0,.65,1.14l26.48,15c.36.21.66,0,.66-.38A1.42,1.42,0,0,0,275.88,83.69Z" transform="translate(-24.69 -25.04)"/><path class="cls-28" d="M275.88,92.94l-26.47-15c-.37-.21-.66,0-.66.38a1.45,1.45,0,0,0,.65,1.13l26.48,15c.36.21.66,0,.66-.37A1.44,1.44,0,0,0,275.88,92.94Z" transform="translate(-24.69 -25.04)"/><path class="cls-26" d="M273.68,56.31a7,7,0,0,0-3.18-5.5L237.9,32c-1.76-1-3.19-.2-3.2,1.82l-.08,37.44c0,.1.09.2.14.3s.11.23.17.35l.18.41c.06.13.12.25.17.38l.17.39.16.39c.06.13.11.26.16.4s.11.25.16.38l.15.42c0,.12.09.25.14.38l.16.45.12.36c.06.16.11.32.16.49s.07.22.1.33.12.39.17.59a2.76,2.76,0,0,1,.08.27l.41.11.51.17.14,0,.37.14.19.07.33.15.19.08.37.17.14.07.52.27.45.25.32.2.32.19.25.16.32.21.24.17.33.24.24.17.35.27.22.17.4.32.18.15.56.5.07.06.49.46.19.18.36.36.21.21c.11.11.22.22.32.34l.21.22.32.35.19.21.34.41.15.17c.17.2.33.41.49.61l.08.1.46.6.19.27.2.26.21.31.19.27.15.22.45.69.08.13c.17.27.34.54.5.81a2.75,2.75,0,0,0,.17.29c.05.1.11.2.17.3l.18.33.16.3c.05.08.09.17.13.25s.18.33.26.5l.14.27.19.4c0,.1.09.19.14.29s.11.24.16.35.09.22.14.32l.14.33c0,.11.09.22.14.33l.13.33c0,.11.09.22.13.33s.09.23.13.35l.12.32c0,.12.09.25.13.38l.11.3c0,.14.08.27.13.41l.09.28c0,.16.09.32.13.48s0,.17.08.25l3.9,2.26c.15.09.3.17.44.27h0l.43.29.14.1.28.2.17.13.25.2.19.15.23.2.19.16.23.21.19.17.23.22a1.37,1.37,0,0,0,.17.17l.23.25c.05,0,.11.1.16.16l.27.29.11.12.37.44,0,.07c.11.12.21.25.31.38l.38.49h0c.18.24.35.48.52.73l.11.18.18.27.16.25.17.28c0,.08.09.16.14.23l.39.7c0,.08.09.17.13.26s.1.18.14.27.13.26.19.38l.06.13c.08.17.16.33.23.5l.06.14c.05.12.1.25.16.37l.06.17c0,.12.1.24.14.37l.06.15c.06.16.12.32.17.48l0,0,.16.52c0,.06,0,.12.05.17s.07.24.1.36l.06.2c0,.11.05.22.08.33a1.17,1.17,0,0,0,.05.2c0,.12.05.23.07.35a1.16,1.16,0,0,0,0,.18c0,.15,0,.3.08.45a.13.13,0,0,0,0,.06c0,.17.05.35.07.52s0,.09,0,.14,0,.24,0,.36,0,.12,0,.18,0,.23,0,.34v.17c0,.16,0,.32,0,.48v.71c0,.17,0,.34,0,.5s0,.09,0,.14,0,.22,0,.33a1.11,1.11,0,0,0,0,.19,2.51,2.51,0,0,1,0,.27,1.36,1.36,0,0,1,0,.2c0,.08,0,.16-.05.24s0,.15,0,.22,0,.14,0,.21l-.06.25-.06.19-.09.29-.06.15c-.06.16-.12.31-.19.46s-.11.23-.17.33h0l-.09.16.62.35,7.49-4.35Z" transform="translate(-24.69 -25.04)"/><path class="cls-29" d="M263.17,104.54l.15.25.18.28.13.23c.14.23.27.47.39.7l.14.26.14.27.19.39.06.12.23.5.05.14c.06.12.11.25.16.37s.05.12.07.17.1.25.14.37l.06.15.17.48v0c.06.18.12.35.17.52s0,.12.05.17.07.24.1.36l.05.2.09.33c0,.07,0,.14,0,.2s.05.23.07.35a1.16,1.16,0,0,1,0,.18c0,.15.06.3.08.45a.13.13,0,0,1,0,.06,3.32,3.32,0,0,1,.06.44l.12-51.22a7,7,0,0,0-3.18-5.5L230.54,37c-1.76-1-3.19-.2-3.2,1.82l-.05,21.87.09.09.24.25.39.4.24.26.38.42.22.25.42.49.17.2.58.72.1.13.54.71.23.31.23.31.26.37.22.32.18.27c.19.28.37.56.55.84l.09.14c.2.32.39.64.58,1l.2.34.2.35c.07.13.14.26.22.39l.18.35.17.31.3.58.16.32.23.47c.05.12.11.23.16.35s.13.28.19.42.11.25.17.37l.16.39.17.39c.05.13.11.26.16.4l.15.38.16.42c0,.12.09.25.14.38l.15.45c0,.12.09.24.13.36l.15.49.11.33.17.59c0,.09,0,.18.08.27l.41.11.51.17.14,0,.37.14.18.08.34.14L239,78l.37.17.15.07.52.27.45.26.32.19.32.19.24.16.33.21.24.17.33.24.24.17.35.27.22.17.39.32.18.15.57.5.07.06.49.46.19.18.36.36.2.21.33.34a2.09,2.09,0,0,1,.2.22c.11.11.22.23.32.35l.19.21.35.41.15.17c.16.21.33.41.49.61l.08.1.45.6.2.27.19.26c.07.11.15.21.22.31l.18.27.15.22.45.69.09.13c.17.27.33.54.49.81l.17.29c.06.1.12.2.17.3l.18.33.17.3.13.25.26.5.13.27c.07.13.13.27.19.4l.14.29c.06.12.11.24.16.36l.15.31.13.33c0,.11.1.22.14.33l.14.33c0,.11.08.22.13.33s.08.23.13.35a3,3,0,0,1,.11.32c.05.12.09.25.14.38s.07.2.1.3.09.27.13.41l.09.28c.05.16.09.32.14.48s0,.17.07.26l3.91,2.25.44.27h0l.42.29.15.1.28.2.17.13.25.2.18.15.24.2.19.16.23.21.18.17c.08.08.16.15.23.23l.17.16.24.25.15.16.27.29a1.27,1.27,0,0,1,.11.13c.13.14.25.28.37.43l.06.07.3.38c.13.16.26.33.38.5h0l.51.73.12.18Z" transform="translate(-24.69 -25.04)"/><path class="cls-25" d="M266.19,116.59v0c0,.08,0,.16,0,.24s0,.15,0,.22a1.6,1.6,0,0,0-.05.21c0,.09-.05.17-.07.25s0,.13-.05.19-.07.19-.1.29,0,.1,0,.15-.13.31-.2.46a3.41,3.41,0,0,1-.17.33h0a3.37,3.37,0,0,1-.19.32l0,.06-.15.22-.07.09-.15.19-.06.07-.23.24,0,0-.21.18-.08.07-.18.14-.08,0-.27.17,2.51-1.45Z" transform="translate(-24.69 -25.04)"/><path class="cls-27" d="M260,63.88l-26.48-15c-.36-.21-.66,0-.66.37a1.44,1.44,0,0,0,.66,1.14l26.47,15c.37.21.66,0,.66-.38A1.45,1.45,0,0,0,260,63.88Z" transform="translate(-24.69 -25.04)"/><path class="cls-27" d="M260,73.14l-26.48-15c-.36-.21-.66,0-.66.37a1.41,1.41,0,0,0,.66,1.13l26.47,15c.37.21.66,0,.66-.37A1.42,1.42,0,0,0,260,73.14Z" transform="translate(-24.69 -25.04)"/><path class="cls-27" d="M260,82.39l-26.48-15c-.36-.21-.66,0-.66.38a1.44,1.44,0,0,0,.66,1.13L260,83.9c.37.21.66,0,.66-.38A1.45,1.45,0,0,0,260,82.39Z" transform="translate(-24.69 -25.04)"/><path class="cls-27" d="M260,91.65l-26.48-15c-.36-.21-.66,0-.66.37a1.44,1.44,0,0,0,.66,1.14l26.47,15c.37.21.66,0,.66-.38A1.44,1.44,0,0,0,260,91.65Z" transform="translate(-24.69 -25.04)"/><path class="cls-27" d="M260,100.9l-26.48-15c-.36-.21-.66,0-.66.38a1.44,1.44,0,0,0,.66,1.13l26.47,15c.37.21.66,0,.66-.37A1.46,1.46,0,0,0,260,100.9Z" transform="translate(-24.69 -25.04)"/><path class="cls-26" d="M206,63.19l-.19-.09-.14-.07-.23-.11-.16-.08-.07,0-.45-.19h0l-.45-.17-.06,0-.16,0-.23-.08-.11,0-.2-.05-.16,0-.15,0-.2,0-.11,0-.18,0-.23,0h-.08l-.19,0L202,62h-.95l-.23,0-.15,0h-.11l-.39.06h0l-.11,0-.31.08-.16.05-.2.06,0,0-.3.12-.15.06-.42.22-1.3.76.42-.22.14-.06.3-.12.25-.09.15,0,.32-.08.1,0c.14,0,.27,0,.41-.06l.11,0,.38,0h.95l.24,0,.27,0,.23,0,.28.05.2,0,.31.07.2.06.35.1.16.06a9.59,9.59,0,0,1,1,.41l.16.08.37.18.18.09.49.27,1.31-.76-.36-.2Z" transform="translate(-24.69 -25.04)"/><path class="cls-26" d="M267.62,113.12a.25.25,0,0,0,0-.08v-.16a1.34,1.34,0,0,1,0-.2.76.76,0,0,1,0-.15s0-.11,0-.17a.49.49,0,0,0,0-.12l0-.25s0-.09,0-.14v0l-.06-.45h0a.17.17,0,0,1,0-.07c0-.12-.05-.25-.07-.38s0,0,0-.07a1.16,1.16,0,0,1,0-.18c0-.07,0-.15-.05-.22l0-.12c0-.07,0-.14,0-.2a.83.83,0,0,0,0-.15c0-.07,0-.13,0-.19l-.06-.2s0-.06,0-.09-.05-.18-.08-.26,0-.12,0-.17V109l-.15-.47h0l0,0c0-.14-.09-.28-.14-.42l0-.06-.06-.16a2,2,0,0,0-.08-.22l-.06-.14-.06-.18-.06-.12-.1-.25-.06-.13,0,0c-.06-.15-.13-.29-.2-.44v0l-.06-.12-.16-.34,0,0c0-.09-.09-.18-.14-.27a2.26,2.26,0,0,0-.11-.22l0,0-.39-.69a.21.21,0,0,0,0-.06l-.1-.18-.17-.28-.16-.24-.18-.28-.06-.09a.56.56,0,0,0-.05-.08c-.17-.25-.34-.5-.52-.74h0c-.13-.17-.25-.34-.38-.5l0,0-.29-.36-.05-.07h0c-.11-.14-.23-.28-.35-.41l0,0-.1-.12-.23-.25,0,0-.16-.16-.17-.18-.06-.06-.17-.17-.15-.15-.08-.07-.19-.18-.13-.12-.1-.08-.19-.17-.11-.1-.12-.1-.19-.15-.09-.07a1.67,1.67,0,0,0-.16-.12,1.09,1.09,0,0,0-.17-.13l-.07-.06-.21-.15-.14-.1,0,0-.39-.25h0l0,0L258.7,98l-.09,0-3.9-2.25,0-.06-.06-.2c0-.16-.09-.31-.13-.47l0-.06c0-.07,0-.15-.07-.23s-.09-.27-.13-.4l0-.08-.08-.23c0-.13-.09-.25-.13-.38a.69.69,0,0,0,0-.1,2,2,0,0,0-.08-.22c0-.12-.09-.23-.13-.35l0-.1-.09-.22c0-.12-.09-.23-.13-.34l-.05-.11-.09-.22c0-.11-.09-.22-.14-.32a1.17,1.17,0,0,0-.05-.11l-.09-.21c-.06-.12-.11-.23-.16-.35l-.06-.12a1.42,1.42,0,0,0-.08-.18c-.07-.13-.13-.26-.19-.39s-.05-.1-.07-.14l-.07-.14-.26-.49a1.3,1.3,0,0,0-.08-.17l0-.09-.16-.3-.18-.33a2.75,2.75,0,0,1-.17-.29,2.53,2.53,0,0,1-.13-.22l0-.07c-.16-.27-.33-.54-.5-.81a1,1,0,0,1-.08-.14l-.45-.69-.08-.11-.07-.11-.19-.26a3.46,3.46,0,0,0-.22-.31l-.18-.27a1.09,1.09,0,0,1-.13-.17l-.07-.09c-.15-.21-.31-.41-.46-.6l-.06-.08,0,0c-.16-.21-.32-.41-.49-.61l0,0-.13-.14-.34-.41-.06-.07s-.09-.09-.13-.15-.22-.23-.32-.35l-.09-.09-.12-.13-.32-.34-.12-.12-.09-.09-.36-.36a1.59,1.59,0,0,1-.13-.13l-.06,0-.49-.46-.06-.05h0l-.56-.5,0,0-.14-.11-.4-.33-.08-.06-.14-.11-.35-.27-.12-.08-.12-.09-.33-.24-.14-.1-.1-.06-.33-.22-.16-.11-.08,0-.32-.19-.18-.11-.14-.08c-.14-.09-.29-.17-.44-.25h0c-.17-.1-.35-.19-.52-.27l0,0-.11,0-.37-.18-.07,0-.11,0-.34-.14-.11,0-.07,0-.37-.14-.11,0h0l-.51-.17h0c-.13,0-.26-.08-.4-.12v0l-.06-.21L238,75.6v-.06l-.09-.27c-.05-.17-.1-.33-.16-.5l0-.08-.09-.27c-.05-.16-.11-.31-.16-.46a.49.49,0,0,0,0-.11l-.1-.27-.15-.41,0-.12c0-.09-.07-.18-.11-.27s-.1-.26-.16-.4a.61.61,0,0,0-.05-.12c0-.09-.07-.18-.11-.27l-.17-.39,0-.12-.12-.25c-.06-.14-.12-.28-.19-.42s0-.08-.05-.13a1.51,1.51,0,0,1-.11-.22c-.08-.15-.15-.31-.23-.46s0-.11-.07-.16l-.09-.17-.3-.58-.09-.19a.75.75,0,0,1-.07-.12l-.19-.35L234.7,68l-.2-.34-.13-.24-.06-.1c-.19-.33-.39-.65-.59-1l-.09-.13c-.18-.29-.36-.57-.55-.85l-.08-.13-.1-.14-.22-.32-.26-.36c-.07-.11-.15-.21-.23-.32l-.14-.19-.09-.12c-.17-.24-.35-.47-.53-.7l-.08-.11,0,0-.59-.73,0,0a2.09,2.09,0,0,0-.14-.17l-.42-.49-.06-.07-.16-.18-.38-.42-.1-.11-.14-.15-.39-.4-.13-.14-.11-.11-.43-.43-.16-.15-.06-.06-.58-.54-.08-.07h0l-.67-.59-.05,0-.16-.13-.47-.39-.1-.07a1.09,1.09,0,0,0-.17-.13l-.41-.32-.14-.1a.71.71,0,0,0-.14-.1l-.39-.28-.17-.12-.12-.08-.39-.26-.19-.13-.1,0-.37-.23-.22-.14-.16-.09-.48-.27-.05,0-.07,0c-.17-.1-.35-.19-.53-.28l-.07,0,0,0-.58-.27-.06,0-.07,0-.58-.25h0l-.59-.22-.07,0,0,0c-.19-.06-.38-.13-.57-.18l0,0h-.06l-.6-.17h0l-.62-.14h-.12l-.16,0-.21,0-.16,0-.11,0H217l-.18,0-.19,0-.18,0H215.1l-.39,0h0l-.41,0-.12,0-.33,0h-.09a4.05,4.05,0,0,0-.5.12l-.09,0-.48.15h0l-.08,0-.2.08-.13.05L212,54l-.12.05-.22.11-.1,0-.31.17-1.3.76a3.07,3.07,0,0,1,.31-.17l.1,0,.22-.11.12-.05.2-.09.13,0,.21-.08.11,0a4,4,0,0,1,.49-.15l.08,0,.51-.11.08,0,.34-.06H213l.4-.05h0l.38,0h1.32l.18,0,.19,0,.18,0,.2,0,.16,0,.21,0,.16,0,.12,0,.61.13h0l.59.17.1,0,.57.19.12,0,.59.23h0l.58.24.12.06.58.27.1,0,.53.28.11.06.48.26.38.23.38.23.29.19.39.26.28.19.4.28.27.21.42.32.26.2.48.39.2.17.68.59.09.08.57.54.23.21.42.43.25.25c.13.13.26.26.38.4l.25.26.38.42.22.25c.14.16.28.32.41.49l.18.2.58.72.1.13.54.71.23.31c.08.1.15.21.23.32l.25.36.23.32.18.27c.19.28.37.56.55.84l.09.14c.2.32.39.64.58,1,.07.11.14.22.2.33l.2.35.21.39.19.35.17.31.3.58c0,.11.11.21.16.32l.23.47c.05.12.11.23.16.35s.13.28.19.42.11.25.17.37l.16.39.17.39.16.4.15.39c.05.13.1.27.16.41s.09.25.14.38l.15.45c0,.12.09.24.13.36l.15.49c0,.11.08.22.11.33s.12.4.17.6,0,.17.08.26h0l.41.12.51.16.15.06.36.13.18.08.34.14L239,78l.37.18.15.07.52.26.45.26.32.19.31.19.25.16.33.22.24.16.33.24.24.17.34.27.23.17.39.33.18.14.57.5.07.06.49.46.19.18.36.36.2.21.33.34.2.22c.11.11.22.23.32.35a2,2,0,0,1,.19.22l.35.4.15.18c.16.2.33.4.49.61l.08.09.45.6.2.27.19.26c.07.11.15.21.22.31l.18.27.15.22.45.69.09.14c.17.26.33.53.49.8.06.1.12.2.17.3a2.75,2.75,0,0,1,.17.29l.18.33.17.3.13.25.26.5.13.27.19.4c.05.1.1.2.14.3a3.73,3.73,0,0,1,.16.35l.15.31.13.33c0,.11.1.22.14.33l.14.33c0,.11.08.22.13.33s.08.23.13.35l.12.32c0,.13.08.25.13.38l.1.3c.05.14.09.28.13.41l.09.29c.05.15.1.31.14.47s0,.17.07.26h0l3.91,2.25.44.27h0l.42.29.15.1.28.2a1.09,1.09,0,0,0,.17.13l.25.2.18.15.24.2.19.16.23.21.18.17c.08.08.16.15.23.23l.17.16.24.25.15.16.27.3.11.12c.13.14.25.28.37.43l.06.07.3.38.38.49h0l.51.73.12.18.18.27.15.25.18.28.13.23c.14.23.27.47.39.7l.14.26.14.27.19.39.06.12c.08.17.15.34.23.5l.05.14c.06.12.11.25.16.37s.05.12.07.17.1.25.14.37l.06.15.17.48v0c.06.18.12.35.17.52s0,.12.05.17.07.24.1.36l.05.2a3.38,3.38,0,0,1,.08.34,1.33,1.33,0,0,1,.05.19c0,.12.05.23.07.35a1.16,1.16,0,0,1,0,.18c0,.15.06.3.08.45v.07c0,.17.05.34.07.51a.68.68,0,0,1,0,.14c0,.12,0,.25,0,.37s0,.11,0,.17,0,.23,0,.35a.86.86,0,0,1,0,.16c0,.16,0,.33,0,.49V115c0,.16,0,.33,0,.49v.14l0,.33a1.23,1.23,0,0,1,0,.19l0,.27,0,.2c0,.08,0,.16,0,.24s0,.15,0,.22a1.42,1.42,0,0,0-.05.22c0,.08-.05.16-.07.24s0,.13-.05.19-.07.2-.1.29,0,.1,0,.15-.13.31-.2.46l-.16.33h0a3.37,3.37,0,0,1-.19.32l0,.06-.15.22-.07.09-.15.19-.06.07-.23.24,0,0-.21.18-.08.07-.18.14-.08.05-.27.17L265,120l.27-.17.08-.06.19-.14.07-.06.21-.19,0,0c.07-.08.15-.15.22-.24l.06-.07c.05-.06.11-.12.16-.19l.06-.08c.06-.07.11-.15.16-.22a.21.21,0,0,1,0-.06v0l.18-.3h0c.06-.11.11-.21.16-.32v0a4.89,4.89,0,0,0,.19-.46s0,0,0,0a.76.76,0,0,1,0-.11l.09-.28,0-.08,0-.11.06-.25,0-.1a.5.5,0,0,1,0-.12c0-.07,0-.14,0-.21l0-.12a.59.59,0,0,1,0-.13,1.23,1.23,0,0,0,0-.2.3.3,0,0,0,0-.1s0-.11,0-.17a1.37,1.37,0,0,1,0-.19v-.07a2.28,2.28,0,0,0,0-.26s0-.09,0-.14v0c0-.14,0-.29,0-.44v-1.14Z" transform="translate(-24.69 -25.04)"/><path class="cls-27" d="M221.63,56.24c7,4,13,12.52,15.28,21a14.88,14.88,0,0,1,3.62,1.54c5.9,3.4,10.92,10.56,12.87,17.68l3.91,2.25c5,2.88,9,9.87,9,15.61V115c0,5.73-4.08,8-9.07,5.16L202.92,88.8c-5-2.88-9-9.87-9-15.61v-.71c0-.29,0-.57,0-.85s0-.65,0-1c0-7.14,5.07-10,11.28-6.43C205.89,54.86,213,51.26,221.63,56.24Z" transform="translate(-24.69 -25.04)"/><path class="cls-29" d="M296,93.31h-.08l-.1,0h0l-.1,0-2.06-1.19h-.31l0,0-3.9,2.27.07,0h.08l.09,0h0l.11,0,2.06,1.19h.31l0,0,3.9-2.27a.09.09,0,0,1-.07,0Z" transform="translate(-24.69 -25.04)"/><path class="cls-29" d="M308.6,101.27v-.12h0V101h0v-.07l0,0v-.06h0l0,0,0-.05,0,0h0l0,0,0,0,0,0,0,0,0,0,0,0h0l0,0,0,0h0l0,0h0l0,0h0l-2.06-1.19-.1-.07h0l-.09-.09h0l-.09-.1h0l-.07-.11h0l-.06-.12h0a.56.56,0,0,1,0-.12h0a.27.27,0,0,1,0-.12h0a.49.49,0,0,1,0-.12l0-11.3V86.8h0v-.06l0-.06v-.06l0-.06v0h0l0-.06,0-.06,0-.05,0-.06,0,0h0l0,0,0-.06,0-.07-.05-.08h0v0l-.09-.14-.07-.1h0L305,85.6a.1.1,0,0,0,0,0l-.05-.06,0,0h0l0,0,0,0-.05,0-.05,0,0,0h0l-.05,0,0,0-.05,0-.05,0h0l-7-4.06,0,0-.05,0,0,0h0l-.05,0,0,0h-.45l-.06,0h0l-.09,0-3.9,2.27.09,0,.07,0h0l.09,0h.22l.11,0h0l.11,0h0l.12.06,7,4.06a1.88,1.88,0,0,1,.23.16h0l.21.2h0l.19.24h0a2.33,2.33,0,0,1,.17.26h0c0,.09.1.18.14.27h0c0,.09.07.19.1.28h0a1.37,1.37,0,0,1,.07.29h0a1.32,1.32,0,0,1,0,.28l0,11.3v.12h0v.12h0V101h0v0l0,0v0h0a.21.21,0,0,0,0,.06l0,0,0,0,0,0,0,0,0,0h0l0,0,0,0,0,0,0,0h.05l0,0h0l2.07,1.19.14.1h0l.12.14h0l.1.15h0a1.22,1.22,0,0,1,.07.17h0a1.42,1.42,0,0,1,.05.16h0a.76.76,0,0,1,0,.15h0a.35.35,0,0,1-.1.24l-7.27,7.35a.1.1,0,0,1-.05,0l3.91-2.27.05,0,7.27-7.34,0,0a.05.05,0,0,0,0,0l0,0v-.14h0Z" transform="translate(-24.69 -25.04)"/><path class="cls-27" d="M300.52,87.33a2.57,2.57,0,0,1,1.16,2l0,11.3a1.1,1.1,0,0,0,.49.85l2.07,1.19c.4.23.63.89.39,1.12l-7.27,7.35a.33.33,0,0,1-.4,0,1.11,1.11,0,0,1-.4-.47L289.32,95c-.23-.51,0-.89.41-.66l2.06,1.19c.27.16.49,0,.49-.28l0-11.3c0-.74.52-1,1.17-.67Z" transform="translate(-24.69 -25.04)"/></g></g></svg>